STARTFONT 2.1
COMMENT
COMMENT Converted from OpenType font "Q:\font stuff\winfont\Alloy Bold.ttf" by "otf2bdf 3.0".
COMMENT
FONT -FreeType-Alloy-Bold-R-Normal--169-1700-72-72-P-916-ISO10646-1
SIZE 170 72 72
FONTBOUNDINGBOX 232 226 -36 -45
STARTPROPERTIES 19
FOUNDRY "FreeType"
FAMILY_NAME "Alloy"
WEIGHT_NAME "Bold"
SLANT "R"
SETWIDTH_NAME "Normal"
ADD_STYLE_NAME ""
PIXEL_SIZE 169
POINT_SIZE 1700
RESOLUTION_X 72
RESOLUTION_Y 72
SPACING "P"
AVERAGE_WIDTH 916
CHARSET_REGISTRY "ISO10646"
CHARSET_ENCODING "1"
FONT_ASCENT 180
FONT_DESCENT 44
COPYRIGHT "Copyright 2003 YouWorkForThem.  All Rights Reserved. http://www.youworkforthem.com.  YWFT Administration Contact: info@youworkforthem.com"
_OTF_FONTFILE "Q:\font stuff\winfont\Alloy Bold.ttf"
_OTF_PSNAME "Alloy-Bold"
ENDPROPERTIES
CHARS 251
STARTCHAR 0020
ENCODING 32
SWIDTH 223 0
DWIDTH 38 0
BBX 0 0 0 0
BITMAP
ENDCHAR
STARTCHAR 0021
ENCODING 33
SWIDTH 188 0
DWIDTH 32 0
BBX 28 130 2 0
BITMAP
FFFFFFF0
FFFFFFF0
FFFFFFF0
FFFFFFF0
FFFFFFF0
FFFFFFF0
FFFFFFF0
FFFFFFF0
FFFFFFF0
FFFFFFF0
FFFFFFF0
FFFFFFF0
FFFFFFF0
FFFFFFF0
FFFFFFF0
FFFFFFF0
FFFFFFF0
FFFFFFF0
FFFFFFF0
FFFFFFF0
FFFFFFF0
FFFFFFF0
FFFFFFF0
FFFFFFF0
FFFFFFF0
FFFFFFF0
FFFFFFF0
FFFFFFF0
FFFFFFF0
FFFFFFF0
FFFFFFF0
FFFFFFF0
FFFFFFF0
FFFFFFF0
FFFFFFF0
FFFFFFF0
FFFFFFF0
FFFFFFF0
FFFFFFF0
FFFFFFF0
FFFFFFF0
FFFFFFF0
FFFFFFF0
FFFFFFF0
FFFFFFF0
FFFFFFF0
FFFFFFF0
FFFFFFF0
FFFFFFF0
FFFFFFF0
FFFFFFF0
FFFFFFF0
FFFFFFF0
FFFFFFF0
FFFFFFF0
FFFFFFF0
FFFFFFF0
FFFFFFF0
FFFFFFF0
FFFFFFF0
FFFFFFF0
FFFFFFF0
FFFFFFF0
FFFFFFF0
FFFFFFF0
FFFFFFF0
FFFFFFF0
FFFFFFF0
FFFFFFF0
FFFFFFF0
FFFFFFF0
FFFFFFF0
FFFFFFF0
FFFFFFF0
FFFFFFF0
FFFFFFF0
FFFFFFF0
FFFFFFF0
FFFFFFF0
FFFFFFF0
FFFFFFF0
FFFFFFF0
FFFFFFF0
FFFFFFF0
FFFFFFF0
FFFFFFF0
FFFFFFF0
FFFFFFF0
FFFFFFF0
FFFFFFF0
FFFFFFF0
FFFFFFF0
00000000
00000000
00000000
00000000
00000000
00000000
00000000
00000000
00000000
00000000
00000000
FFFFFFF0
FFFFFFF0
FFFFFFF0
FFFFFFF0
FFFFFFF0
FFFFFFF0
FFFFFFF0
FFFFFFF0
FFFFFFF0
FFFFFFF0
FFFFFFF0
FFFFFFF0
FFFFFFF0
FFFFFFF0
FFFFFFF0
FFFFFFF0
FFFFFFF0
FFFFFFF0
FFFFFFF0
FFFFFFF0
FFFFFFF0
FFFFFFF0
FFFFFFF0
FFFFFFF0
FFFFFFF0
FFFFFFF0
FFFFFFF0
ENDCHAR
STARTCHAR 0022
ENCODING 34
SWIDTH 376 0
DWIDTH 64 0
BBX 60 40 2 96
BITMAP
FFFFFFF0FFFFFFF0
FFFFFFF0FFFFFFF0
FFFFFFF0FFFFFFF0
FFFFFFF0FFFFFFF0
FFFFFFF0FFFFFFF0
FFFFFFF0FFFFFFF0
FFFFFFF0FFFFFFF0
FFFFFFF0FFFFFFF0
FFFFFFF0FFFFFFF0
FFFFFFF0FFFFFFF0
FFFFFFF0FFFFFFF0
FFFFFFF0FFFFFFF0
FFFFFFF0FFFFFFF0
FFFFFFF0FFFFFFF0
FFFFFFF0FFFFFFF0
FFFFFFF0FFFFFFF0
FFFFFFF0FFFFFFF0
FFFFFFF0FFFFFFF0
FFFFFFF0FFFFFFF0
FFFFFFF0FFFFFFF0
FFFFFFF0FFFFFFF0
FFFFFFF0FFFFFFF0
FFFFFFF0FFFFFFF0
FFFFFFF0FFFFFFF0
FFFFFFF0FFFFFFF0
FFFFFFF0FFFFFFF0
FFFFFFF0FFFFFFF0
FFFFFFF0FFFFFFF0
FFFFFFF0FFFFFFF0
FFFFFFF0FFFFFFF0
FFFFFFF0FFFFFFF0
7FFFFFE07FFFFFE0
3FFFFFC03FFFFFC0
1FFFFF801FFFFF80
0FFFFF000FFFFF00
07FFFE0007FFFE00
03FFFC0003FFFC00
01FFF80001FFF800
00FFF00000FFF000
007FE000007FE000
ENDCHAR
STARTCHAR 0023
ENCODING 35
SWIDTH 641 0
DWIDTH 109 0
BBX 104 104 2 12
BITMAP
00000FFFFFFE003FFFFFF80000
00000FFFFFFE003FFFFFF80000
00000FFFFFFE003FFFFFF80000
00000FFFFFFE003FFFFFF80000
00000FFFFFFE003FFFFFF80000
00000FFFFFFE003FFFFFF80000
00000FFFFFFE003FFFFFF80000
00000FFFFFFE003FFFFFF80000
00000FFFFFFE003FFFFFF80000
00000FFFFFFE003FFFFFF80000
00000FFFFFFE003FFFFFF80000
00000FFFFFFE003FFFFFF80000
00000FFFFFFE003FFFFFF80000
00000FFFFFFE003FFFFFF80000
00000FFFFFFE003FFFFFF80000
00000FFFFFFE003FFFFFF80000
00000FFFFFFE003FFFFFF80000
00000FFFFFFE003FFFFFF80000
00000FFFFFFE003FFFFFF80000
FFFFFFFFFFFFFFFFFFFFFFFFFF
FFFFFFFFFFFFFFFFFFFFFFFFFF
FFFFFFFFFFFFFFFFFFFFFFFFFF
FFFFFFFFFFFFFFFFFFFFFFFFFF
FFFFFFFFFFFFFFFFFFFFFFFFFF
FFFFFFFFFFFFFFFFFFFFFFFFFF
FFFFFFFFFFFFFFFFFFFFFFFFFF
FFFFFFFFFFFFFFFFFFFFFFFFFF
FFFFFFFFFFFFFFFFFFFFFFFFFF
FFFFFFFFFFFFFFFFFFFFFFFFFF
FFFFFFFFFFFFFFFFFFFFFFFFFF
FFFFFFFFFFFFFFFFFFFFFFFFFF
FFFFFFFFFFFFFFFFFFFFFFFFFF
FFFFFFFFFFFFFFFFFFFFFFFFFF
FFFFFFFFFFFFFFFFFFFFFFFFFF
FFFFFFFFFFFFFFFFFFFFFFFFFF
FFFFFFFFFFFFFFFFFFFFFFFFFF
FFFFFFFFFFFFFFFFFFFFFFFFFF
FFFFFFFFFFFFFFFFFFFFFFFFFF
FFFFFFFFFFFFFFFFFFFFFFFFFF
FFFFFFFFFFFFFFFFFFFFFFFFFF
FFFFFFFFFFFFFFFFFFFFFFFFFF
FFFFFFFFFFFFFFFFFFFFFFFFFF
FFFFFFFFFFFFFFFFFFFFFFFFFF
FFFFFFFFFFFFFFFFFFFFFFFFFF
FFFFFFFFFFFFFFFFFFFFFFFFFF
FFFFFFFFFFFFFFFFFFFFFFFFFF
FFFFFFFFFFFFFFFFFFFFFFFFFF
00000FFFFFFE003FFFFFF80000
00000FFFFFFE003FFFFFF80000
00000FFFFFFE003FFFFFF80000
00000FFFFFFE003FFFFFF80000
00000FFFFFFE003FFFFFF80000
00000FFFFFFE003FFFFFF80000
00000FFFFFFE003FFFFFF80000
00000FFFFFFE003FFFFFF80000
00000FFFFFFE003FFFFFF80000
00000FFFFFFE003FFFFFF80000
00000FFFFFFE003FFFFFF80000
FFFFFFFFFFFFFFFFFFFFFFFFFF
FFFFFFFFFFFFFFFFFFFFFFFFFF
FFFFFFFFFFFFFFFFFFFFFFFFFF
FFFFFFFFFFFFFFFFFFFFFFFFFF
FFFFFFFFFFFFFFFFFFFFFFFFFF
FFFFFFFFFFFFFFFFFFFFFFFFFF
FFFFFFFFFFFFFFFFFFFFFFFFFF
FFFFFFFFFFFFFFFFFFFFFFFFFF
FFFFFFFFFFFFFFFFFFFFFFFFFF
FFFFFFFFFFFFFFFFFFFFFFFFFF
FFFFFFFFFFFFFFFFFFFFFFFFFF
FFFFFFFFFFFFFFFFFFFFFFFFFF
FFFFFFFFFFFFFFFFFFFFFFFFFF
FFFFFFFFFFFFFFFFFFFFFFFFFF
FFFFFFFFFFFFFFFFFFFFFFFFFF
FFFFFFFFFFFFFFFFFFFFFFFFFF
FFFFFFFFFFFFFFFFFFFFFFFFFF
FFFFFFFFFFFFFFFFFFFFFFFFFF
FFFFFFFFFFFFFFFFFFFFFFFFFF
FFFFFFFFFFFFFFFFFFFFFFFFFF
FFFFFFFFFFFFFFFFFFFFFFFFFF
FFFFFFFFFFFFFFFFFFFFFFFFFF
FFFFFFFFFFFFFFFFFFFFFFFFFF
FFFFFFFFFFFFFFFFFFFFFFFFFF
FFFFFFFFFFFFFFFFFFFFFFFFFF
FFFFFFFFFFFFFFFFFFFFFFFFFF
FFFFFFFFFFFFFFFFFFFFFFFFFF
00000FFFFFFE003FFFFFF80000
00000FFFFFFE003FFFFFF80000
00000FFFFFFE003FFFFFF80000
00000FFFFFFE003FFFFFF80000
00000FFFFFFE003FFFFFF80000
00000FFFFFFE003FFFFFF80000
00000FFFFFFE003FFFFFF80000
00000FFFFFFE003FFFFFF80000
00000FFFFFFE003FFFFFF80000
00000FFFFFFE003FFFFFF80000
00000FFFFFFE003FFFFFF80000
00000FFFFFFE003FFFFFF80000
00000FFFFFFE003FFFFFF80000
00000FFFFFFE003FFFFFF80000
00000FFFFFFE003FFFFFF80000
00000FFFFFFE003FFFFFF80000
00000FFFFFFE003FFFFFF80000
00000FFFFFFE003FFFFFF80000
00000FFFFFFE003FFFFFF80000
ENDCHAR
STARTCHAR 0024
ENCODING 36
SWIDTH 641 0
DWIDTH 109 0
BBX 104 130 2 0
BITMAP
0000000001FFFFFFC000000000
0000000001FFFFFFC000000000
0000000001FFFFFFC000000000
0000000001FFFFFFC000000000
0000000001FFFFFFC000000000
0000000001FFFFFFC000000000
0000000001FFFFFFC000000000
000007FFFFFFFFFFFFFFF00000
00000FFFFFFFFFFFFFFFF80000
00001FFFFFFFFFFFFFFFFC0000
00003FFFFFFFFFFFFFFFFE0000
00007FFFFFFFFFFFFFFFFF0000
0000FFFFFFFFFFFFFFFFFF8000
0001FFFFFFFFFFFFFFFFFFC000
0003FFFFFFFFFFFFFFFFFFE000
0007FFFFFFFFFFFFFFFFFFF000
000FFFFFFFFFFFFFFFFFFFF800
001FFFFFFFFFFFFFFFFFFFFC00
003FFFFFFFFFFFFFFFFFFFFE00
007FFFFFFFFFFFFFFFFFFFFF00
00FFFFFFFFFFFFFFFFFFFFFF80
01FFFFFFFFFFFFFFFFFFFFFFC0
03FFFFFFFFFFFFFFFFFFFFFFE0
07FFFFFFFFFFFFFFFFFFFFFFF0
0FFFFFFFFFFFFFFFFFFFFFFFF8
1FFFFFFFFFFFFFFFFFFFFFFFFC
3FFFFFFFFFFFFFFFFFFFFFFFFE
7FFFFFFFFFFFFFFFFFFFFFFFFF
FFFFFFFFFFFFFFFFFFFFFFFFFF
FFFFFFFFFFFFFFFFFFFFFFFFFF
FFFFFFFFFFFFFFFFFFFFFFFFFF
FFFFFFFFFFFFFFFFFFFFFFFFFF
FFFFFFFFFFFFFFFFFFFFFFFFFF
FFFFFFFFFFFFFFFFFFFFFFFFFF
FFFFFFF0000000000007FFFFFF
FFFFFFF0000000000007FFFFFF
FFFFFFF0000000000007FFFFFF
FFFFFFF0000000000007FFFFFF
FFFFFFF0000000000007FFFFFF
FFFFFFF0000000000007FFFFFF
FFFFFFF0000000000007FFFFFF
FFFFFFF0000000000007FFFFFF
FFFFFFF0000000000007FFFFFF
FFFFFFF0000000000007FFFFFF
FFFFFFF0000000000007FFFFFF
FFFFFFF0000000000007FFFFFF
FFFFFFF0000000000007FFFFFF
FFFFFFF0000000000000000000
FFFFFFF0000000000000000000
FFFFFFF0000000000000000000
FFFFFFF0000000000000000000
FFFFFFF0000000000000000000
FFFFFFFFFFFFFFFFFFFFF00000
FFFFFFFFFFFFFFFFFFFFF80000
FFFFFFFFFFFFFFFFFFFFFC0000
FFFFFFFFFFFFFFFFFFFFFE0000
FFFFFFFFFFFFFFFFFFFFFF0000
7FFFFFFFFFFFFFFFFFFFFF8000
3FFFFFFFFFFFFFFFFFFFFFC000
1FFFFFFFFFFFFFFFFFFFFFE000
0FFFFFFFFFFFFFFFFFFFFFF000
07FFFFFFFFFFFFFFFFFFFFF800
03FFFFFFFFFFFFFFFFFFFFFC00
01FFFFFFFFFFFFFFFFFFFFFE00
00FFFFFFFFFFFFFFFFFFFFFF00
007FFFFFFFFFFFFFFFFFFFFF80
003FFFFFFFFFFFFFFFFFFFFFC0
001FFFFFFFFFFFFFFFFFFFFFE0
000FFFFFFFFFFFFFFFFFFFFFF0
0007FFFFFFFFFFFFFFFFFFFFF8
0003FFFFFFFFFFFFFFFFFFFFFC
0001FFFFFFFFFFFFFFFFFFFFFE
0000FFFFFFFFFFFFFFFFFFFFFF
00007FFFFFFFFFFFFFFFFFFFFF
00003FFFFFFFFFFFFFFFFFFFFF
00001FFFFFFFFFFFFFFFFFFFFF
00000FFFFFFFFFFFFFFFFFFFFF
000007FFFFFFFFFFFFFFFFFFFF
000003FFFFFFFFFFFFFFFFFFFF
00000000000000000007FFFFFF
00000000000000000007FFFFFF
00000000000000000007FFFFFF
00000000000000000007FFFFFF
00000000000000000007FFFFFF
FFFFFFF0000000000007FFFFFF
FFFFFFF0000000000007FFFFFF
FFFFFFF0000000000007FFFFFF
FFFFFFF0000000000007FFFFFF
FFFFFFF0000000000007FFFFFF
FFFFFFF0000000000007FFFFFF
FFFFFFF0000000000007FFFFFF
FFFFFFF0000000000007FFFFFF
FFFFFFF0000000000007FFFFFF
FFFFFFF0000000000007FFFFFF
FFFFFFF0000000000007FFFFFF
FFFFFFF0000000000007FFFFFF
FFFFFFFFFFFFFFFFFFFFFFFFFF
FFFFFFFFFFFFFFFFFFFFFFFFFF
FFFFFFFFFFFFFFFFFFFFFFFFFF
FFFFFFFFFFFFFFFFFFFFFFFFFF
FFFFFFFFFFFFFFFFFFFFFFFFFF
FFFFFFFFFFFFFFFFFFFFFFFFFF
7FFFFFFFFFFFFFFFFFFFFFFFFF
3FFFFFFFFFFFFFFFFFFFFFFFFE
1FFFFFFFFFFFFFFFFFFFFFFFFC
0FFFFFFFFFFFFFFFFFFFFFFFF8
07FFFFFFFFFFFFFFFFFFFFFFF0
03FFFFFFFFFFFFFFFFFFFFFFE0
01FFFFFFFFFFFFFFFFFFFFFFC0
00FFFFFFFFFFFFFFFFFFFFFF80
007FFFFFFFFFFFFFFFFFFFFF00
003FFFFFFFFFFFFFFFFFFFFE00
001FFFFFFFFFFFFFFFFFFFFC00
000FFFFFFFFFFFFFFFFFFFF800
0007FFFFFFFFFFFFFFFFFFF000
0003FFFFFFFFFFFFFFFFFFE000
0001FFFFFFFFFFFFFFFFFFC000
0000FFFFFFFFFFFFFFFFFF8000
00007FFFFFFFFFFFFFFFFF0000
00003FFFFFFFFFFFFFFFFE0000
00001FFFFFFFFFFFFFFFFC0000
00000FFFFFFFFFFFFFFFF80000
000007FFFFFFFFFFFFFFF00000
000003FFFFFFFFFFFFFFE00000
0000000001FFFFFFC000000000
0000000001FFFFFFC000000000
0000000001FFFFFFC000000000
0000000001FFFFFFC000000000
0000000001FFFFFFC000000000
0000000001FFFFFFC000000000
ENDCHAR
STARTCHAR 0025
ENCODING 37
SWIDTH 788 0
DWIDTH 134 0
BBX 130 130 2 0
BITMAP
000003FFFFF0000000000000FFFFFFF000
000007FFFFF8000000000000FFFFFFF000
00000FFFFFFC000000000000FFFFFFF000
00001FFFFFFE000000000000FFFFFFF000
00003FFFFFFF000000000000FFFFFFF000
00007FFFFFFF800000000000FFFFFFF000
0000FFFFFFFFE00000000000FFFFFFF000
0001FFFFFFFFF00000000000FFFFFFF000
0003FFFFFFFFF80000000000FFFFFFF000
0007FFFFFFFFFC0000000000FFFFFFF000
000FFFFFFFFFFE0000000000FFFFFFF000
001FFFFFFFFFFF0000000000FFFFFFF000
003FFFFFFFFFFF8000000000FFFFFFF000
007FFFFFFFFFFFC000000000FFFFFFF000
00FFFFFFFFFFFFE000000000FFFFFFF000
01FFFFFFFFFFFFF000000000FFFFFFF000
03FFFFFFFFFFFFF800000000FFFFFFF000
07FFFFFFFFFFFFFC00000001FFFFFFF000
0FFFFFFFFFFFFFFE00000003FFFFFFF000
1FFFFFFFFFFFFFFF00000007FFFFFFF000
3FFFFFFFFFFFFFFF8000000FFFFFFFF000
7FFFFFFE1FFFFFFFC000001FFFFFFFF000
FFFFFFFC0FFFFFFFC000003FFFFFFFF000
FFFFFFF807FFFFFFC000007FFFFFFFF000
FFFFFFF003FFFFFFC00000FFFFFFFFF000
FFFFFFE001FFFFFFC00001FFFFFFFFE000
FFFFFFC000FFFFFFC00003FFFFFFFFC000
FFFFFF80007FFFFFC00007FFFFFFFF8000
FFFFFF00003FFFFFC0000FFFFFFFFF0000
FFFFFE00001FFFFFC0001FFFFFFFFE0000
FFFFFC00000FFFFFC0003FFFFFFFFC0000
FFFFF8000007FFFFC0007FFFFFFFF80000
FFFFF8000007FFFFC000FFFFFFFFF00000
FFFFF8000007FFFFC001FFFFFFFFE00000
FFFFF8000007FFFFC003FFFFFFFFC00000
FFFFFC000007FFFFC007FFFFFFFF800000
FFFFFE00000FFFFFC00FFFFFFFFF000000
FFFFFF00003FFFFFC01FFFFFFFFE000000
FFFFFF80007FFFFFC03FFFFFFFFC000000
FFFFFFC000FFFFFFC07FFFFFFFF8000000
FFFFFFE001FFFFFFC0FFFFFFFFF0000000
FFFFFFF003FFFFFFC1FFFFFFFFE0000000
FFFFFFF807FFFFFFC3FFFFFFFFC0000000
FFFFFFFC0FFFFFFFC7FFFFFFFF80000000
FFFFFFFE1FFFFFFFCFFFFFFFFF00000000
7FFFFFFFFFFFFFFF9FFFFFFFFE00000000
3FFFFFFFFFFFFFFF3FFFFFFFFC00000000
1FFFFFFFFFFFFFFE7FFFFFFFF800000000
0FFFFFFFFFFFFFFCFFFFFFFFF000000000
07FFFFFFFFFFFFF9FFFFFFFFE000000000
03FFFFFFFFFFFFF3FFFFFFFFC000000000
01FFFFFFFFFFFFE7FFFFFFFF8000000000
00FFFFFFFFFFFFCFFFFFFFFF0000000000
007FFFFFFFFFFF9FFFFFFFFE0000000000
003FFFFFFFFFFF3FFFFFFFFC0000000000
001FFFFFFFFFFE7FFFFFFFF80000000000
000FFFFFFFFFFCFFFFFFFFF00000000000
0007FFFFFFFFF9FFFFFFFFE00000000000
0003FFFFFFFFF3FFFFFFFFC00000000000
0001FFFFFFFFE7FFFFFFFF800000000000
0000FFFFFFFFCFFFFFFFFF000000000000
00007FFFFFFF9FFFFFFFFE000000000000
00003FFFFFFF3FFFFFFFFC000000000000
00001FFFFFFE7FFFFFFFF8000000000000
00000FFFFFFCFFFFFFFFF3FFFFF8000000
000007FFFFF9FFFFFFFFE7FFFFFC000000
000000000003FFFFFFFFCFFFFFFE000000
000000000007FFFFFFFF9FFFFFFF000000
00000000000FFFFFFFFF3FFFFFFF800000
00000000001FFFFFFFFE7FFFFFFFC00000
00000000003FFFFFFFFCFFFFFFFFE00000
00000000007FFFFFFFF9FFFFFFFFF00000
0000000000FFFFFFFFF3FFFFFFFFF80000
0000000001FFFFFFFFE7FFFFFFFFFC0000
0000000003FFFFFFFFCFFFFFFFFFFE0000
0000000007FFFFFFFF9FFFFFFFFFFF0000
000000000FFFFFFFFF3FFFFFFFFFFF8000
000000001FFFFFFFFE7FFFFFFFFFFFC000
000000003FFFFFFFFCFFFFFFFFFFFFC000
000000007FFFFFFFF9FFFFFFFFFFFFE000
00000000FFFFFFFFF3FFFFFFFFFFFFF000
00000001FFFFFFFFE7FFFFFFFFFFFFF800
00000003FFFFFFFFCFFFFFFFFFFFFFFC00
00000007FFFFFFFF9FFFFFFFFFFFFFFE00
0000000FFFFFFFFF3FFFFFFFFFFFFFFF00
0000001FFFFFFFFE7FFFFFFE1FFFFFFF80
0000003FFFFFFFFCFFFFFFFC0FFFFFFFC0
0000007FFFFFFFF8FFFFFFF807FFFFFFC0
000000FFFFFFFFF0FFFFFFF003FFFFFFC0
000001FFFFFFFFE0FFFFFFE001FFFFFFC0
000003FFFFFFFFC0FFFFFFC000FFFFFFC0
000007FFFFFFFF80FFFFFF80007FFFFFC0
00000FFFFFFFFF00FFFFFF00003FFFFFC0
00001FFFFFFFFE00FFFFFE00001FFFFFC0
00003FFFFFFFFC00FFFFFC00000FFFFFC0
00007FFFFFFFF800FFFFF8000007FFFFC0
0000FFFFFFFFF000FFFFF8000007FFFFC0
0001FFFFFFFFE000FFFFF8000007FFFFC0
0003FFFFFFFFC000FFFFF8000007FFFFC0
0007FFFFFFFF8000FFFFFC00000FFFFFC0
000FFFFFFFFF0000FFFFFE00001FFFFFC0
001FFFFFFFFE0000FFFFFF00003FFFFFC0
003FFFFFFFFC0000FFFFFF80007FFFFFC0
007FFFFFFFF80000FFFFFFC000FFFFFFC0
00FFFFFFFFF00000FFFFFFE001FFFFFFC0
01FFFFFFFFE00000FFFFFFF003FFFFFFC0
01FFFFFFFFC00000FFFFFFF807FFFFFFC0
01FFFFFFFF800000FFFFFFFC0FFFFFFFC0
01FFFFFFFF0000007FFFFFFE1FFFFFFFC0
01FFFFFFFE0000003FFFFFFFFFFFFFFF80
01FFFFFFFC0000001FFFFFFFFFFFFFFF00
01FFFFFFF80000000FFFFFFFFFFFFFFE00
01FFFFFFF000000007FFFFFFFFFFFFFC00
01FFFFFFE000000003FFFFFFFFFFFFF800
01FFFFFFC000000001FFFFFFFFFFFFF000
01FFFFFFC000000000FFFFFFFFFFFFE000
01FFFFFFC000000000FFFFFFFFFFFFC000
01FFFFFFC0000000007FFFFFFFFFFF8000
01FFFFFFC0000000003FFFFFFFFFFF0000
01FFFFFFC0000000001FFFFFFFFFFE0000
01FFFFFFC0000000000FFFFFFFFFFC0000
01FFFFFFC00000000007FFFFFFFFF80000
01FFFFFFC00000000003FFFFFFFFF00000
01FFFFFFC00000000001FFFFFFFFE00000
01FFFFFFC00000000000FFFFFFFFC00000
01FFFFFFC000000000007FFFFFFF800000
01FFFFFFC000000000003FFFFFFF000000
01FFFFFFC000000000001FFFFFFE000000
01FFFFFFC000000000000FFFFFFC000000
01FFFFFFC0000000000007FFFFF8000000
ENDCHAR
STARTCHAR 0026
ENCODING 38
SWIDTH 752 0
DWIDTH 128 0
BBX 124 130 2 0
BITMAP
000003FFFFFFFFFFFFFFF80000000000
000007FFFFFFFFFFFFFFF80000000000
00000FFFFFFFFFFFFFFFF80000000000
00001FFFFFFFFFFFFFFFF80000000000
00003FFFFFFFFFFFFFFFF80000000000
00007FFFFFFFFFFFFFFFF80000000000
0000FFFFFFFFFFFFFFFFF80000000000
0001FFFFFFFFFFFFFFFFF80000000000
0003FFFFFFFFFFFFFFFFF80000000000
0007FFFFFFFFFFFFFFFFF80000000000
000FFFFFFFFFFFFFFFFFF80000000000
001FFFFFFFFFFFFFFFFFF80000000000
003FFFFFFFFFFFFFFFFFF80000000000
007FFFFFFFFFFFFFFFFFF80000000000
00FFFFFFFFFFFFFFFFFFF80000000000
01FFFFFFFFFFFFFFFFFFF80000000000
03FFFFFFFFFFFFFFFFFFF80000000000
07FFFFFFFFFFFFFFFFFFF80000000000
0FFFFFFFFFFFFFFFFFFFF80000000000
1FFFFFFFFFFFFFFFFFFFF80000000000
3FFFFFFFFFFFFFFFFFFFF80000000000
7FFFFFFFFFFFFFFFFFFFF80000000000
FFFFFFFFFFFFFFFFFFFFF80000000000
FFFFFFFFFFFFFFFFFFFFF80000000000
FFFFFFFFFFFFFFFFFFFFF80000000000
FFFFFFFFFFFFFFFFFFFFF80000000000
FFFFFFFFFFFFFFFFFFFFF80000000000
FFFFFFFFFFFFFFFFFFFFF80000000000
FFFFFFF0000000000000000000000000
FFFFFFF0000000000000000000000000
FFFFFFF0000000000000000000000000
FFFFFFF0000000000000000000000000
FFFFFFF0000000000007FFFFFF000000
FFFFFFF0000000000007FFFFFF000000
FFFFFFF0000000000007FFFFFF000000
FFFFFFF0000000000007FFFFFF000000
FFFFFFF0000000000007FFFFFF000000
FFFFFFF0000000000007FFFFFF000000
FFFFFFF0000000000007FFFFFF000000
FFFFFFF0000000000007FFFFFF000000
FFFFFFF0000000000007FFFFFF000000
FFFFFFF0000000000007FFFFFF000000
FFFFFFF0000000000007FFFFFF000000
FFFFFFF0000000000007FFFFFF000000
FFFFFFF0000000000007FFFFFF000000
FFFFFFF0000000000007FFFFFF000000
FFFFFFF0000000000007FFFFFF000000
FFFFFFF0000000000007FFFFFF000000
FFFFFFF0000000000007FFFFFF000000
FFFFFFF0000000000007FFFFFF000000
FFFFFFF0000000000007FFFFFF000000
7FFFFFF0000000000007FFFFFF000000
3FFFFFFFFFFFFFFFFFFFFFFFFFFFFFF0
1FFFFFFFFFFFFFFFFFFFFFFFFFFFFFF0
0FFFFFFFFFFFFFFFFFFFFFFFFFFFFFF0
07FFFFFFFFFFFFFFFFFFFFFFFFFFFFF0
03FFFFFFFFFFFFFFFFFFFFFFFFFFFFF0
01FFFFFFFFFFFFFFFFFFFFFFFFFFFFF0
00FFFFFFFFFFFFFFFFFFFFFFFFFFFFF0
007FFFFFFFFFFFFFFFFFFFFFFFFFFFF0
003FFFFFFFFFFFFFFFFFFFFFFFFFFFF0
001FFFFFFFFFFFFFFFFFFFFFFFFFFFF0
000FFFFFFFFFFFFFFFFFFFFFFFFFFFF0
0007FFFFFFFFFFFFFFFFFFFFFFFFFFF0
0003FFFFFFFFFFFFFFFFFFFFFFFFFFF0
0003FFFFFFFFFFFFFFFFFFFFFFFFFFF0
0007FFFFFFFFFFFFFFFFFFFFFFFFFFF0
000FFFFFFFFFFFFFFFFFFFFFFFFFFFF0
001FFFFFFFFFFFFFFFFFFFFFFFFFFFF0
003FFFFFFFFFFFFFFFFFFFFFFFFFFFF0
007FFFFFFFFFFFFFFFFFFFFFFFFFFFF0
00FFFFFFFFFFFFFFFFFFFFFFFFFFFFF0
01FFFFFFFFFFFFFFFFFFFFFFFFFFFFF0
03FFFFFFFFFFFFFFFFFFFFFFFFFFFFF0
07FFFFFFFFFFFFFFFFFFFFFFFFFFFFF0
0FFFFFFFFFFFFFFFFFFFFFFFFFFFFFF0
1FFFFFFFFFFFFFFFFFFFFFFFFFFFFFF0
3FFFFFFFFFFFFFFFFFFFFFFFFFFFFFF0
7FFFFFFFFFFFFFFFFFFFFFFFFFFFFFF0
FFFFFFF0000000000007FFFFFF000000
FFFFFFF0000000000007FFFFFF000000
FFFFFFF0000000000007FFFFFF000000
FFFFFFF0000000000007FFFFFF000000
FFFFFFF0000000000007FFFFFF000000
FFFFFFF0000000000007FFFFFF000000
FFFFFFF0000000000007FFFFFF000000
FFFFFFF0000000000007FFFFFF000000
FFFFFFF0000000000007FFFFFF000000
FFFFFFF0000000000007FFFFFF000000
FFFFFFF0000000000007FFFFFF000000
FFFFFFF0000000000007FFFFFF000000
FFFFFFF0000000000007FFFFFF000000
FFFFFFF0000000000007FFFFFF000000
FFFFFFF0000000000007FFFFFF000000
FFFFFFF0000000000007FFFFFF000000
FFFFFFF0000000000007FFFFFF000000
FFFFFFF0000000000007FFFFFF000000
FFFFFFF0000000000007FFFFFF000000
FFFFFFF0000000000007FFFFFF000000
FFFFFFF0000000000007FFFFFF000000
FFFFFFF0000000000007FFFFFF000000
FFFFFFF0000000000007FFFFFF000000
FFFFFFF0000000000007FFFFFF000000
FFFFFFFFFFFFFFFFFFFFFFFFFFFFFFF0
FFFFFFFFFFFFFFFFFFFFFFFFFFFFFFF0
FFFFFFFFFFFFFFFFFFFFFFFFFFFFFFF0
FFFFFFFFFFFFFFFFFFFFFFFFFFFFFFF0
FFFFFFFFFFFFFFFFFFFFFFFFFFFFFFF0
FFFFFFFFFFFFFFFFFFFFFFFFFFFFFFF0
7FFFFFFFFFFFFFFFFFFFFFFFFFFFFFF0
3FFFFFFFFFFFFFFFFFFFFFFFFFFFFFF0
1FFFFFFFFFFFFFFFFFFFFFFFFFFFFFF0
0FFFFFFFFFFFFFFFFFFFFFFFFFFFFFF0
07FFFFFFFFFFFFFFFFFFFFFFFFFFFFF0
03FFFFFFFFFFFFFFFFFFFFFFFFFFFFF0
01FFFFFFFFFFFFFFFFFFFFFFFFFFFFF0
00FFFFFFFFFFFFFFFFFFFFFFFFFFFFF0
007FFFFFFFFFFFFFFFFFFFFFFFFFFFF0
003FFFFFFFFFFFFFFFFFFFFFFFFFFFF0
001FFFFFFFFFFFFFFFFFFFFFFFFFFFF0
000FFFFFFFFFFFFFFFFFFFFFFFFFFFF0
0007FFFFFFFFFFFFFFFFFFFFFFFFFFF0
0003FFFFFFFFFFFFFFFFFFFFFFFFFFF0
0001FFFFFFFFFFFFFFFFFFFFFFFFFFF0
0000FFFFFFFFFFFFFFFFFFFFFFFFFFF0
00007FFFFFFFFFFFFFFFFFFFFFFFFFF0
00003FFFFFFFFFFFFFFFFFFFFFFFFFF0
00001FFFFFFFFFFFFFFFFFFFFFFFFFF0
00000FFFFFFFFFFFFFFFFFFFFFFFFFF0
000007FFFFFFFFFFFFFFFFFFFFFFFFF0
ENDCHAR
STARTCHAR 0027
ENCODING 39
SWIDTH 188 0
DWIDTH 32 0
BBX 28 40 2 96
BITMAP
FFFFFFF0
FFFFFFF0
FFFFFFF0
FFFFFFF0
FFFFFFF0
FFFFFFF0
FFFFFFF0
FFFFFFF0
FFFFFFF0
FFFFFFF0
FFFFFFF0
FFFFFFF0
FFFFFFF0
FFFFFFF0
FFFFFFF0
FFFFFFF0
FFFFFFF0
FFFFFFF0
FFFFFFF0
FFFFFFF0
FFFFFFF0
FFFFFFF0
FFFFFFF0
FFFFFFF0
FFFFFFF0
FFFFFFF0
FFFFFFF0
FFFFFFF0
FFFFFFF0
FFFFFFF0
FFFFFFF0
7FFFFFE0
3FFFFFC0
1FFFFF80
0FFFFF00
07FFFE00
03FFFC00
01FFF800
00FFF000
007FE000
ENDCHAR
STARTCHAR 0028
ENCODING 40
SWIDTH 300 0
DWIDTH 51 0
BBX 47 155 2 -20
BITMAP
000007FFFFFE
00000FFFFFFE
00001FFFFFFE
00003FFFFFFE
00007FFFFFFE
0000FFFFFFFE
0001FFFFFFFE
0003FFFFFFFE
0007FFFFFFFE
000FFFFFFFFE
001FFFFFFFFE
003FFFFFFFFE
007FFFFFFFFE
00FFFFFFFFFE
01FFFFFFFFFE
03FFFFFFFFFE
07FFFFFFFFFE
0FFFFFFFFFFE
1FFFFFFFFFFE
3FFFFFFFFFFE
7FFFFFFFFFFE
FFFFFFFFFFFE
FFFFFFFFFFFE
FFFFFFFFFFFE
FFFFFFFFFFFE
FFFFFFFFFFFE
FFFFFFFFFFFE
FFFFFFF00000
FFFFFFF00000
FFFFFFF00000
FFFFFFF00000
FFFFFFF00000
FFFFFFF00000
FFFFFFF00000
FFFFFFF00000
FFFFFFF00000
FFFFFFF00000
FFFFFFF00000
FFFFFFF00000
FFFFFFF00000
FFFFFFF00000
FFFFFFF00000
FFFFFFF00000
FFFFFFF00000
FFFFFFF00000
FFFFFFF00000
FFFFFFF00000
FFFFFFF00000
FFFFFFF00000
FFFFFFF00000
FFFFFFF00000
FFFFFFF00000
FFFFFFF00000
FFFFFFF00000
FFFFFFF00000
FFFFFFF00000
FFFFFFF00000
FFFFFFF00000
FFFFFFF00000
FFFFFFF00000
FFFFFFF00000
FFFFFFF00000
FFFFFFF00000
FFFFFFF00000
FFFFFFF00000
FFFFFFF00000
FFFFFFF00000
FFFFFFF00000
FFFFFFF00000
FFFFFFF00000
FFFFFFF00000
FFFFFFF00000
FFFFFFF00000
FFFFFFF00000
FFFFFFF00000
FFFFFFF00000
FFFFFFF00000
FFFFFFF00000
FFFFFFF00000
FFFFFFF00000
FFFFFFF00000
FFFFFFF00000
FFFFFFF00000
FFFFFFF00000
FFFFFFF00000
FFFFFFF00000
FFFFFFF00000
FFFFFFF00000
FFFFFFF00000
FFFFFFF00000
FFFFFFF00000
FFFFFFF00000
FFFFFFF00000
FFFFFFF00000
FFFFFFF00000
FFFFFFF00000
FFFFFFF00000
FFFFFFF00000
FFFFFFF00000
FFFFFFF00000
FFFFFFF00000
FFFFFFF00000
FFFFFFF00000
FFFFFFF00000
FFFFFFF00000
FFFFFFF00000
FFFFFFF00000
FFFFFFF00000
FFFFFFF00000
FFFFFFF00000
FFFFFFF00000
FFFFFFF00000
FFFFFFF00000
FFFFFFF00000
FFFFFFF00000
FFFFFFF00000
FFFFFFF00000
FFFFFFF00000
FFFFFFF00000
FFFFFFF00000
FFFFFFF00000
FFFFFFF00000
FFFFFFF00000
FFFFFFF00000
FFFFFFF00000
FFFFFFF00000
FFFFFFF00000
FFFFFFF00000
FFFFFFFFFFFE
FFFFFFFFFFFE
FFFFFFFFFFFE
FFFFFFFFFFFE
FFFFFFFFFFFE
FFFFFFFFFFFE
7FFFFFFFFFFE
3FFFFFFFFFFE
1FFFFFFFFFFE
0FFFFFFFFFFE
07FFFFFFFFFE
03FFFFFFFFFE
01FFFFFFFFFE
00FFFFFFFFFE
007FFFFFFFFE
003FFFFFFFFE
001FFFFFFFFE
000FFFFFFFFE
0007FFFFFFFE
0003FFFFFFFE
0001FFFFFFFE
0000FFFFFFFE
00007FFFFFFE
00003FFFFFFE
00001FFFFFFE
00000FFFFFFE
000007FFFFFE
ENDCHAR
STARTCHAR 0029
ENCODING 41
SWIDTH 300 0
DWIDTH 51 0
BBX 47 155 2 -20
BITMAP
FFFFFFC00000
FFFFFFE00000
FFFFFFF00000
FFFFFFF80000
FFFFFFFC0000
FFFFFFFE0000
FFFFFFFF0000
FFFFFFFF8000
FFFFFFFFC000
FFFFFFFFE000
FFFFFFFFF000
FFFFFFFFF800
FFFFFFFFFC00
FFFFFFFFFE00
FFFFFFFFFF00
FFFFFFFFFF80
FFFFFFFFFFC0
FFFFFFFFFFE0
FFFFFFFFFFF0
FFFFFFFFFFF8
FFFFFFFFFFFC
FFFFFFFFFFFE
FFFFFFFFFFFE
FFFFFFFFFFFE
FFFFFFFFFFFE
FFFFFFFFFFFE
FFFFFFFFFFFE
00000FFFFFFE
00000FFFFFFE
00000FFFFFFE
00000FFFFFFE
00000FFFFFFE
00000FFFFFFE
00000FFFFFFE
00000FFFFFFE
00000FFFFFFE
00000FFFFFFE
00000FFFFFFE
00000FFFFFFE
00000FFFFFFE
00000FFFFFFE
00000FFFFFFE
00000FFFFFFE
00000FFFFFFE
00000FFFFFFE
00000FFFFFFE
00000FFFFFFE
00000FFFFFFE
00000FFFFFFE
00000FFFFFFE
00000FFFFFFE
00000FFFFFFE
00000FFFFFFE
00000FFFFFFE
00000FFFFFFE
00000FFFFFFE
00000FFFFFFE
00000FFFFFFE
00000FFFFFFE
00000FFFFFFE
00000FFFFFFE
00000FFFFFFE
00000FFFFFFE
00000FFFFFFE
00000FFFFFFE
00000FFFFFFE
00000FFFFFFE
00000FFFFFFE
00000FFFFFFE
00000FFFFFFE
00000FFFFFFE
00000FFFFFFE
00000FFFFFFE
00000FFFFFFE
00000FFFFFFE
00000FFFFFFE
00000FFFFFFE
00000FFFFFFE
00000FFFFFFE
00000FFFFFFE
00000FFFFFFE
00000FFFFFFE
00000FFFFFFE
00000FFFFFFE
00000FFFFFFE
00000FFFFFFE
00000FFFFFFE
00000FFFFFFE
00000FFFFFFE
00000FFFFFFE
00000FFFFFFE
00000FFFFFFE
00000FFFFFFE
00000FFFFFFE
00000FFFFFFE
00000FFFFFFE
00000FFFFFFE
00000FFFFFFE
00000FFFFFFE
00000FFFFFFE
00000FFFFFFE
00000FFFFFFE
00000FFFFFFE
00000FFFFFFE
00000FFFFFFE
00000FFFFFFE
00000FFFFFFE
00000FFFFFFE
00000FFFFFFE
00000FFFFFFE
00000FFFFFFE
00000FFFFFFE
00000FFFFFFE
00000FFFFFFE
00000FFFFFFE
00000FFFFFFE
00000FFFFFFE
00000FFFFFFE
00000FFFFFFE
00000FFFFFFE
00000FFFFFFE
00000FFFFFFE
00000FFFFFFE
00000FFFFFFE
00000FFFFFFE
00000FFFFFFE
00000FFFFFFE
00000FFFFFFE
FFFFFFFFFFFE
FFFFFFFFFFFE
FFFFFFFFFFFE
FFFFFFFFFFFE
FFFFFFFFFFFE
FFFFFFFFFFFE
FFFFFFFFFFFC
FFFFFFFFFFF8
FFFFFFFFFFF0
FFFFFFFFFFE0
FFFFFFFFFFC0
FFFFFFFFFF80
FFFFFFFFFF00
FFFFFFFFFE00
FFFFFFFFFC00
FFFFFFFFF800
FFFFFFFFF000
FFFFFFFFE000
FFFFFFFFC000
FFFFFFFF8000
FFFFFFFF0000
FFFFFFFE0000
FFFFFFFC0000
FFFFFFF80000
FFFFFFF00000
FFFFFFE00000
FFFFFFC00000
ENDCHAR
STARTCHAR 002A
ENCODING 42
SWIDTH 452 0
DWIDTH 77 0
BBX 72 78 2 57
BITMAP
FFFFFFF00007FFFFFF
FFFFFFF00007FFFFFF
FFFFFFF00007FFFFFF
FFFFFFF00007FFFFFF
FFFFFFF00007FFFFFF
FFFFFFF00007FFFFFF
FFFFFFF00007FFFFFF
FFFFFFF00007FFFFFF
FFFFFFF00007FFFFFF
FFFFFFF00007FFFFFF
FFFFFFF8000FFFFFFF
FFFFFFFC001FFFFFFF
FFFFFFFE003FFFFFFF
FFFFFFFF007FFFFFFF
FFFFFFFF81FFFFFFFF
FFFFFFFFC3FFFFFFFF
FFFFFFFFE7FFFFFFFF
FFFFFFFFFFFFFFFFFF
FFFFFFFFFFFFFFFFFF
7FFFFFFFFFFFFFFFFE
3FFFFFFFFFFFFFFFFC
1FFFFFFFFFFFFFFFF8
0FFFFFFFFFFFFFFFF0
07FFFFFFFFFFFFFFE0
03FFFFFFFFFFFFFFC0
01FFFFFFFFFFFFFF80
00FFFFFFFFFFFFFF00
007FFFFFFFFFFFFE00
003FFFFFFFFFFFFC00
001FFFFFFFFFFFF800
000FFFFFFFFFFFF000
0007FFFFFFFFFFE000
0003FFFFFFFFFFC000
0001FFFFFFFFFF8000
0000FFFFFFFFFF0000
00007FFFFFFFFE0000
00003FFFFFFFFC0000
00001FFFFFFFF80000
00000FFFFFFFF00000
000007FFFFFFF00000
00000FFFFFFFF80000
00001FFFFFFFFC0000
00003FFFFFFFFE0000
00007FFFFFFFFF0000
0000FFFFFFFFFF8000
0001FFFFFFFFFFC000
0003FFFFFFFFFFE000
0007FFFFFFFFFFF000
000FFFFFFFFFFFF800
001FFFFFFFFFFFFC00
003FFFFFFFFFFFFE00
007FFFFFFFFFFFFF00
00FFFFFFFFFFFFFF80
01FFFFFFFFFFFFFFC0
03FFFFFFFFFFFFFFE0
07FFFFFFFFFFFFFFF0
0FFFFFFFFFFFFFFFF8
1FFFFFFFFFFFFFFFFC
3FFFFFFFFFFFFFFFFE
7FFFFFFFFFFFFFFFFF
FFFFFFFFFFFFFFFFFF
FFFFFFFFF7FFFFFFFF
FFFFFFFFE3FFFFFFFF
FFFFFFFFC1FFFFFFFF
FFFFFFFF80FFFFFFFF
FFFFFFFF007FFFFFFF
FFFFFFFE003FFFFFFF
FFFFFFFC001FFFFFFF
FFFFFFF8000FFFFFFF
FFFFFFF00007FFFFFF
FFFFFFF00007FFFFFF
FFFFFFF00007FFFFFF
FFFFFFF00007FFFFFF
FFFFFFF00007FFFFFF
FFFFFFF00007FFFFFF
FFFFFFF00007FFFFFF
FFFFFFF00007FFFFFF
FFFFFFF00007FFFFFF
ENDCHAR
STARTCHAR 002B
ENCODING 43
SWIDTH 488 0
DWIDTH 83 0
BBX 79 78 2 26
BITMAP
0000003FFFFFF8000000
0000003FFFFFF8000000
0000003FFFFFF8000000
0000003FFFFFF8000000
0000003FFFFFF8000000
0000003FFFFFF8000000
0000003FFFFFF8000000
0000003FFFFFF8000000
0000003FFFFFF8000000
0000003FFFFFF8000000
0000003FFFFFF8000000
0000003FFFFFF8000000
0000003FFFFFF8000000
0000003FFFFFF8000000
0000003FFFFFF8000000
0000003FFFFFF8000000
0000003FFFFFF8000000
0000003FFFFFF8000000
0000003FFFFFF8000000
0000003FFFFFF8000000
0000003FFFFFF8000000
0000003FFFFFF8000000
0000003FFFFFF8000000
0000003FFFFFF8000000
0000003FFFFFF8000000
0000003FFFFFF8000000
FFFFFFFFFFFFFFFFFFFE
FFFFFFFFFFFFFFFFFFFE
FFFFFFFFFFFFFFFFFFFE
FFFFFFFFFFFFFFFFFFFE
FFFFFFFFFFFFFFFFFFFE
FFFFFFFFFFFFFFFFFFFE
FFFFFFFFFFFFFFFFFFFE
FFFFFFFFFFFFFFFFFFFE
FFFFFFFFFFFFFFFFFFFE
FFFFFFFFFFFFFFFFFFFE
FFFFFFFFFFFFFFFFFFFE
FFFFFFFFFFFFFFFFFFFE
FFFFFFFFFFFFFFFFFFFE
FFFFFFFFFFFFFFFFFFFE
FFFFFFFFFFFFFFFFFFFE
FFFFFFFFFFFFFFFFFFFE
FFFFFFFFFFFFFFFFFFFE
FFFFFFFFFFFFFFFFFFFE
FFFFFFFFFFFFFFFFFFFE
FFFFFFFFFFFFFFFFFFFE
FFFFFFFFFFFFFFFFFFFE
FFFFFFFFFFFFFFFFFFFE
FFFFFFFFFFFFFFFFFFFE
FFFFFFFFFFFFFFFFFFFE
FFFFFFFFFFFFFFFFFFFE
FFFFFFFFFFFFFFFFFFFE
FFFFFFFFFFFFFFFFFFFE
0000003FFFFFF8000000
0000003FFFFFF8000000
0000003FFFFFF8000000
0000003FFFFFF8000000
0000003FFFFFF8000000
0000003FFFFFF8000000
0000003FFFFFF8000000
0000003FFFFFF8000000
0000003FFFFFF8000000
0000003FFFFFF8000000
0000003FFFFFF8000000
0000003FFFFFF8000000
0000003FFFFFF8000000
0000003FFFFFF8000000
0000003FFFFFF8000000
0000003FFFFFF8000000
0000003FFFFFF8000000
0000003FFFFFF8000000
0000003FFFFFF8000000
0000003FFFFFF8000000
0000003FFFFFF8000000
0000003FFFFFF8000000
0000003FFFFFF8000000
0000003FFFFFF8000000
0000003FFFFFF8000000
ENDCHAR
STARTCHAR 002C
ENCODING 44
SWIDTH 188 0
DWIDTH 32 0
BBX 28 40 2 -12
BITMAP
FFFFFFF0
FFFFFFF0
FFFFFFF0
FFFFFFF0
FFFFFFF0
FFFFFFF0
FFFFFFF0
FFFFFFF0
FFFFFFF0
FFFFFFF0
FFFFFFF0
FFFFFFF0
FFFFFFF0
FFFFFFF0
FFFFFFF0
FFFFFFF0
FFFFFFF0
FFFFFFF0
7FFFFFF0
3FFFFFF0
1FFFFFF0
0FFFFFF0
07FFFFF0
03FFFFF0
01FFFFF0
01FFFFF0
01FFFFF0
01FFFFF0
01FFFFF0
01FFFFF0
01FFFFF0
01FFFFF0
00FFFFF0
007FFFF0
003FFFF0
001FFFF0
000FFFF0
0007FFF0
0003FFF0
0001FFF0
ENDCHAR
STARTCHAR 002D
ENCODING 45
SWIDTH 411 0
DWIDTH 70 0
BBX 66 27 2 52
BITMAP
FFFFFFFFFFFFFFFFC0
FFFFFFFFFFFFFFFFC0
FFFFFFFFFFFFFFFFC0
FFFFFFFFFFFFFFFFC0
FFFFFFFFFFFFFFFFC0
FFFFFFFFFFFFFFFFC0
FFFFFFFFFFFFFFFFC0
FFFFFFFFFFFFFFFFC0
FFFFFFFFFFFFFFFFC0
FFFFFFFFFFFFFFFFC0
FFFFFFFFFFFFFFFFC0
FFFFFFFFFFFFFFFFC0
FFFFFFFFFFFFFFFFC0
FFFFFFFFFFFFFFFFC0
FFFFFFFFFFFFFFFFC0
FFFFFFFFFFFFFFFFC0
FFFFFFFFFFFFFFFFC0
FFFFFFFFFFFFFFFFC0
FFFFFFFFFFFFFFFFC0
FFFFFFFFFFFFFFFFC0
FFFFFFFFFFFFFFFFC0
FFFFFFFFFFFFFFFFC0
FFFFFFFFFFFFFFFFC0
FFFFFFFFFFFFFFFFC0
FFFFFFFFFFFFFFFFC0
FFFFFFFFFFFFFFFFC0
FFFFFFFFFFFFFFFFC0
ENDCHAR
STARTCHAR 002E
ENCODING 46
SWIDTH 188 0
DWIDTH 32 0
BBX 28 27 2 1
BITMAP
FFFFFFF0
FFFFFFF0
FFFFFFF0
FFFFFFF0
FFFFFFF0
FFFFFFF0
FFFFFFF0
FFFFFFF0
FFFFFFF0
FFFFFFF0
FFFFFFF0
FFFFFFF0
FFFFFFF0
FFFFFFF0
FFFFFFF0
FFFFFFF0
FFFFFFF0
FFFFFFF0
FFFFFFF0
FFFFFFF0
FFFFFFF0
FFFFFFF0
FFFFFFF0
FFFFFFF0
FFFFFFF0
FFFFFFF0
FFFFFFF0
ENDCHAR
STARTCHAR 002F
ENCODING 47
SWIDTH 488 0
DWIDTH 83 0
BBX 79 130 2 0
BITMAP
0000000000000FFFFFFE
0000000000000FFFFFFE
0000000000000FFFFFFE
0000000000000FFFFFFE
0000000000000FFFFFFE
0000000000000FFFFFFE
0000000000000FFFFFFE
0000000000000FFFFFFE
0000000000000FFFFFFE
0000000000000FFFFFFE
0000000000000FFFFFFE
0000000000000FFFFFFE
0000000000000FFFFFFE
0000000000000FFFFFFE
0000000000000FFFFFFE
0000000000000FFFFFFE
0000000000000FFFFFFE
0000000000000FFFFFFE
0000000000000FFFFFFE
0000000000000FFFFFFE
0000000000000FFFFFFE
0000000000000FFFFFFE
0000000000000FFFFFFE
0000000000000FFFFFFE
0000000000000FFFFFFE
0000000000000FFFFFFE
0000000000000FFFFFFE
0000000000000FFFFFFE
0000000000000FFFFFFE
0000000000000FFFFFFE
0000000000000FFFFFFE
0000000000000FFFFFFE
0000000000000FFFFFFE
0000000000000FFFFFFE
0000000000000FFFFFFE
0000000000001FFFFFFE
0000000000003FFFFFFE
0000000000007FFFFFFE
000000000000FFFFFFFE
000000000001FFFFFFFE
000000000003FFFFFFFE
000000000007FFFFFFFE
00000000000FFFFFFFFE
00000000001FFFFFFFFE
00000000003FFFFFFFFE
00000000007FFFFFFFFC
0000000000FFFFFFFFF8
0000000001FFFFFFFFF0
0000000003FFFFFFFFE0
0000000007FFFFFFFFC0
000000000FFFFFFFFF80
000000001FFFFFFFFF00
000000003FFFFFFFFE00
000000007FFFFFFFFC00
00000000FFFFFFFFF800
00000001FFFFFFFFF000
00000003FFFFFFFFE000
00000007FFFFFFFFC000
0000000FFFFFFFFF8000
0000001FFFFFFFFF0000
0000003FFFFFFFFE0000
0000007FFFFFFFFC0000
000000FFFFFFFFF80000
000001FFFFFFFFF00000
000003FFFFFFFFE00000
000007FFFFFFFFC00000
00000FFFFFFFFF800000
00001FFFFFFFFF000000
00003FFFFFFFFE000000
00007FFFFFFFFC000000
0000FFFFFFFFF8000000
0001FFFFFFFFF0000000
0003FFFFFFFFE0000000
0007FFFFFFFFC0000000
000FFFFFFFFF80000000
001FFFFFFFFF00000000
003FFFFFFFFE00000000
007FFFFFFFFC00000000
00FFFFFFFFF800000000
01FFFFFFFFF000000000
03FFFFFFFFE000000000
07FFFFFFFFC000000000
0FFFFFFFFF8000000000
1FFFFFFFFF0000000000
3FFFFFFFFE0000000000
7FFFFFFFFC0000000000
FFFFFFFFF80000000000
FFFFFFFFF00000000000
FFFFFFFFE00000000000
FFFFFFFFC00000000000
FFFFFFFF800000000000
FFFFFFFF000000000000
FFFFFFFE000000000000
FFFFFFFC000000000000
FFFFFFF8000000000000
FFFFFFF0000000000000
FFFFFFF0000000000000
FFFFFFF0000000000000
FFFFFFF0000000000000
FFFFFFF0000000000000
FFFFFFF0000000000000
FFFFFFF0000000000000
FFFFFFF0000000000000
FFFFFFF0000000000000
FFFFFFF0000000000000
FFFFFFF0000000000000
FFFFFFF0000000000000
FFFFFFF0000000000000
FFFFFFF0000000000000
FFFFFFF0000000000000
FFFFFFF0000000000000
FFFFFFF0000000000000
FFFFFFF0000000000000
FFFFFFF0000000000000
FFFFFFF0000000000000
FFFFFFF0000000000000
FFFFFFF0000000000000
FFFFFFF0000000000000
FFFFFFF0000000000000
FFFFFFF0000000000000
FFFFFFF0000000000000
FFFFFFF0000000000000
FFFFFFF0000000000000
FFFFFFF0000000000000
FFFFFFF0000000000000
FFFFFFF0000000000000
FFFFFFF0000000000000
FFFFFFF0000000000000
FFFFFFF0000000000000
FFFFFFF0000000000000
ENDCHAR
STARTCHAR 0030
ENCODING 48
SWIDTH 676 0
DWIDTH 115 0
BBX 111 130 2 0
BITMAP
000003FFFFFFFFFFFFFFFF800000
000007FFFFFFFFFFFFFFFFC00000
00000FFFFFFFFFFFFFFFFFE00000
00001FFFFFFFFFFFFFFFFFF00000
00003FFFFFFFFFFFFFFFFFF80000
00007FFFFFFFFFFFFFFFFFFC0000
0000FFFFFFFFFFFFFFFFFFFE0000
0001FFFFFFFFFFFFFFFFFFFF0000
0003FFFFFFFFFFFFFFFFFFFF8000
0007FFFFFFFFFFFFFFFFFFFFC000
000FFFFFFFFFFFFFFFFFFFFFE000
001FFFFFFFFFFFFFFFFFFFFFF000
003FFFFFFFFFFFFFFFFFFFFFF800
007FFFFFFFFFFFFFFFFFFFFFFC00
00FFFFFFFFFFFFFFFFFFFFFFFE00
01FFFFFFFFFFFFFFFFFFFFFFFF00
03FFFFFFFFFFFFFFFFFFFFFFFF80
07FFFFFFFFFFFFFFFFFFFFFFFFC0
0FFFFFFFFFFFFFFFFFFFFFFFFFE0
1FFFFFFFFFFFFFFFFFFFFFFFFFF0
3FFFFFFFFFFFFFFFFFFFFFFFFFF8
7FFFFFFFFFFFFFFFFFFFFFFFFFFC
FFFFFFFFFFFFFFFFFFFFFFFFFFFE
FFFFFFFFFFFFFFFFFFFFFFFFFFFE
FFFFFFFFFFFFFFFFFFFFFFFFFFFE
FFFFFFFFFFFFFFFFFFFFFFFFFFFE
FFFFFFFFFFFFFFFFFFFFFFFFFFFE
FFFFFFFFFFFFFFFFFFFFFFFFFFFE
FFFFFFF00000000000000FFFFFFE
FFFFFFF00000000000000FFFFFFE
FFFFFFF00000000000000FFFFFFE
FFFFFFF00000000000000FFFFFFE
FFFFFFF00000000000000FFFFFFE
FFFFFFF00000000000000FFFFFFE
FFFFFFF00000000000000FFFFFFE
FFFFFFF00000000000000FFFFFFE
FFFFFFF00000000000000FFFFFFE
FFFFFFF00000000000000FFFFFFE
FFFFFFF00000000000000FFFFFFE
FFFFFFF00000000000000FFFFFFE
FFFFFFF00000000000000FFFFFFE
FFFFFFF00000000000000FFFFFFE
FFFFFFF00000000000000FFFFFFE
FFFFFFF00000000000000FFFFFFE
FFFFFFF00000000000000FFFFFFE
FFFFFFF00000000000000FFFFFFE
FFFFFFF00000000000000FFFFFFE
FFFFFFF00000000000000FFFFFFE
FFFFFFF00000000000000FFFFFFE
FFFFFFF00000000000000FFFFFFE
FFFFFFF00000000000000FFFFFFE
FFFFFFF00000000000000FFFFFFE
FFFFFFF00000000000000FFFFFFE
FFFFFFF00000000000000FFFFFFE
FFFFFFF00000000000000FFFFFFE
FFFFFFF00000000000000FFFFFFE
FFFFFFF00000000000000FFFFFFE
FFFFFFF00000000000000FFFFFFE
FFFFFFF00000000000000FFFFFFE
FFFFFFF00000000000000FFFFFFE
FFFFFFF00000000000000FFFFFFE
FFFFFFF00000000000000FFFFFFE
FFFFFFF00000000000000FFFFFFE
FFFFFFF00000000000000FFFFFFE
FFFFFFF00000000000000FFFFFFE
FFFFFFF00000000000000FFFFFFE
FFFFFFF00000000000000FFFFFFE
FFFFFFF00000000000000FFFFFFE
FFFFFFF00000000000000FFFFFFE
FFFFFFF00000000000000FFFFFFE
FFFFFFF00000000000000FFFFFFE
FFFFFFF00000000000000FFFFFFE
FFFFFFF00000000000000FFFFFFE
FFFFFFF00000000000000FFFFFFE
FFFFFFF00000000000000FFFFFFE
FFFFFFF00000000000000FFFFFFE
FFFFFFF00000000000000FFFFFFE
FFFFFFF00000000000000FFFFFFE
FFFFFFF00000000000000FFFFFFE
FFFFFFF00000000000000FFFFFFE
FFFFFFF00000000000000FFFFFFE
FFFFFFF00000000000000FFFFFFE
FFFFFFF00000000000000FFFFFFE
FFFFFFF00000000000000FFFFFFE
FFFFFFF00000000000000FFFFFFE
FFFFFFF00000000000000FFFFFFE
FFFFFFF00000000000000FFFFFFE
FFFFFFF00000000000000FFFFFFE
FFFFFFF00000000000000FFFFFFE
FFFFFFF00000000000000FFFFFFE
FFFFFFF00000000000000FFFFFFE
FFFFFFF00000000000000FFFFFFE
FFFFFFF00000000000000FFFFFFE
FFFFFFF00000000000000FFFFFFE
FFFFFFF00000000000000FFFFFFE
FFFFFFF00000000000000FFFFFFE
FFFFFFF00000000000000FFFFFFE
FFFFFFF00000000000000FFFFFFE
FFFFFFF00000000000000FFFFFFE
FFFFFFF00000000000000FFFFFFE
FFFFFFF00000000000000FFFFFFE
FFFFFFF00000000000000FFFFFFE
FFFFFFF00000000000000FFFFFFE
FFFFFFFFFFFFFFFFFFFFFFFFFFFE
FFFFFFFFFFFFFFFFFFFFFFFFFFFE
FFFFFFFFFFFFFFFFFFFFFFFFFFFE
FFFFFFFFFFFFFFFFFFFFFFFFFFFE
FFFFFFFFFFFFFFFFFFFFFFFFFFFE
FFFFFFFFFFFFFFFFFFFFFFFFFFFE
7FFFFFFFFFFFFFFFFFFFFFFFFFFC
3FFFFFFFFFFFFFFFFFFFFFFFFFF8
1FFFFFFFFFFFFFFFFFFFFFFFFFF0
0FFFFFFFFFFFFFFFFFFFFFFFFFE0
07FFFFFFFFFFFFFFFFFFFFFFFFC0
03FFFFFFFFFFFFFFFFFFFFFFFF80
01FFFFFFFFFFFFFFFFFFFFFFFF00
00FFFFFFFFFFFFFFFFFFFFFFFE00
007FFFFFFFFFFFFFFFFFFFFFFC00
003FFFFFFFFFFFFFFFFFFFFFF800
001FFFFFFFFFFFFFFFFFFFFFF000
000FFFFFFFFFFFFFFFFFFFFFE000
0007FFFFFFFFFFFFFFFFFFFFC000
0003FFFFFFFFFFFFFFFFFFFF8000
0001FFFFFFFFFFFFFFFFFFFF0000
0000FFFFFFFFFFFFFFFFFFFE0000
00007FFFFFFFFFFFFFFFFFFC0000
00003FFFFFFFFFFFFFFFFFF80000
00001FFFFFFFFFFFFFFFFFF00000
00000FFFFFFFFFFFFFFFFFE00000
000007FFFFFFFFFFFFFFFFC00000
ENDCHAR
STARTCHAR 0031
ENCODING 49
SWIDTH 341 0
DWIDTH 58 0
BBX 53 130 2 0
BITMAP
000003FFFF0000
000007FFFF0000
00000FFFFF0000
00001FFFFF0000
00003FFFFF0000
00007FFFFF0000
0000FFFFFF0000
0001FFFFFF0000
0003FFFFFF0000
0007FFFFFF0000
000FFFFFFF0000
001FFFFFFF0000
003FFFFFFF0000
007FFFFFFF0000
00FFFFFFFF0000
01FFFFFFFF0000
03FFFFFFFF0000
07FFFFFFFF0000
0FFFFFFFFF0000
1FFFFFFFFF0000
3FFFFFFFFF0000
7FFFFFFFFF0000
FFFFFFFFFF0000
FFFFFFFFFF0000
FFFFFFFFFF0000
FFFFFFFFFF0000
FFFFFFFFFF0000
FFFFFFFFFF0000
FFFFFFFFFF0000
FFFFFFFFFF0000
FFFFFFFFFF0000
FFFFFFFFFF0000
FFFFFFFFFF0000
FFFFFFFFFF0000
FFFFFFFFFF0000
FFFFFFFFFF0000
FFFFFFFFFF0000
FFFFFFFFFF0000
FFFFFFFFFF0000
FFFFFFFFFF0000
0007FFFFFF0000
0007FFFFFF0000
0007FFFFFF0000
0007FFFFFF0000
0007FFFFFF0000
0007FFFFFF0000
0007FFFFFF0000
0007FFFFFF0000
0007FFFFFF0000
0007FFFFFF0000
0007FFFFFF0000
0007FFFFFF0000
0007FFFFFF0000
0007FFFFFF0000
0007FFFFFF0000
0007FFFFFF0000
0007FFFFFF0000
0007FFFFFF0000
0007FFFFFF0000
0007FFFFFF0000
0007FFFFFF0000
0007FFFFFF0000
0007FFFFFF0000
0007FFFFFF0000
0007FFFFFF0000
0007FFFFFF0000
0007FFFFFF0000
0007FFFFFF0000
0007FFFFFF0000
0007FFFFFF0000
0007FFFFFF0000
0007FFFFFF0000
0007FFFFFF0000
0007FFFFFF0000
0007FFFFFF0000
0007FFFFFF0000
0007FFFFFF0000
0007FFFFFF0000
0007FFFFFF0000
0007FFFFFF0000
0007FFFFFF0000
0007FFFFFF0000
0007FFFFFF0000
0007FFFFFF0000
0007FFFFFF0000
0007FFFFFF0000
0007FFFFFF0000
0007FFFFFF0000
0007FFFFFF0000
0007FFFFFF0000
0007FFFFFF0000
0007FFFFFF0000
0007FFFFFF0000
0007FFFFFF0000
0007FFFFFF0000
0007FFFFFF0000
0007FFFFFF0000
0007FFFFFF0000
0007FFFFFF0000
0007FFFFFF0000
0007FFFFFF0000
0007FFFFFF0000
0007FFFFFF0000
FFFFFFFFFFFFF8
FFFFFFFFFFFFF8
FFFFFFFFFFFFF8
FFFFFFFFFFFFF8
FFFFFFFFFFFFF8
FFFFFFFFFFFFF8
FFFFFFFFFFFFF8
FFFFFFFFFFFFF8
FFFFFFFFFFFFF8
FFFFFFFFFFFFF8
FFFFFFFFFFFFF8
FFFFFFFFFFFFF8
FFFFFFFFFFFFF8
FFFFFFFFFFFFF8
FFFFFFFFFFFFF8
FFFFFFFFFFFFF8
FFFFFFFFFFFFF8
FFFFFFFFFFFFF8
FFFFFFFFFFFFF8
FFFFFFFFFFFFF8
FFFFFFFFFFFFF8
FFFFFFFFFFFFF8
FFFFFFFFFFFFF8
FFFFFFFFFFFFF8
FFFFFFFFFFFFF8
FFFFFFFFFFFFF8
FFFFFFFFFFFFF8
ENDCHAR
STARTCHAR 0032
ENCODING 50
SWIDTH 641 0
DWIDTH 109 0
BBX 104 130 2 0
BITMAP
FFFFFFFFFFFFFFFFFFFFE00000
FFFFFFFFFFFFFFFFFFFFF00000
FFFFFFFFFFFFFFFFFFFFF80000
FFFFFFFFFFFFFFFFFFFFFC0000
FFFFFFFFFFFFFFFFFFFFFE0000
FFFFFFFFFFFFFFFFFFFFFF0000
FFFFFFFFFFFFFFFFFFFFFF8000
FFFFFFFFFFFFFFFFFFFFFFC000
FFFFFFFFFFFFFFFFFFFFFFE000
FFFFFFFFFFFFFFFFFFFFFFF000
FFFFFFFFFFFFFFFFFFFFFFF800
FFFFFFFFFFFFFFFFFFFFFFFC00
FFFFFFFFFFFFFFFFFFFFFFFE00
FFFFFFFFFFFFFFFFFFFFFFFF00
FFFFFFFFFFFFFFFFFFFFFFFF80
FFFFFFFFFFFFFFFFFFFFFFFFC0
FFFFFFFFFFFFFFFFFFFFFFFFE0
FFFFFFFFFFFFFFFFFFFFFFFFF0
FFFFFFFFFFFFFFFFFFFFFFFFF8
FFFFFFFFFFFFFFFFFFFFFFFFFC
FFFFFFFFFFFFFFFFFFFFFFFFFE
FFFFFFFFFFFFFFFFFFFFFFFFFF
FFFFFFFFFFFFFFFFFFFFFFFFFF
FFFFFFFFFFFFFFFFFFFFFFFFFF
FFFFFFFFFFFFFFFFFFFFFFFFFF
FFFFFFFFFFFFFFFFFFFFFFFFFF
FFFFFFFFFFFFFFFFFFFFFFFFFF
FFFFFFFFFFFFFFFFFFFFFFFFFF
00000000000000000007FFFFFF
00000000000000000007FFFFFF
00000000000000000007FFFFFF
00000000000000000007FFFFFF
00000000000000000007FFFFFF
00000000000000000007FFFFFF
00000000000000000007FFFFFF
00000000000000000007FFFFFF
00000000000000000007FFFFFF
00000000000000000007FFFFFF
00000000000000000007FFFFFF
00000000000000000007FFFFFF
00000000000000000007FFFFFF
00000000000000000007FFFFFF
00000000000000000007FFFFFF
00000000000000000007FFFFFF
00000000000000000007FFFFFF
00000000000000000007FFFFFF
00000000000000000007FFFFFF
00000000000000000007FFFFFF
00000000000000000007FFFFFF
00000000000000000007FFFFFF
00000000000000000007FFFFFF
00000000000000000007FFFFFF
000007FFFFFFFFFFFFFFFFFFFF
00000FFFFFFFFFFFFFFFFFFFFF
00001FFFFFFFFFFFFFFFFFFFFF
00003FFFFFFFFFFFFFFFFFFFFF
00007FFFFFFFFFFFFFFFFFFFFF
0000FFFFFFFFFFFFFFFFFFFFFF
0001FFFFFFFFFFFFFFFFFFFFFE
0003FFFFFFFFFFFFFFFFFFFFFC
0007FFFFFFFFFFFFFFFFFFFFF8
000FFFFFFFFFFFFFFFFFFFFFF0
001FFFFFFFFFFFFFFFFFFFFFE0
003FFFFFFFFFFFFFFFFFFFFFC0
007FFFFFFFFFFFFFFFFFFFFF80
00FFFFFFFFFFFFFFFFFFFFFF00
01FFFFFFFFFFFFFFFFFFFFFE00
03FFFFFFFFFFFFFFFFFFFFFC00
07FFFFFFFFFFFFFFFFFFFFF800
0FFFFFFFFFFFFFFFFFFFFFF000
1FFFFFFFFFFFFFFFFFFFFFE000
3FFFFFFFFFFFFFFFFFFFFFC000
7FFFFFFFFFFFFFFFFFFFFF8000
FFFFFFFFFFFFFFFFFFFFFF0000
FFFFFFFFFFFFFFFFFFFFFE0000
FFFFFFFFFFFFFFFFFFFFFC0000
FFFFFFFFFFFFFFFFFFFFF80000
FFFFFFFFFFFFFFFFFFFFF00000
FFFFFFFFFFFFFFFFFFFFE00000
FFFFFFF0000000000000000000
FFFFFFF0000000000000000000
FFFFFFF0000000000000000000
FFFFFFF0000000000000000000
FFFFFFF0000000000000000000
FFFFFFF0000000000000000000
FFFFFFF0000000000000000000
FFFFFFF0000000000000000000
FFFFFFF0000000000000000000
FFFFFFF0000000000000000000
FFFFFFF0000000000000000000
FFFFFFF0000000000000000000
FFFFFFF0000000000000000000
FFFFFFF0000000000000000000
FFFFFFF0000000000000000000
FFFFFFF0000000000000000000
FFFFFFF0000000000000000000
FFFFFFF0000000000000000000
FFFFFFF0000000000000000000
FFFFFFF0000000000000000000
FFFFFFF0000000000000000000
FFFFFFF0000000000000000000
FFFFFFF0000000000000000000
FFFFFFF0000000000000000000
FFFFFFFFFFFFFFFFFFFFFFFFFF
FFFFFFFFFFFFFFFFFFFFFFFFFF
FFFFFFFFFFFFFFFFFFFFFFFFFF
FFFFFFFFFFFFFFFFFFFFFFFFFF
FFFFFFFFFFFFFFFFFFFFFFFFFF
FFFFFFFFFFFFFFFFFFFFFFFFFF
FFFFFFFFFFFFFFFFFFFFFFFFFF
FFFFFFFFFFFFFFFFFFFFFFFFFF
FFFFFFFFFFFFFFFFFFFFFFFFFF
FFFFFFFFFFFFFFFFFFFFFFFFFF
FFFFFFFFFFFFFFFFFFFFFFFFFF
FFFFFFFFFFFFFFFFFFFFFFFFFF
FFFFFFFFFFFFFFFFFFFFFFFFFF
FFFFFFFFFFFFFFFFFFFFFFFFFF
FFFFFFFFFFFFFFFFFFFFFFFFFF
FFFFFFFFFFFFFFFFFFFFFFFFFF
FFFFFFFFFFFFFFFFFFFFFFFFFF
FFFFFFFFFFFFFFFFFFFFFFFFFF
FFFFFFFFFFFFFFFFFFFFFFFFFF
FFFFFFFFFFFFFFFFFFFFFFFFFF
FFFFFFFFFFFFFFFFFFFFFFFFFF
FFFFFFFFFFFFFFFFFFFFFFFFFF
FFFFFFFFFFFFFFFFFFFFFFFFFF
FFFFFFFFFFFFFFFFFFFFFFFFFF
FFFFFFFFFFFFFFFFFFFFFFFFFF
FFFFFFFFFFFFFFFFFFFFFFFFFF
FFFFFFFFFFFFFFFFFFFFFFFFFF
ENDCHAR
STARTCHAR 0033
ENCODING 51
SWIDTH 600 0
DWIDTH 102 0
BBX 98 130 2 0
BITMAP
FFFFFFFFFFFFFFFFFFF0000000
FFFFFFFFFFFFFFFFFFF8000000
FFFFFFFFFFFFFFFFFFFC000000
FFFFFFFFFFFFFFFFFFFE000000
FFFFFFFFFFFFFFFFFFFF000000
FFFFFFFFFFFFFFFFFFFF800000
FFFFFFFFFFFFFFFFFFFFC00000
FFFFFFFFFFFFFFFFFFFFE00000
FFFFFFFFFFFFFFFFFFFFF00000
FFFFFFFFFFFFFFFFFFFFF80000
FFFFFFFFFFFFFFFFFFFFFC0000
FFFFFFFFFFFFFFFFFFFFFF0000
FFFFFFFFFFFFFFFFFFFFFF8000
FFFFFFFFFFFFFFFFFFFFFFC000
FFFFFFFFFFFFFFFFFFFFFFE000
FFFFFFFFFFFFFFFFFFFFFFF000
FFFFFFFFFFFFFFFFFFFFFFF800
FFFFFFFFFFFFFFFFFFFFFFFC00
FFFFFFFFFFFFFFFFFFFFFFFE00
FFFFFFFFFFFFFFFFFFFFFFFF00
FFFFFFFFFFFFFFFFFFFFFFFF80
FFFFFFFFFFFFFFFFFFFFFFFFC0
FFFFFFFFFFFFFFFFFFFFFFFFC0
FFFFFFFFFFFFFFFFFFFFFFFFC0
FFFFFFFFFFFFFFFFFFFFFFFFC0
FFFFFFFFFFFFFFFFFFFFFFFFC0
FFFFFFFFFFFFFFFFFFFFFFFFC0
FFFFFFFFFFFFFFFFFFFFFFFFC0
000000000000000001FFFFFFC0
000000000000000001FFFFFFC0
000000000000000001FFFFFFC0
000000000000000001FFFFFFC0
000000000000000001FFFFFFC0
000000000000000001FFFFFFC0
000000000000000001FFFFFFC0
000000000000000001FFFFFFC0
000000000000000001FFFFFFC0
000000000000000001FFFFFFC0
000000000000000001FFFFFFC0
000000000000000001FFFFFFC0
000000000000000001FFFFFFC0
000000000000000001FFFFFFC0
000000000000000001FFFFFFC0
000000000000000001FFFFFFC0
000000000000000001FFFFFFC0
000000000000000001FFFFFFC0
000000000000000001FFFFFFC0
000000000000000001FFFFFFC0
000000000000000001FFFFFFC0
000000000000000001FFFFFFC0
000000000000000001FFFFFFC0
000000000000000001FFFFFFC0
FFFFFFFFFFFFFFFFFFFFFFFFC0
FFFFFFFFFFFFFFFFFFFFFFFFC0
FFFFFFFFFFFFFFFFFFFFFFFFC0
FFFFFFFFFFFFFFFFFFFFFFFFC0
FFFFFFFFFFFFFFFFFFFFFFFFC0
FFFFFFFFFFFFFFFFFFFFFFFFC0
FFFFFFFFFFFFFFFFFFFFFFFF80
FFFFFFFFFFFFFFFFFFFFFFFF00
FFFFFFFFFFFFFFFFFFFFFFFE00
FFFFFFFFFFFFFFFFFFFFFFFC00
FFFFFFFFFFFFFFFFFFFFFFF800
FFFFFFFFFFFFFFFFFFFFFFF000
FFFFFFFFFFFFFFFFFFFFFFE000
FFFFFFFFFFFFFFFFFFFFFFC000
FFFFFFFFFFFFFFFFFFFFFFE000
FFFFFFFFFFFFFFFFFFFFFFF000
FFFFFFFFFFFFFFFFFFFFFFF800
FFFFFFFFFFFFFFFFFFFFFFFC00
FFFFFFFFFFFFFFFFFFFFFFFE00
FFFFFFFFFFFFFFFFFFFFFFFF00
FFFFFFFFFFFFFFFFFFFFFFFF80
FFFFFFFFFFFFFFFFFFFFFFFFC0
FFFFFFFFFFFFFFFFFFFFFFFFC0
FFFFFFFFFFFFFFFFFFFFFFFFC0
FFFFFFFFFFFFFFFFFFFFFFFFC0
FFFFFFFFFFFFFFFFFFFFFFFFC0
FFFFFFFFFFFFFFFFFFFFFFFFC0
000000000000000001FFFFFFC0
000000000000000001FFFFFFC0
000000000000000001FFFFFFC0
000000000000000001FFFFFFC0
000000000000000001FFFFFFC0
000000000000000001FFFFFFC0
000000000000000001FFFFFFC0
000000000000000001FFFFFFC0
000000000000000001FFFFFFC0
000000000000000001FFFFFFC0
000000000000000001FFFFFFC0
000000000000000001FFFFFFC0
000000000000000001FFFFFFC0
000000000000000001FFFFFFC0
000000000000000001FFFFFFC0
000000000000000001FFFFFFC0
000000000000000001FFFFFFC0
000000000000000001FFFFFFC0
000000000000000001FFFFFFC0
000000000000000001FFFFFFC0
000000000000000001FFFFFFC0
000000000000000001FFFFFFC0
000000000000000001FFFFFFC0
000000000000000001FFFFFFC0
FFFFFFFFFFFFFFFFFFFFFFFFC0
FFFFFFFFFFFFFFFFFFFFFFFFC0
FFFFFFFFFFFFFFFFFFFFFFFFC0
FFFFFFFFFFFFFFFFFFFFFFFFC0
FFFFFFFFFFFFFFFFFFFFFFFFC0
FFFFFFFFFFFFFFFFFFFFFFFFC0
FFFFFFFFFFFFFFFFFFFFFFFF80
FFFFFFFFFFFFFFFFFFFFFFFF00
FFFFFFFFFFFFFFFFFFFFFFFE00
FFFFFFFFFFFFFFFFFFFFFFFC00
FFFFFFFFFFFFFFFFFFFFFFF800
FFFFFFFFFFFFFFFFFFFFFFF000
FFFFFFFFFFFFFFFFFFFFFFE000
FFFFFFFFFFFFFFFFFFFFFFC000
FFFFFFFFFFFFFFFFFFFFFF8000
FFFFFFFFFFFFFFFFFFFFFF0000
FFFFFFFFFFFFFFFFFFFFFE0000
FFFFFFFFFFFFFFFFFFFFFC0000
FFFFFFFFFFFFFFFFFFFFF80000
FFFFFFFFFFFFFFFFFFFFF00000
FFFFFFFFFFFFFFFFFFFFE00000
FFFFFFFFFFFFFFFFFFFFC00000
FFFFFFFFFFFFFFFFFFFF800000
FFFFFFFFFFFFFFFFFFFF000000
FFFFFFFFFFFFFFFFFFFE000000
FFFFFFFFFFFFFFFFFFFC000000
FFFFFFFFFFFFFFFFFFF8000000
ENDCHAR
STARTCHAR 0034
ENCODING 52
SWIDTH 641 0
DWIDTH 109 0
BBX 104 130 2 0
BITMAP
000000000000000FFFFFF80000
000000000000001FFFFFF80000
000000000000003FFFFFF80000
000000000000007FFFFFF80000
00000000000000FFFFFFF80000
00000000000001FFFFFFF80000
00000000000003FFFFFFF80000
00000000000007FFFFFFF80000
0000000000000FFFFFFFF80000
0000000000001FFFFFFFF80000
0000000000003FFFFFFFF80000
0000000000007FFFFFFFF80000
000000000000FFFFFFFFF80000
000000000001FFFFFFFFF00000
000000000003FFFFFFFFE00000
000000000007FFFFFFFFC00000
00000000000FFFFFFFFF800000
00000000001FFFFFFFFF000000
00000000003FFFFFFFFE000000
00000000007FFFFFFFFC000000
0000000000FFFFFFFFF8000000
0000000001FFFFFFFFF0000000
0000000003FFFFFFFFE0000000
0000000007FFFFFFFFC0000000
000000000FFFFFFFFF80000000
000000001FFFFFFFFF00000000
000000003FFFFFFFFE00000000
000000007FFFFFFFFC00000000
00000000FFFFFFFFF800000000
00000001FFFFFFFFF000000000
00000003FFFFFFFFE000000000
00000007FFFFFFFFC000000000
0000000FFFFFFFFF8000000000
0000001FFFFFFFFF0000000000
0000003FFFFFFFFE0000000000
0000007FFFFFFFFC0000000000
000000FFFFFFFFF80000000000
000001FFFFFFFFF00000000000
000003FFFFFFFFE00000000000
000007FFFFFFFFC0FFFFFFF000
00000FFFFFFFFF80FFFFFFF000
00001FFFFFFFFF00FFFFFFF000
00003FFFFFFFFE00FFFFFFF000
00007FFFFFFFFC00FFFFFFF000
0000FFFFFFFFF800FFFFFFF000
0001FFFFFFFFF000FFFFFFF000
0003FFFFFFFFE000FFFFFFF000
0007FFFFFFFFC000FFFFFFF000
000FFFFFFFFF8000FFFFFFF000
001FFFFFFFFF0000FFFFFFF000
003FFFFFFFFE0000FFFFFFF000
007FFFFFFFFC0000FFFFFFF000
00FFFFFFFFF80000FFFFFFF000
01FFFFFFFFF00000FFFFFFF000
03FFFFFFFFE00000FFFFFFF000
07FFFFFFFFC00000FFFFFFF000
0FFFFFFFFF800000FFFFFFF000
1FFFFFFFFF000000FFFFFFF000
3FFFFFFFFE000000FFFFFFF000
7FFFFFFFFC000000FFFFFFF000
FFFFFFFFF8000000FFFFFFF000
FFFFFFFFF0000000FFFFFFF000
FFFFFFFFE0000000FFFFFFF000
FFFFFFFFC0000000FFFFFFF000
FFFFFFFF80000000FFFFFFF000
FFFFFFFF00000000FFFFFFF000
FFFFFFFE00000000FFFFFFF000
FFFFFFFC00000000FFFFFFF000
FFFFFFF800000000FFFFFFF000
FFFFFFF000000000FFFFFFF000
FFFFFFF000000000FFFFFFF000
FFFFFFFFFFFFFFFFFFFFFFFFFF
FFFFFFFFFFFFFFFFFFFFFFFFFF
FFFFFFFFFFFFFFFFFFFFFFFFFF
FFFFFFFFFFFFFFFFFFFFFFFFFF
FFFFFFFFFFFFFFFFFFFFFFFFFF
FFFFFFFFFFFFFFFFFFFFFFFFFF
FFFFFFFFFFFFFFFFFFFFFFFFFF
FFFFFFFFFFFFFFFFFFFFFFFFFF
FFFFFFFFFFFFFFFFFFFFFFFFFF
FFFFFFFFFFFFFFFFFFFFFFFFFF
FFFFFFFFFFFFFFFFFFFFFFFFFF
FFFFFFFFFFFFFFFFFFFFFFFFFF
FFFFFFFFFFFFFFFFFFFFFFFFFF
FFFFFFFFFFFFFFFFFFFFFFFFFF
FFFFFFFFFFFFFFFFFFFFFFFFFF
FFFFFFFFFFFFFFFFFFFFFFFFFF
FFFFFFFFFFFFFFFFFFFFFFFFFF
FFFFFFFFFFFFFFFFFFFFFFFFFF
FFFFFFFFFFFFFFFFFFFFFFFFFF
FFFFFFFFFFFFFFFFFFFFFFFFFF
FFFFFFFFFFFFFFFFFFFFFFFFFF
FFFFFFFFFFFFFFFFFFFFFFFFFF
FFFFFFFFFFFFFFFFFFFFFFFFFF
FFFFFFFFFFFFFFFFFFFFFFFFFF
FFFFFFFFFFFFFFFFFFFFFFFFFF
FFFFFFFFFFFFFFFFFFFFFFFFFF
FFFFFFFFFFFFFFFFFFFFFFFFFF
0000000000000000FFFFFFF000
0000000000000000FFFFFFF000
0000000000000000FFFFFFF000
0000000000000000FFFFFFF000
0000000000000000FFFFFFF000
0000000000000000FFFFFFF000
0000000000000000FFFFFFF000
0000000000000000FFFFFFF000
0000000000000000FFFFFFF000
0000000000000000FFFFFFF000
0000000000000000FFFFFFF000
0000000000000000FFFFFFF000
0000000000000000FFFFFFF000
0000000000000000FFFFFFF000
0000000000000000FFFFFFF000
0000000000000000FFFFFFF000
0000000000000000FFFFFFF000
0000000000000000FFFFFFF000
0000000000000000FFFFFFF000
0000000000000000FFFFFFF000
0000000000000000FFFFFFF000
0000000000000000FFFFFFF000
0000000000000000FFFFFFF000
0000000000000000FFFFFFF000
0000000000000000FFFFFFF000
0000000000000000FFFFFFF000
0000000000000000FFFFFFF000
0000000000000000FFFFFFF000
0000000000000000FFFFFFF000
0000000000000000FFFFFFF000
0000000000000000FFFFFFF000
0000000000000000FFFFFFF000
ENDCHAR
STARTCHAR 0035
ENCODING 53
SWIDTH 600 0
DWIDTH 102 0
BBX 98 130 2 0
BITMAP
FFFFFFFFFFFFFFFFFFFFFFFFC0
FFFFFFFFFFFFFFFFFFFFFFFFC0
FFFFFFFFFFFFFFFFFFFFFFFFC0
FFFFFFFFFFFFFFFFFFFFFFFFC0
FFFFFFFFFFFFFFFFFFFFFFFFC0
FFFFFFFFFFFFFFFFFFFFFFFFC0
FFFFFFFFFFFFFFFFFFFFFFFFC0
FFFFFFFFFFFFFFFFFFFFFFFFC0
FFFFFFFFFFFFFFFFFFFFFFFFC0
FFFFFFFFFFFFFFFFFFFFFFFFC0
FFFFFFFFFFFFFFFFFFFFFFFFC0
FFFFFFFFFFFFFFFFFFFFFFFFC0
FFFFFFFFFFFFFFFFFFFFFFFFC0
FFFFFFFFFFFFFFFFFFFFFFFFC0
FFFFFFFFFFFFFFFFFFFFFFFFC0
FFFFFFFFFFFFFFFFFFFFFFFFC0
FFFFFFFFFFFFFFFFFFFFFFFFC0
FFFFFFFFFFFFFFFFFFFFFFFFC0
FFFFFFFFFFFFFFFFFFFFFFFFC0
FFFFFFFFFFFFFFFFFFFFFFFFC0
FFFFFFFFFFFFFFFFFFFFFFFFC0
FFFFFFFFFFFFFFFFFFFFFFFFC0
FFFFFFFFFFFFFFFFFFFFFFFFC0
FFFFFFFFFFFFFFFFFFFFFFFFC0
FFFFFFFFFFFFFFFFFFFFFFFFC0
FFFFFFFFFFFFFFFFFFFFFFFFC0
FFFFFFFFFFFFFFFFFFFFFFFFC0
FFFFFFFFFFFFFFFFFFFFFFFFC0
FFFFFFF0000000000000000000
FFFFFFF0000000000000000000
FFFFFFF0000000000000000000
FFFFFFF0000000000000000000
FFFFFFF0000000000000000000
FFFFFFF0000000000000000000
FFFFFFF0000000000000000000
FFFFFFF0000000000000000000
FFFFFFF0000000000000000000
FFFFFFF0000000000000000000
FFFFFFF0000000000000000000
FFFFFFF0000000000000000000
FFFFFFF0000000000000000000
FFFFFFF0000000000000000000
FFFFFFF0000000000000000000
FFFFFFF0000000000000000000
FFFFFFF0000000000000000000
FFFFFFFFFFFFFFFFFFF8000000
FFFFFFFFFFFFFFFFFFFC000000
FFFFFFFFFFFFFFFFFFFE000000
FFFFFFFFFFFFFFFFFFFF000000
FFFFFFFFFFFFFFFFFFFF800000
FFFFFFFFFFFFFFFFFFFFC00000
FFFFFFFFFFFFFFFFFFFFE00000
FFFFFFFFFFFFFFFFFFFFF00000
FFFFFFFFFFFFFFFFFFFFF80000
FFFFFFFFFFFFFFFFFFFFFC0000
FFFFFFFFFFFFFFFFFFFFFE0000
FFFFFFFFFFFFFFFFFFFFFF0000
FFFFFFFFFFFFFFFFFFFFFF8000
FFFFFFFFFFFFFFFFFFFFFFC000
FFFFFFFFFFFFFFFFFFFFFFE000
FFFFFFFFFFFFFFFFFFFFFFF000
FFFFFFFFFFFFFFFFFFFFFFF800
FFFFFFFFFFFFFFFFFFFFFFFC00
FFFFFFFFFFFFFFFFFFFFFFFE00
FFFFFFFFFFFFFFFFFFFFFFFF00
FFFFFFFFFFFFFFFFFFFFFFFF80
FFFFFFFFFFFFFFFFFFFFFFFFC0
FFFFFFFFFFFFFFFFFFFFFFFFC0
FFFFFFFFFFFFFFFFFFFFFFFFC0
FFFFFFFFFFFFFFFFFFFFFFFFC0
FFFFFFFFFFFFFFFFFFFFFFFFC0
FFFFFFFFFFFFFFFFFFFFFFFFC0
000000000000000001FFFFFFC0
000000000000000001FFFFFFC0
000000000000000001FFFFFFC0
000000000000000001FFFFFFC0
000000000000000001FFFFFFC0
000000000000000001FFFFFFC0
000000000000000001FFFFFFC0
000000000000000001FFFFFFC0
000000000000000001FFFFFFC0
000000000000000001FFFFFFC0
000000000000000001FFFFFFC0
000000000000000001FFFFFFC0
000000000000000001FFFFFFC0
000000000000000001FFFFFFC0
000000000000000001FFFFFFC0
000000000000000001FFFFFFC0
000000000000000001FFFFFFC0
000000000000000001FFFFFFC0
000000000000000001FFFFFFC0
000000000000000001FFFFFFC0
000000000000000001FFFFFFC0
000000000000000001FFFFFFC0
000000000000000001FFFFFFC0
000000000000000001FFFFFFC0
000000000000000001FFFFFFC0
000000000000000001FFFFFFC0
000000000000000001FFFFFFC0
000000000000000001FFFFFFC0
000000000000000001FFFFFFC0
000000000000000001FFFFFFC0
000000000000000001FFFFFFC0
FFFFFFFFFFFFFFFFFFFFFFFFC0
FFFFFFFFFFFFFFFFFFFFFFFFC0
FFFFFFFFFFFFFFFFFFFFFFFFC0
FFFFFFFFFFFFFFFFFFFFFFFFC0
FFFFFFFFFFFFFFFFFFFFFFFFC0
FFFFFFFFFFFFFFFFFFFFFFFFC0
FFFFFFFFFFFFFFFFFFFFFFFF80
FFFFFFFFFFFFFFFFFFFFFFFF00
FFFFFFFFFFFFFFFFFFFFFFFE00
FFFFFFFFFFFFFFFFFFFFFFFC00
FFFFFFFFFFFFFFFFFFFFFFF800
FFFFFFFFFFFFFFFFFFFFFFF000
FFFFFFFFFFFFFFFFFFFFFFE000
FFFFFFFFFFFFFFFFFFFFFFC000
FFFFFFFFFFFFFFFFFFFFFF8000
FFFFFFFFFFFFFFFFFFFFFF0000
FFFFFFFFFFFFFFFFFFFFFE0000
FFFFFFFFFFFFFFFFFFFFFC0000
FFFFFFFFFFFFFFFFFFFFF80000
FFFFFFFFFFFFFFFFFFFFF00000
FFFFFFFFFFFFFFFFFFFFE00000
FFFFFFFFFFFFFFFFFFFFC00000
FFFFFFFFFFFFFFFFFFFF800000
FFFFFFFFFFFFFFFFFFFF000000
FFFFFFFFFFFFFFFFFFFE000000
FFFFFFFFFFFFFFFFFFFC000000
FFFFFFFFFFFFFFFFFFF8000000
ENDCHAR
STARTCHAR 0036
ENCODING 54
SWIDTH 676 0
DWIDTH 115 0
BBX 111 130 2 0
BITMAP
000003FFFFFFFFFFFFFFFFF00000
000007FFFFFFFFFFFFFFFFF00000
00000FFFFFFFFFFFFFFFFFF00000
00001FFFFFFFFFFFFFFFFFF00000
00003FFFFFFFFFFFFFFFFFF00000
00007FFFFFFFFFFFFFFFFFF00000
0000FFFFFFFFFFFFFFFFFFF00000
0001FFFFFFFFFFFFFFFFFFF00000
0003FFFFFFFFFFFFFFFFFFF00000
0007FFFFFFFFFFFFFFFFFFF00000
000FFFFFFFFFFFFFFFFFFFF00000
001FFFFFFFFFFFFFFFFFFFF00000
003FFFFFFFFFFFFFFFFFFFF00000
007FFFFFFFFFFFFFFFFFFFF00000
00FFFFFFFFFFFFFFFFFFFFF00000
01FFFFFFFFFFFFFFFFFFFFF00000
03FFFFFFFFFFFFFFFFFFFFF00000
07FFFFFFFFFFFFFFFFFFFFF00000
0FFFFFFFFFFFFFFFFFFFFFF00000
1FFFFFFFFFFFFFFFFFFFFFF00000
3FFFFFFFFFFFFFFFFFFFFFF00000
7FFFFFFFFFFFFFFFFFFFFFF00000
FFFFFFFFFFFFFFFFFFFFFFF00000
FFFFFFFFFFFFFFFFFFFFFFF00000
FFFFFFFFFFFFFFFFFFFFFFF00000
FFFFFFFFFFFFFFFFFFFFFFF00000
FFFFFFFFFFFFFFFFFFFFFFF00000
FFFFFFFFFFFFFFFFFFFFFFF00000
FFFFFFF000000000000000000000
FFFFFFF000000000000000000000
FFFFFFF000000000000000000000
FFFFFFF000000000000000000000
FFFFFFF000000000000000000000
FFFFFFF000000000000000000000
FFFFFFF000000000000000000000
FFFFFFF000000000000000000000
FFFFFFF000000000000000000000
FFFFFFF000000000000000000000
FFFFFFF000000000000000000000
FFFFFFF000000000000000000000
FFFFFFF000000000000000000000
FFFFFFF000000000000000000000
FFFFFFF000000000000000000000
FFFFFFF000000000000000000000
FFFFFFF000000000000000000000
FFFFFFF0007FFFFFFFFFFFC00000
FFFFFFF000FFFFFFFFFFFFE00000
FFFFFFF001FFFFFFFFFFFFF00000
FFFFFFF003FFFFFFFFFFFFF80000
FFFFFFF007FFFFFFFFFFFFFC0000
FFFFFFF00FFFFFFFFFFFFFFE0000
FFFFFFF01FFFFFFFFFFFFFFF0000
FFFFFFF03FFFFFFFFFFFFFFF8000
FFFFFFF07FFFFFFFFFFFFFFFC000
FFFFFFF0FFFFFFFFFFFFFFFFE000
FFFFFFF1FFFFFFFFFFFFFFFFF000
FFFFFFF3FFFFFFFFFFFFFFFFF800
FFFFFFF7FFFFFFFFFFFFFFFFFC00
FFFFFFFFFFFFFFFFFFFFFFFFFC00
FFFFFFFFFFFFFFFFFFFFFFFFFE00
FFFFFFFFFFFFFFFFFFFFFFFFFF00
FFFFFFFFFFFFFFFFFFFFFFFFFF80
FFFFFFFFFFFFFFFFFFFFFFFFFFC0
FFFFFFFFFFFFFFFFFFFFFFFFFFE0
FFFFFFFFFFFFFFFFFFFFFFFFFFF0
FFFFFFFFFFFFFFFFFFFFFFFFFFF8
FFFFFFFFFFFFFFFFFFFFFFFFFFFC
FFFFFFFFFFFFFFFFFFFFFFFFFFFE
FFFFFFFFFFFFFFFFFFFFFFFFFFFE
FFFFFFFFFFFFFFFFFFFFFFFFFFFE
FFFFFFFFFFFFFFFFFFFFFFFFFFFE
FFFFFFFFFFFFFFFFFFFFFFFFFFFE
FFFFFFF00000000000000FFFFFFE
FFFFFFF00000000000000FFFFFFE
FFFFFFF00000000000000FFFFFFE
FFFFFFF00000000000000FFFFFFE
FFFFFFF00000000000000FFFFFFE
FFFFFFF00000000000000FFFFFFE
FFFFFFF00000000000000FFFFFFE
FFFFFFF00000000000000FFFFFFE
FFFFFFF00000000000000FFFFFFE
FFFFFFF00000000000000FFFFFFE
FFFFFFF00000000000000FFFFFFE
FFFFFFF00000000000000FFFFFFE
FFFFFFF00000000000000FFFFFFE
FFFFFFF00000000000000FFFFFFE
FFFFFFF00000000000000FFFFFFE
FFFFFFF00000000000000FFFFFFE
FFFFFFF00000000000000FFFFFFE
FFFFFFF00000000000000FFFFFFE
FFFFFFF00000000000000FFFFFFE
FFFFFFF00000000000000FFFFFFE
FFFFFFF00000000000000FFFFFFE
FFFFFFF00000000000000FFFFFFE
FFFFFFF00000000000000FFFFFFE
FFFFFFF00000000000000FFFFFFE
FFFFFFF00000000000000FFFFFFE
FFFFFFF00000000000000FFFFFFE
FFFFFFF00000000000000FFFFFFE
FFFFFFF00000000000000FFFFFFE
FFFFFFF00000000000000FFFFFFE
FFFFFFF00000000000000FFFFFFE
FFFFFFF00000000000000FFFFFFE
FFFFFFFFFFFFFFFFFFFFFFFFFFFE
FFFFFFFFFFFFFFFFFFFFFFFFFFFE
FFFFFFFFFFFFFFFFFFFFFFFFFFFE
FFFFFFFFFFFFFFFFFFFFFFFFFFFE
FFFFFFFFFFFFFFFFFFFFFFFFFFFE
FFFFFFFFFFFFFFFFFFFFFFFFFFFE
7FFFFFFFFFFFFFFFFFFFFFFFFFFC
3FFFFFFFFFFFFFFFFFFFFFFFFFF8
1FFFFFFFFFFFFFFFFFFFFFFFFFF0
0FFFFFFFFFFFFFFFFFFFFFFFFFE0
07FFFFFFFFFFFFFFFFFFFFFFFFC0
03FFFFFFFFFFFFFFFFFFFFFFFF80
01FFFFFFFFFFFFFFFFFFFFFFFF00
00FFFFFFFFFFFFFFFFFFFFFFFE00
007FFFFFFFFFFFFFFFFFFFFFFC00
003FFFFFFFFFFFFFFFFFFFFFF800
001FFFFFFFFFFFFFFFFFFFFFF000
000FFFFFFFFFFFFFFFFFFFFFE000
0007FFFFFFFFFFFFFFFFFFFFC000
0003FFFFFFFFFFFFFFFFFFFF8000
0001FFFFFFFFFFFFFFFFFFFF0000
0000FFFFFFFFFFFFFFFFFFFE0000
00007FFFFFFFFFFFFFFFFFFC0000
00003FFFFFFFFFFFFFFFFFF80000
00001FFFFFFFFFFFFFFFFFF00000
00000FFFFFFFFFFFFFFFFFE00000
000007FFFFFFFFFFFFFFFFC00000
ENDCHAR
STARTCHAR 0037
ENCODING 55
SWIDTH 564 0
DWIDTH 96 0
BBX 98 130 -4 0
BITMAP
FFFFFFFFFFFFFFFFFFFFFFFFC0
FFFFFFFFFFFFFFFFFFFFFFFFC0
FFFFFFFFFFFFFFFFFFFFFFFFC0
FFFFFFFFFFFFFFFFFFFFFFFFC0
FFFFFFFFFFFFFFFFFFFFFFFFC0
FFFFFFFFFFFFFFFFFFFFFFFFC0
FFFFFFFFFFFFFFFFFFFFFFFFC0
FFFFFFFFFFFFFFFFFFFFFFFFC0
FFFFFFFFFFFFFFFFFFFFFFFFC0
FFFFFFFFFFFFFFFFFFFFFFFFC0
FFFFFFFFFFFFFFFFFFFFFFFFC0
FFFFFFFFFFFFFFFFFFFFFFFFC0
FFFFFFFFFFFFFFFFFFFFFFFFC0
FFFFFFFFFFFFFFFFFFFFFFFFC0
FFFFFFFFFFFFFFFFFFFFFFFFC0
FFFFFFFFFFFFFFFFFFFFFFFFC0
FFFFFFFFFFFFFFFFFFFFFFFFC0
FFFFFFFFFFFFFFFFFFFFFFFFC0
FFFFFFFFFFFFFFFFFFFFFFFFC0
FFFFFFFFFFFFFFFFFFFFFFFFC0
FFFFFFFFFFFFFFFFFFFFFFFFC0
FFFFFFFFFFFFFFFFFFFFFFFFC0
FFFFFFFFFFFFFFFFFFFFFFFFC0
FFFFFFFFFFFFFFFFFFFFFFFFC0
FFFFFFFFFFFFFFFFFFFFFFFFC0
FFFFFFFFFFFFFFFFFFFFFFFFC0
FFFFFFFFFFFFFFFFFFFFFFFFC0
FFFFFFFFFFFFFFFFFFFFFFFFC0
000000000000000003FFFFFFC0
000000000000000003FFFFFFC0
000000000000000003FFFFFFC0
000000000000000003FFFFFFC0
000000000000000003FFFFFFC0
000000000000000003FFFFFFC0
000000000000000003FFFFFFC0
000000000000000003FFFFFFC0
000000000000000003FFFFFFC0
000000000000000003FFFFFFC0
000000000000000003FFFFFFC0
000000000000000003FFFFFFC0
000000000000000003FFFFFFC0
000000000000000003FFFFFFC0
000000000000000007FFFFFFC0
00000000000000000FFFFFFFC0
00000000000000001FFFFFFFC0
00000000000000003FFFFFFFC0
00000000000000007FFFFFFFC0
0000000000000000FFFFFFFFC0
0000000000000001FFFFFFFFC0
0000000000000003FFFFFFFFC0
0000000000000007FFFFFFFFC0
000000000000000FFFFFFFFF80
000000000000001FFFFFFFFF00
000000000000003FFFFFFFFE00
000000000000007FFFFFFFFC00
00000000000000FFFFFFFFF800
00000000000001FFFFFFFFF000
00000000000003FFFFFFFFE000
00000000000007FFFFFFFFC000
0000000000000FFFFFFFFF8000
0000000000001FFFFFFFFF0000
0000000000003FFFFFFFFE0000
0000000000007FFFFFFFFC0000
000000000000FFFFFFFFF80000
000000000001FFFFFFFFF00000
000000000003FFFFFFFFE00000
000000000007FFFFFFFFC00000
00000000000FFFFFFFFF800000
00000000001FFFFFFFFF000000
00000000003FFFFFFFFE000000
00000000007FFFFFFFFC000000
0000000000FFFFFFFFF8000000
0000000001FFFFFFFFF0000000
0000000003FFFFFFFFE0000000
0000000007FFFFFFFFC0000000
000000000FFFFFFFFF80000000
000000001FFFFFFFFF00000000
000000003FFFFFFFFE00000000
000000007FFFFFFFFC00000000
00000000FFFFFFFFF800000000
00000001FFFFFFFFF000000000
00000003FFFFFFFFE000000000
00000007FFFFFFFFC000000000
0000000FFFFFFFFF8000000000
0000001FFFFFFFFF0000000000
0000003FFFFFFFFE0000000000
0000007FFFFFFFFC0000000000
000000FFFFFFFFF80000000000
000001FFFFFFFFF00000000000
000003FFFFFFFFE00000000000
000007FFFFFFFFC00000000000
00000FFFFFFFFF800000000000
00001FFFFFFFFF000000000000
00001FFFFFFFFE000000000000
00001FFFFFFFFC000000000000
00001FFFFFFFF8000000000000
00001FFFFFFFF0000000000000
00001FFFFFFFE0000000000000
00001FFFFFFFC0000000000000
00001FFFFFFF80000000000000
00001FFFFFFF00000000000000
00001FFFFFFE00000000000000
00001FFFFFFC00000000000000
00001FFFFFFC00000000000000
00001FFFFFFC00000000000000
00001FFFFFFC00000000000000
00001FFFFFFC00000000000000
00001FFFFFFC00000000000000
00001FFFFFFC00000000000000
00001FFFFFFC00000000000000
00001FFFFFFC00000000000000
00001FFFFFFC00000000000000
00001FFFFFFC00000000000000
00001FFFFFFC00000000000000
00001FFFFFFC00000000000000
00001FFFFFFC00000000000000
00001FFFFFFC00000000000000
00001FFFFFFC00000000000000
00001FFFFFFC00000000000000
00001FFFFFFC00000000000000
00001FFFFFFC00000000000000
00001FFFFFFC00000000000000
00001FFFFFFC00000000000000
00001FFFFFFC00000000000000
00001FFFFFFC00000000000000
00001FFFFFFC00000000000000
00001FFFFFFC00000000000000
00001FFFFFFC00000000000000
00001FFFFFFC00000000000000
00001FFFFFFC00000000000000
ENDCHAR
STARTCHAR 0038
ENCODING 56
SWIDTH 676 0
DWIDTH 115 0
BBX 111 130 2 0
BITMAP
000003FFFFFFFFFFFFFFFF800000
000007FFFFFFFFFFFFFFFFC00000
00000FFFFFFFFFFFFFFFFFE00000
00001FFFFFFFFFFFFFFFFFF00000
00003FFFFFFFFFFFFFFFFFF80000
00007FFFFFFFFFFFFFFFFFFC0000
0000FFFFFFFFFFFFFFFFFFFE0000
0001FFFFFFFFFFFFFFFFFFFF0000
0003FFFFFFFFFFFFFFFFFFFF8000
0007FFFFFFFFFFFFFFFFFFFFC000
000FFFFFFFFFFFFFFFFFFFFFE000
001FFFFFFFFFFFFFFFFFFFFFF000
003FFFFFFFFFFFFFFFFFFFFFF800
007FFFFFFFFFFFFFFFFFFFFFFC00
00FFFFFFFFFFFFFFFFFFFFFFFE00
01FFFFFFFFFFFFFFFFFFFFFFFF00
03FFFFFFFFFFFFFFFFFFFFFFFF80
07FFFFFFFFFFFFFFFFFFFFFFFFC0
0FFFFFFFFFFFFFFFFFFFFFFFFFE0
1FFFFFFFFFFFFFFFFFFFFFFFFFF0
3FFFFFFFFFFFFFFFFFFFFFFFFFF8
7FFFFFFFFFFFFFFFFFFFFFFFFFFC
FFFFFFFFFFFFFFFFFFFFFFFFFFFE
FFFFFFFFFFFFFFFFFFFFFFFFFFFE
FFFFFFFFFFFFFFFFFFFFFFFFFFFE
FFFFFFFFFFFFFFFFFFFFFFFFFFFE
FFFFFFFFFFFFFFFFFFFFFFFFFFFE
FFFFFFFFFFFFFFFFFFFFFFFFFFFE
FFFFFFF00000000000000FFFFFFE
FFFFFFF00000000000000FFFFFFE
FFFFFFF00000000000000FFFFFFE
FFFFFFF00000000000000FFFFFFE
FFFFFFF00000000000000FFFFFFE
FFFFFFF00000000000000FFFFFFE
FFFFFFF00000000000000FFFFFFE
FFFFFFF00000000000000FFFFFFE
FFFFFFF00000000000000FFFFFFE
FFFFFFF00000000000000FFFFFFE
FFFFFFF00000000000000FFFFFFE
FFFFFFF00000000000000FFFFFFE
FFFFFFF00000000000000FFFFFFE
FFFFFFF00000000000000FFFFFFE
FFFFFFF00000000000000FFFFFFE
FFFFFFF00000000000000FFFFFFE
FFFFFFF00000000000000FFFFFFE
FFFFFFF00000000000000FFFFFFE
FFFFFFF00000000000000FFFFFFE
FFFFFFF00000000000000FFFFFFE
FFFFFFF00000000000000FFFFFFE
FFFFFFF00000000000000FFFFFFE
FFFFFFF00000000000000FFFFFFE
FFFFFFF00000000000000FFFFFFE
FFFFFFFFFFFFFFFFFFFFFFFFFFFE
FFFFFFFFFFFFFFFFFFFFFFFFFFFE
FFFFFFFFFFFFFFFFFFFFFFFFFFFE
FFFFFFFFFFFFFFFFFFFFFFFFFFFE
FFFFFFFFFFFFFFFFFFFFFFFFFFFE
7FFFFFFFFFFFFFFFFFFFFFFFFFFC
3FFFFFFFFFFFFFFFFFFFFFFFFFF8
1FFFFFFFFFFFFFFFFFFFFFFFFFF8
0FFFFFFFFFFFFFFFFFFFFFFFFFF0
07FFFFFFFFFFFFFFFFFFFFFFFFE0
03FFFFFFFFFFFFFFFFFFFFFFFFC0
01FFFFFFFFFFFFFFFFFFFFFFFF80
00FFFFFFFFFFFFFFFFFFFFFFFF00
00FFFFFFFFFFFFFFFFFFFFFFFE00
01FFFFFFFFFFFFFFFFFFFFFFFF00
03FFFFFFFFFFFFFFFFFFFFFFFF80
07FFFFFFFFFFFFFFFFFFFFFFFFC0
0FFFFFFFFFFFFFFFFFFFFFFFFFE0
1FFFFFFFFFFFFFFFFFFFFFFFFFF0
3FFFFFFFFFFFFFFFFFFFFFFFFFF8
7FFFFFFFFFFFFFFFFFFFFFFFFFFC
FFFFFFFFFFFFFFFFFFFFFFFFFFFE
FFFFFFFFFFFFFFFFFFFFFFFFFFFE
FFFFFFFFFFFFFFFFFFFFFFFFFFFE
FFFFFFFFFFFFFFFFFFFFFFFFFFFE
FFFFFFFFFFFFFFFFFFFFFFFFFFFE
FFFFFFFFFFFFFFFFFFFFFFFFFFFE
FFFFFFF00000000000000FFFFFFE
FFFFFFF00000000000000FFFFFFE
FFFFFFF00000000000000FFFFFFE
FFFFFFF00000000000000FFFFFFE
FFFFFFF00000000000000FFFFFFE
FFFFFFF00000000000000FFFFFFE
FFFFFFF00000000000000FFFFFFE
FFFFFFF00000000000000FFFFFFE
FFFFFFF00000000000000FFFFFFE
FFFFFFF00000000000000FFFFFFE
FFFFFFF00000000000000FFFFFFE
FFFFFFF00000000000000FFFFFFE
FFFFFFF00000000000000FFFFFFE
FFFFFFF00000000000000FFFFFFE
FFFFFFF00000000000000FFFFFFE
FFFFFFF00000000000000FFFFFFE
FFFFFFF00000000000000FFFFFFE
FFFFFFF00000000000000FFFFFFE
FFFFFFF00000000000000FFFFFFE
FFFFFFF00000000000000FFFFFFE
FFFFFFF00000000000000FFFFFFE
FFFFFFF00000000000000FFFFFFE
FFFFFFF00000000000000FFFFFFE
FFFFFFF00000000000000FFFFFFE
FFFFFFFFFFFFFFFFFFFFFFFFFFFE
FFFFFFFFFFFFFFFFFFFFFFFFFFFE
FFFFFFFFFFFFFFFFFFFFFFFFFFFE
FFFFFFFFFFFFFFFFFFFFFFFFFFFE
FFFFFFFFFFFFFFFFFFFFFFFFFFFE
FFFFFFFFFFFFFFFFFFFFFFFFFFFE
7FFFFFFFFFFFFFFFFFFFFFFFFFFC
3FFFFFFFFFFFFFFFFFFFFFFFFFF8
1FFFFFFFFFFFFFFFFFFFFFFFFFF0
0FFFFFFFFFFFFFFFFFFFFFFFFFE0
07FFFFFFFFFFFFFFFFFFFFFFFFC0
03FFFFFFFFFFFFFFFFFFFFFFFF80
01FFFFFFFFFFFFFFFFFFFFFFFF00
00FFFFFFFFFFFFFFFFFFFFFFFE00
007FFFFFFFFFFFFFFFFFFFFFFC00
003FFFFFFFFFFFFFFFFFFFFFF800
001FFFFFFFFFFFFFFFFFFFFFF000
000FFFFFFFFFFFFFFFFFFFFFE000
0007FFFFFFFFFFFFFFFFFFFFC000
0003FFFFFFFFFFFFFFFFFFFF8000
0001FFFFFFFFFFFFFFFFFFFF0000
0000FFFFFFFFFFFFFFFFFFFE0000
00007FFFFFFFFFFFFFFFFFFC0000
00003FFFFFFFFFFFFFFFFFF80000
00001FFFFFFFFFFFFFFFFFF00000
00000FFFFFFFFFFFFFFFFFE00000
000007FFFFFFFFFFFFFFFFC00000
ENDCHAR
STARTCHAR 0039
ENCODING 57
SWIDTH 676 0
DWIDTH 115 0
BBX 111 130 2 0
BITMAP
000003FFFFFFFFFFFFFFFF800000
000007FFFFFFFFFFFFFFFFC00000
00000FFFFFFFFFFFFFFFFFE00000
00001FFFFFFFFFFFFFFFFFF00000
00003FFFFFFFFFFFFFFFFFF80000
00007FFFFFFFFFFFFFFFFFFC0000
0000FFFFFFFFFFFFFFFFFFFE0000
0001FFFFFFFFFFFFFFFFFFFF0000
0003FFFFFFFFFFFFFFFFFFFF8000
0007FFFFFFFFFFFFFFFFFFFFC000
000FFFFFFFFFFFFFFFFFFFFFE000
001FFFFFFFFFFFFFFFFFFFFFF000
003FFFFFFFFFFFFFFFFFFFFFF800
007FFFFFFFFFFFFFFFFFFFFFFC00
00FFFFFFFFFFFFFFFFFFFFFFFE00
01FFFFFFFFFFFFFFFFFFFFFFFF00
03FFFFFFFFFFFFFFFFFFFFFFFF80
07FFFFFFFFFFFFFFFFFFFFFFFFC0
0FFFFFFFFFFFFFFFFFFFFFFFFFE0
1FFFFFFFFFFFFFFFFFFFFFFFFFF0
3FFFFFFFFFFFFFFFFFFFFFFFFFF8
7FFFFFFFFFFFFFFFFFFFFFFFFFFC
FFFFFFFFFFFFFFFFFFFFFFFFFFFE
FFFFFFFFFFFFFFFFFFFFFFFFFFFE
FFFFFFFFFFFFFFFFFFFFFFFFFFFE
FFFFFFFFFFFFFFFFFFFFFFFFFFFE
FFFFFFFFFFFFFFFFFFFFFFFFFFFE
FFFFFFFFFFFFFFFFFFFFFFFFFFFE
FFFFFFF00000000000000FFFFFFE
FFFFFFF00000000000000FFFFFFE
FFFFFFF00000000000000FFFFFFE
FFFFFFF00000000000000FFFFFFE
FFFFFFF00000000000000FFFFFFE
FFFFFFF00000000000000FFFFFFE
FFFFFFF00000000000000FFFFFFE
FFFFFFF00000000000000FFFFFFE
FFFFFFF00000000000000FFFFFFE
FFFFFFF00000000000000FFFFFFE
FFFFFFF00000000000000FFFFFFE
FFFFFFF00000000000000FFFFFFE
FFFFFFF00000000000000FFFFFFE
FFFFFFF00000000000000FFFFFFE
FFFFFFF00000000000000FFFFFFE
FFFFFFF00000000000000FFFFFFE
FFFFFFF00000000000000FFFFFFE
FFFFFFF00000000000000FFFFFFE
FFFFFFF00000000000000FFFFFFE
FFFFFFF00000000000000FFFFFFE
FFFFFFF00000000000000FFFFFFE
FFFFFFF00000000000000FFFFFFE
FFFFFFF00000000000000FFFFFFE
FFFFFFF00000000000000FFFFFFE
FFFFFFF00000000000000FFFFFFE
FFFFFFF00000000000000FFFFFFE
FFFFFFF00000000000000FFFFFFE
FFFFFFF00000000000000FFFFFFE
FFFFFFF00000000000000FFFFFFE
FFFFFFF00000000000000FFFFFFE
FFFFFFFFFFFFFFFFFFFFFFFFFFFE
FFFFFFFFFFFFFFFFFFFFFFFFFFFE
FFFFFFFFFFFFFFFFFFFFFFFFFFFE
FFFFFFFFFFFFFFFFFFFFFFFFFFFE
FFFFFFFFFFFFFFFFFFFFFFFFFFFE
FFFFFFFFFFFFFFFFFFFFFFFFFFFE
7FFFFFFFFFFFFFFFFFFFFFFFFFFE
3FFFFFFFFFFFFFFFFFFFFFFFFFFE
1FFFFFFFFFFFFFFFFFFFFFFFFFFE
0FFFFFFFFFFFFFFFFFFFFFFFFFFE
07FFFFFFFFFFFFFFFFFFFFFFFFFE
03FFFFFFFFFFFFFFFFFFFFFFFFFE
01FFFFFFFFFFFFFFFFFFFFFFFFFE
00FFFFFFFFFFFFFFFFFFFFFFFFFE
007FFFFFFFFFFFFFFFFFEFFFFFFE
003FFFFFFFFFFFFFFFFFCFFFFFFE
001FFFFFFFFFFFFFFFFF8FFFFFFE
000FFFFFFFFFFFFFFFFF0FFFFFFE
0007FFFFFFFFFFFFFFFE0FFFFFFE
0003FFFFFFFFFFFFFFFC0FFFFFFE
0001FFFFFFFFFFFFFFF80FFFFFFE
0000FFFFFFFFFFFFFFF00FFFFFFE
00007FFFFFFFFFFFFFE00FFFFFFE
00003FFFFFFFFFFFFFC00FFFFFFE
00001FFFFFFFFFFFFF800FFFFFFE
00000FFFFFFFFFFFFF000FFFFFFE
000007FFFFFFFFFFFE000FFFFFFE
000000000000000000000FFFFFFE
000000000000000000000FFFFFFE
000000000000000000000FFFFFFE
000000000000000000000FFFFFFE
000000000000000000000FFFFFFE
000000000000000000000FFFFFFE
000000000000000000000FFFFFFE
000000000000000000000FFFFFFE
000000000000000000000FFFFFFE
000000000000000000000FFFFFFE
000000000000000000000FFFFFFE
000000000000000000000FFFFFFE
000000000000000000000FFFFFFE
000000000000000000000FFFFFFE
000000000000000000000FFFFFFE
000000000000000000000FFFFFFE
000000000000000000000FFFFFFE
000000000000000000000FFFFFFE
00000FFFFFFFFFFFFFFFFFFFFFFE
00000FFFFFFFFFFFFFFFFFFFFFFE
00000FFFFFFFFFFFFFFFFFFFFFFE
00000FFFFFFFFFFFFFFFFFFFFFFE
00000FFFFFFFFFFFFFFFFFFFFFFE
00000FFFFFFFFFFFFFFFFFFFFFFE
00000FFFFFFFFFFFFFFFFFFFFFFC
00000FFFFFFFFFFFFFFFFFFFFFF8
00000FFFFFFFFFFFFFFFFFFFFFF0
00000FFFFFFFFFFFFFFFFFFFFFE0
00000FFFFFFFFFFFFFFFFFFFFFC0
00000FFFFFFFFFFFFFFFFFFFFF80
00000FFFFFFFFFFFFFFFFFFFFF00
00000FFFFFFFFFFFFFFFFFFFFE00
00000FFFFFFFFFFFFFFFFFFFFC00
00000FFFFFFFFFFFFFFFFFFFF800
00000FFFFFFFFFFFFFFFFFFFF000
00000FFFFFFFFFFFFFFFFFFFE000
00000FFFFFFFFFFFFFFFFFFFC000
00000FFFFFFFFFFFFFFFFFFF8000
00000FFFFFFFFFFFFFFFFFFF0000
00000FFFFFFFFFFFFFFFFFFE0000
00000FFFFFFFFFFFFFFFFFFC0000
00000FFFFFFFFFFFFFFFFFF80000
00000FFFFFFFFFFFFFFFFFF00000
00000FFFFFFFFFFFFFFFFFE00000
00000FFFFFFFFFFFFFFFFFC00000
ENDCHAR
STARTCHAR 003A
ENCODING 58
SWIDTH 188 0
DWIDTH 32 0
BBX 28 78 2 1
BITMAP
FFFFFFF0
FFFFFFF0
FFFFFFF0
FFFFFFF0
FFFFFFF0
FFFFFFF0
FFFFFFF0
FFFFFFF0
FFFFFFF0
FFFFFFF0
FFFFFFF0
FFFFFFF0
FFFFFFF0
FFFFFFF0
FFFFFFF0
FFFFFFF0
FFFFFFF0
FFFFFFF0
FFFFFFF0
FFFFFFF0
FFFFFFF0
FFFFFFF0
FFFFFFF0
FFFFFFF0
FFFFFFF0
FFFFFFF0
FFFFFFF0
00000000
00000000
00000000
00000000
00000000
00000000
00000000
00000000
00000000
00000000
00000000
00000000
00000000
00000000
00000000
00000000
00000000
00000000
00000000
00000000
00000000
00000000
00000000
00000000
FFFFFFF0
FFFFFFF0
FFFFFFF0
FFFFFFF0
FFFFFFF0
FFFFFFF0
FFFFFFF0
FFFFFFF0
FFFFFFF0
FFFFFFF0
FFFFFFF0
FFFFFFF0
FFFFFFF0
FFFFFFF0
FFFFFFF0
FFFFFFF0
FFFFFFF0
FFFFFFF0
FFFFFFF0
FFFFFFF0
FFFFFFF0
FFFFFFF0
FFFFFFF0
FFFFFFF0
FFFFFFF0
FFFFFFF0
FFFFFFF0
ENDCHAR
STARTCHAR 003B
ENCODING 59
SWIDTH 188 0
DWIDTH 32 0
BBX 28 91 2 -12
BITMAP
FFFFFFF0
FFFFFFF0
FFFFFFF0
FFFFFFF0
FFFFFFF0
FFFFFFF0
FFFFFFF0
FFFFFFF0
FFFFFFF0
FFFFFFF0
FFFFFFF0
FFFFFFF0
FFFFFFF0
FFFFFFF0
FFFFFFF0
FFFFFFF0
FFFFFFF0
FFFFFFF0
FFFFFFF0
FFFFFFF0
FFFFFFF0
FFFFFFF0
FFFFFFF0
FFFFFFF0
FFFFFFF0
FFFFFFF0
FFFFFFF0
00000000
00000000
00000000
00000000
00000000
00000000
00000000
00000000
00000000
00000000
00000000
00000000
00000000
00000000
00000000
00000000
00000000
00000000
00000000
00000000
00000000
00000000
00000000
00000000
FFFFFFF0
FFFFFFF0
FFFFFFF0
FFFFFFF0
FFFFFFF0
FFFFFFF0
FFFFFFF0
FFFFFFF0
FFFFFFF0
FFFFFFF0
FFFFFFF0
FFFFFFF0
FFFFFFF0
FFFFFFF0
FFFFFFF0
FFFFFFF0
FFFFFFF0
FFFFFFF0
7FFFFFF0
3FFFFFF0
1FFFFFF0
0FFFFFF0
07FFFFF0
03FFFFF0
01FFFFF0
01FFFFF0
01FFFFF0
01FFFFF0
01FFFFF0
01FFFFF0
01FFFFF0
01FFFFF0
00FFFFF0
007FFFF0
003FFFF0
001FFFF0
000FFFF0
0007FFF0
0003FFF0
0001FFF0
ENDCHAR
STARTCHAR 003C
ENCODING 60
SWIDTH 341 0
DWIDTH 58 0
BBX 53 91 2 20
BITMAP
000000003FFFF8
000000007FFFF8
00000000FFFFF8
00000001FFFFF8
00000003FFFFF8
00000007FFFFF8
0000000FFFFFF8
0000001FFFFFF8
0000003FFFFFF8
0000007FFFFFF8
000000FFFFFFF8
000001FFFFFFF8
000003FFFFFFF8
000007FFFFFFF8
00000FFFFFFFF8
00001FFFFFFFF8
00003FFFFFFFF8
00007FFFFFFFF8
0000FFFFFFFFF8
0001FFFFFFFFF0
0003FFFFFFFFE0
0007FFFFFFFFC0
000FFFFFFFFF80
001FFFFFFFFF00
003FFFFFFFFE00
007FFFFFFFFC00
00FFFFFFFFF800
01FFFFFFFFF000
03FFFFFFFFE000
07FFFFFFFFC000
0FFFFFFFFF8000
1FFFFFFFFF0000
3FFFFFFFFE0000
7FFFFFFFFC0000
FFFFFFFFF80000
FFFFFFFFF00000
FFFFFFFFE00000
FFFFFFFFC00000
FFFFFFFF800000
FFFFFFFF000000
FFFFFFFE000000
FFFFFFFC000000
FFFFFFF8000000
FFFFFFF0000000
FFFFFFE0000000
FFFFFFC0000000
FFFFFFE0000000
FFFFFFF0000000
FFFFFFF8000000
FFFFFFFC000000
FFFFFFFE000000
FFFFFFFF000000
FFFFFFFF800000
FFFFFFFFC00000
FFFFFFFFE00000
FFFFFFFFF00000
FFFFFFFFF80000
7FFFFFFFFC0000
3FFFFFFFFE0000
1FFFFFFFFF0000
0FFFFFFFFF8000
07FFFFFFFFC000
03FFFFFFFFE000
01FFFFFFFFF000
00FFFFFFFFF800
007FFFFFFFFC00
003FFFFFFFFE00
001FFFFFFFFF00
000FFFFFFFFF80
0007FFFFFFFFC0
0003FFFFFFFFE0
0001FFFFFFFFF0
0000FFFFFFFFF8
00007FFFFFFFF8
00003FFFFFFFF8
00001FFFFFFFF8
00000FFFFFFFF8
000007FFFFFFF8
000003FFFFFFF8
000001FFFFFFF8
000000FFFFFFF8
0000007FFFFFF8
0000003FFFFFF8
0000001FFFFFF8
0000000FFFFFF8
00000007FFFFF8
00000003FFFFF8
00000001FFFFF8
00000000FFFFF8
000000007FFFF8
000000003FFFF8
ENDCHAR
STARTCHAR 003D
ENCODING 61
SWIDTH 376 0
DWIDTH 64 0
BBX 60 66 2 31
BITMAP
FFFFFFFFFFFFFFF0
FFFFFFFFFFFFFFF0
FFFFFFFFFFFFFFF0
FFFFFFFFFFFFFFF0
FFFFFFFFFFFFFFF0
FFFFFFFFFFFFFFF0
FFFFFFFFFFFFFFF0
FFFFFFFFFFFFFFF0
FFFFFFFFFFFFFFF0
FFFFFFFFFFFFFFF0
FFFFFFFFFFFFFFF0
FFFFFFFFFFFFFFF0
FFFFFFFFFFFFFFF0
FFFFFFFFFFFFFFF0
FFFFFFFFFFFFFFF0
FFFFFFFFFFFFFFF0
FFFFFFFFFFFFFFF0
FFFFFFFFFFFFFFF0
FFFFFFFFFFFFFFF0
FFFFFFFFFFFFFFF0
FFFFFFFFFFFFFFF0
FFFFFFFFFFFFFFF0
FFFFFFFFFFFFFFF0
FFFFFFFFFFFFFFF0
FFFFFFFFFFFFFFF0
FFFFFFFFFFFFFFF0
FFFFFFFFFFFFFFF0
FFFFFFFFFFFFFFF0
0000000000000000
0000000000000000
0000000000000000
0000000000000000
0000000000000000
0000000000000000
0000000000000000
0000000000000000
0000000000000000
0000000000000000
0000000000000000
FFFFFFFFFFFFFFF0
FFFFFFFFFFFFFFF0
FFFFFFFFFFFFFFF0
FFFFFFFFFFFFFFF0
FFFFFFFFFFFFFFF0
FFFFFFFFFFFFFFF0
FFFFFFFFFFFFFFF0
FFFFFFFFFFFFFFF0
FFFFFFFFFFFFFFF0
FFFFFFFFFFFFFFF0
FFFFFFFFFFFFFFF0
FFFFFFFFFFFFFFF0
FFFFFFFFFFFFFFF0
FFFFFFFFFFFFFFF0
FFFFFFFFFFFFFFF0
FFFFFFFFFFFFFFF0
FFFFFFFFFFFFFFF0
FFFFFFFFFFFFFFF0
FFFFFFFFFFFFFFF0
FFFFFFFFFFFFFFF0
FFFFFFFFFFFFFFF0
FFFFFFFFFFFFFFF0
FFFFFFFFFFFFFFF0
FFFFFFFFFFFFFFF0
FFFFFFFFFFFFFFF0
FFFFFFFFFFFFFFF0
FFFFFFFFFFFFFFF0
ENDCHAR
STARTCHAR 003E
ENCODING 62
SWIDTH 341 0
DWIDTH 58 0
BBX 53 91 2 20
BITMAP
FFFFF000000000
FFFFF800000000
FFFFFC00000000
FFFFFE00000000
FFFFFF00000000
FFFFFF80000000
FFFFFFC0000000
FFFFFFE0000000
FFFFFFF0000000
FFFFFFF8000000
FFFFFFFC000000
FFFFFFFE000000
FFFFFFFF000000
FFFFFFFF800000
FFFFFFFFC00000
FFFFFFFFE00000
FFFFFFFFF00000
FFFFFFFFF80000
7FFFFFFFFC0000
3FFFFFFFFE0000
1FFFFFFFFF0000
0FFFFFFFFF8000
07FFFFFFFFC000
03FFFFFFFFE000
01FFFFFFFFF000
00FFFFFFFFF800
007FFFFFFFFC00
003FFFFFFFFE00
001FFFFFFFFF00
000FFFFFFFFF80
0007FFFFFFFFC0
0003FFFFFFFFE0
0001FFFFFFFFF0
0000FFFFFFFFF8
00007FFFFFFFF8
00003FFFFFFFF8
00001FFFFFFFF8
00000FFFFFFFF8
000007FFFFFFF8
000003FFFFFFF8
000001FFFFFFF8
000000FFFFFFF8
0000007FFFFFF8
0000003FFFFFF8
0000001FFFFFF8
0000001FFFFFF8
0000003FFFFFF8
0000007FFFFFF8
000000FFFFFFF8
000001FFFFFFF8
000003FFFFFFF8
000007FFFFFFF8
00000FFFFFFFF8
00001FFFFFFFF8
00003FFFFFFFF8
00007FFFFFFFF8
0000FFFFFFFFF8
0001FFFFFFFFF0
0003FFFFFFFFE0
0007FFFFFFFFC0
000FFFFFFFFF80
001FFFFFFFFF00
003FFFFFFFFE00
007FFFFFFFFC00
00FFFFFFFFF800
01FFFFFFFFF000
03FFFFFFFFE000
07FFFFFFFFC000
0FFFFFFFFF8000
1FFFFFFFFF0000
3FFFFFFFFE0000
7FFFFFFFFC0000
FFFFFFFFF80000
FFFFFFFFF00000
FFFFFFFFE00000
FFFFFFFFC00000
FFFFFFFF800000
FFFFFFFF000000
FFFFFFFE000000
FFFFFFFC000000
FFFFFFF8000000
FFFFFFF0000000
FFFFFFE0000000
FFFFFFC0000000
FFFFFF80000000
FFFFFF00000000
FFFFFE00000000
FFFFFC00000000
FFFFF800000000
FFFFF000000000
FFFFE000000000
ENDCHAR
STARTCHAR 003F
ENCODING 63
SWIDTH 564 0
DWIDTH 96 0
BBX 92 130 2 0
BITMAP
FFFFFFFFFFFFFFFFFC000000
FFFFFFFFFFFFFFFFFE000000
FFFFFFFFFFFFFFFFFF000000
FFFFFFFFFFFFFFFFFF800000
FFFFFFFFFFFFFFFFFFC00000
FFFFFFFFFFFFFFFFFFE00000
FFFFFFFFFFFFFFFFFFF00000
FFFFFFFFFFFFFFFFFFF80000
FFFFFFFFFFFFFFFFFFFC0000
FFFFFFFFFFFFFFFFFFFE0000
FFFFFFFFFFFFFFFFFFFF0000
FFFFFFFFFFFFFFFFFFFF8000
FFFFFFFFFFFFFFFFFFFFC000
FFFFFFFFFFFFFFFFFFFFE000
FFFFFFFFFFFFFFFFFFFFF000
FFFFFFFFFFFFFFFFFFFFF800
FFFFFFFFFFFFFFFFFFFFFC00
FFFFFFFFFFFFFFFFFFFFFE00
FFFFFFFFFFFFFFFFFFFFFF00
FFFFFFFFFFFFFFFFFFFFFF80
FFFFFFFFFFFFFFFFFFFFFFC0
FFFFFFFFFFFFFFFFFFFFFFE0
FFFFFFFFFFFFFFFFFFFFFFF0
FFFFFFFFFFFFFFFFFFFFFFF0
FFFFFFFFFFFFFFFFFFFFFFF0
FFFFFFFFFFFFFFFFFFFFFFF0
FFFFFFFFFFFFFFFFFFFFFFF0
FFFFFFFFFFFFFFFFFFFFFFF0
0000000000000000FFFFFFF0
0000000000000000FFFFFFF0
0000000000000000FFFFFFF0
0000000000000000FFFFFFF0
0000000000000000FFFFFFF0
0000000000000000FFFFFFF0
0000000000000000FFFFFFF0
0000000000000000FFFFFFF0
0000000000000000FFFFFFF0
0000000000000000FFFFFFF0
0000000000000000FFFFFFF0
0000000000000000FFFFFFF0
0000000000000000FFFFFFF0
0000000000000000FFFFFFF0
0000000000000000FFFFFFF0
0000000000000000FFFFFFF0
0000000000000000FFFFFFF0
0000000000000000FFFFFFF0
0000000000000000FFFFFFF0
0000000000000000FFFFFFF0
0000000000000000FFFFFFF0
0000000000000000FFFFFFF0
0000000000000000FFFFFFF0
0000000000000000FFFFFFF0
000000003FFFFFFFFFFFFFF0
000000007FFFFFFFFFFFFFF0
00000000FFFFFFFFFFFFFFF0
00000001FFFFFFFFFFFFFFF0
00000003FFFFFFFFFFFFFFF0
00000007FFFFFFFFFFFFFFE0
0000000FFFFFFFFFFFFFFFC0
0000001FFFFFFFFFFFFFFF80
0000003FFFFFFFFFFFFFFF00
0000007FFFFFFFFFFFFFFE00
000000FFFFFFFFFFFFFFFC00
000001FFFFFFFFFFFFFFF800
000003FFFFFFFFFFFFFFF000
000007FFFFFFFFFFFFFFE000
00000FFFFFFFFFFFFFFFC000
00001FFFFFFFFFFFFFFF8000
00003FFFFFFFFFFFFFFF0000
00007FFFFFFFFFFFFFFE0000
0000FFFFFFFFFFFFFFFC0000
0001FFFFFFFFFFFFFFF80000
0003FFFFFFFFFFFFFFF00000
0007FFFFFFFFFFFFFFE00000
0007FFFFFFFFFFFFFFC00000
0007FFFFFFFFFFFFFF800000
0007FFFFFFFFFFFFFF000000
0007FFFFFFFFFFFFFE000000
0007FFFFFFFFFFFFFC000000
0007FFFFFF00000000000000
0007FFFFFF00000000000000
0007FFFFFF00000000000000
0007FFFFFF00000000000000
0007FFFFFF00000000000000
0007FFFFFF00000000000000
0007FFFFFF00000000000000
0007FFFFFF00000000000000
0007FFFFFF00000000000000
0007FFFFFF00000000000000
0007FFFFFF00000000000000
0007FFFFFF00000000000000
0007FFFFFF00000000000000
000000000000000000000000
000000000000000000000000
000000000000000000000000
000000000000000000000000
000000000000000000000000
000000000000000000000000
000000000000000000000000
000000000000000000000000
000000000000000000000000
000000000000000000000000
000000000000000000000000
0007FFFFFF00000000000000
0007FFFFFF00000000000000
0007FFFFFF00000000000000
0007FFFFFF00000000000000
0007FFFFFF00000000000000
0007FFFFFF00000000000000
0007FFFFFF00000000000000
0007FFFFFF00000000000000
0007FFFFFF00000000000000
0007FFFFFF00000000000000
0007FFFFFF00000000000000
0007FFFFFF00000000000000
0007FFFFFF00000000000000
0007FFFFFF00000000000000
0007FFFFFF00000000000000
0007FFFFFF00000000000000
0007FFFFFF00000000000000
0007FFFFFF00000000000000
0007FFFFFF00000000000000
0007FFFFFF00000000000000
0007FFFFFF00000000000000
0007FFFFFF00000000000000
0007FFFFFF00000000000000
0007FFFFFF00000000000000
0007FFFFFF00000000000000
0007FFFFFF00000000000000
0007FFFFFF00000000000000
ENDCHAR
STARTCHAR 0040
ENCODING 64
SWIDTH 676 0
DWIDTH 115 0
BBX 111 130 2 0
BITMAP
000000001FFFFFFFFFFFFF800000
000000003FFFFFFFFFFFFFC00000
000000007FFFFFFFFFFFFFE00000
00000000FFFFFFFFFFFFFFF00000
00000001FFFFFFFFFFFFFFF80000
00000003FFFFFFFFFFFFFFFC0000
00000007FFFFFFFFFFFFFFFE0000
0000000FFFFFFFFFFFFFFFFF0000
0000001FFFFFFFFFFFFFFFFF8000
0000003FFFFFFFFFFFFFFFFFC000
0000007FFFFFFFFFFFFFFFFFE000
000000FFFFFFFFFFFFFFFFFFF000
000001FFFFFFFFFFFFFFFFFFF800
000003FFFFFFFFFFFFFFFFFFFC00
000007FFFFFFFFFFFFFFFFFFFE00
00000FFFFFFFFFFFFFFFFFFFFF00
00001FFFFFFFFFFFFFFFFFFFFF80
00003FFFFFFFFFFFFFFFFFFFFFC0
00007FFFFFFFFFFFFFFFFFFFFFE0
0000FFFFFFFFFFFFFFFFFFFFFFF0
0001FFFFFFFFFFFFFFFFFFFFFFF8
0003FFFFFFFFFFFFFFFFFFFFFFFC
0007FFFFFFFFFFFFFFFFFFFFFFFE
000FFFFFFFFFFFFFFFFFFFFFFFFE
001FFFFFFFFFFFFFFFFFFFFFFFFE
003FFFFFFFFFFFFFFFFFFFFFFFFE
007FFFFFFFFFFFFFFFFFFFFFFFFE
00FFFFFFFFFFFFFFFFFFFFFFFFFE
01FFFFFFFFF0000000000FFFFFFE
03FFFFFFFFE0000000000FFFFFFE
07FFFFFFFFC0000000000FFFFFFE
0FFFFFFFFF80000000000FFFFFFE
1FFFFFFFFF0003FFFFF00FFFFFFE
3FFFFFFFFE0007FFFFF80FFFFFFE
7FFFFFFFFC000FFFFFFC0FFFFFFE
FFFFFFFFF8001FFFFFFE0FFFFFFE
FFFFFFFFF0003FFFFFFF0FFFFFFE
FFFFFFFFE0007FFFFFFF8FFFFFFE
FFFFFFFFC000FFFFFFFFCFFFFFFE
FFFFFFFF8001FFFFFFFFEFFFFFFE
FFFFFFFF0003FFFFFFFFFFFFFFFE
FFFFFFFE0007FFFFFFFFFFFFFFFE
FFFFFFFC000FFFFFFFFFFFFFFFFE
FFFFFFF8001FFFFFFFFFFFFFFFFE
FFFFFFF0003FFFFFFFFFFFFFFFFE
FFFFFFF0007FFFFFFFFFFFFFFFFE
FFFFFFF000FFFFFFFFFFFFFFFFFE
FFFFFFF001FFFFFFFFFFFFFFFFFE
FFFFFFF003FFFFFFFFFFFFFFFFFE
FFFFFFF007FFFFFFFFFFFFFFFFFE
FFFFFFF00FFFFFFFFFFFFFFFFFFE
FFFFFFF01FFFFFFFFFFFFFFFFFFE
FFFFFFF03FFFFFFFFFFFFFFFFFFE
FFFFFFF07FFFFFFFFFFFFFFFFFFE
FFFFFFF0FFFFFFFFFFFFFFFFFFFE
FFFFFFF0FFFFFFFFFFFFFFFFFFFE
FFFFFFF0FFFFFFFFFFFFFFFFFFFE
FFFFFFF0FFFFFFFFFFFFFFFFFFFE
FFFFFFF0FFFFFFFFFFFFFFFFFFFE
FFFFFFF0FFFFFFFFFFFFFFFFFFFE
FFFFFFF0FFFFFFF000000FFFFFFE
FFFFFFF0FFFFFFF000000FFFFFFE
FFFFFFF0FFFFFFF000000FFFFFFE
FFFFFFF0FFFFFFF000000FFFFFFE
FFFFFFF0FFFFFFF000000FFFFFFE
FFFFFFF0FFFFFFF000000FFFFFFE
FFFFFFF0FFFFFFF000000FFFFFFE
FFFFFFF0FFFFFFF000000FFFFFFE
FFFFFFF0FFFFFFF000000FFFFFFE
FFFFFFF0FFFFFFF000000FFFFFFE
FFFFFFF0FFFFFFF000000FFFFFFC
FFFFFFF0FFFFFFFFFFFFFFFFFFF8
FFFFFFF0FFFFFFFFFFFFFFFFFFF0
FFFFFFF0FFFFFFFFFFFFFFFFFFE0
FFFFFFF0FFFFFFFFFFFFFFFFFFC0
FFFFFFF0FFFFFFFFFFFFFFFFFF80
FFFFFFF0FFFFFFFFFFFFFFFFFF00
FFFFFFF07FFFFFFFFFFFFFFFFE00
FFFFFFF03FFFFFFFFFFFFFFFFC00
FFFFFFF01FFFFFFFFFFFFFFFF800
FFFFFFF00FFFFFFFFFFFFFFFF000
FFFFFFF007FFFFFFFFFFFFFFE000
FFFFFFF003FFFFFFFFFFFFFFC000
FFFFFFF001FFFFFFFFFFFFFF8000
FFFFFFF000FFFFFFFFFFFFFF0000
FFFFFFF0007FFFFFFFFFFFFE0000
FFFFFFF0003FFFFFFFFFFFFC0000
FFFFFFF8001FFFFFFFFFFFF80000
FFFFFFFC000FFFFFFFFFFFF00000
FFFFFFFE0007FFFFFFFFFFE00000
FFFFFFFF0003FFFFFFFFFFC00000
FFFFFFFF8001FFFFFFFFFF800000
FFFFFFFFC000FFFFFFFFFF000000
FFFFFFFFE0007FFFFFFFFE000000
FFFFFFFFF0003FFFFFFFFC000000
FFFFFFFFF8001FFFFFFFF8000000
7FFFFFFFFC000FFFFFFFF0000000
3FFFFFFFFE0007FFFFFFE0000000
1FFFFFFFFF000000000000000000
0FFFFFFFFF800000000000000000
07FFFFFFFFC00000000000000000
03FFFFFFFFE00000000000000000
01FFFFFFFFF00000000000000000
00FFFFFFFFFFFFFFFFFFF8000000
007FFFFFFFFFFFFFFFFFF8000000
003FFFFFFFFFFFFFFFFFF8000000
001FFFFFFFFFFFFFFFFFF8000000
000FFFFFFFFFFFFFFFFFF8000000
0007FFFFFFFFFFFFFFFFF8000000
0003FFFFFFFFFFFFFFFFF8000000
0001FFFFFFFFFFFFFFFFF8000000
0000FFFFFFFFFFFFFFFFF8000000
00007FFFFFFFFFFFFFFFF8000000
00003FFFFFFFFFFFFFFFF8000000
00001FFFFFFFFFFFFFFFF8000000
00000FFFFFFFFFFFFFFFF8000000
000007FFFFFFFFFFFFFFF8000000
000003FFFFFFFFFFFFFFF8000000
000001FFFFFFFFFFFFFFF8000000
000000FFFFFFFFFFFFFFF8000000
0000007FFFFFFFFFFFFFF8000000
0000003FFFFFFFFFFFFFF8000000
0000001FFFFFFFFFFFFFF8000000
0000000FFFFFFFFFFFFFF8000000
00000007FFFFFFFFFFFFF8000000
00000003FFFFFFFFFFFFF8000000
00000001FFFFFFFFFFFFF8000000
00000000FFFFFFFFFFFFF8000000
000000007FFFFFFFFFFFF8000000
000000003FFFFFFFFFFFF8000000
ENDCHAR
STARTCHAR 0041
ENCODING 65
SWIDTH 717 0
DWIDTH 122 0
BBX 117 130 2 0
BITMAP
00000000000003FF00000000000000
00000000000007FF80000000000000
0000000000000FFFC0000000000000
0000000000001FFFE0000000000000
0000000000003FFFF0000000000000
0000000000007FFFF8000000000000
000000000000FFFFFC000000000000
000000000001FFFFFE000000000000
000000000003FFFFFF000000000000
000000000007FFFFFF800000000000
00000000000FFFFFFFC00000000000
00000000001FFFFFFFE00000000000
00000000003FFFFFFFF00000000000
00000000007FFFFFFFF80000000000
0000000000FFFFFFFFFC0000000000
0000000001FFFFFFFFFE0000000000
0000000003FFFFFFFFFF0000000000
0000000007FFFFFFFFFF8000000000
000000000FFFFFFFFFFFC000000000
000000001FFFFFFFFFFFE000000000
000000003FFFFFFFFFFFF000000000
000000007FFFFFFFFFFFF800000000
00000000FFFFFFFFFFFFFC00000000
00000001FFFFFFFFFFFFFE00000000
00000003FFFFFFFFFFFFFF00000000
00000007FFFFFFFFFFFFFF80000000
0000000FFFFFFFFFFFFFFFC0000000
0000001FFFFFFFFFFFFFFFE0000000
0000003FFFFFFFFFFFFFFFF0000000
0000007FFFFFFFFFFFFFFFF8000000
000000FFFFFFFFFFFFFFFFFC000000
000001FFFFFFFFFFFFFFFFFE000000
000003FFFFFFFFFFFFFFFFFF000000
000007FFFFFFFFCFFFFFFFFF800000
00000FFFFFFFFF87FFFFFFFFC00000
00001FFFFFFFFF03FFFFFFFFE00000
00003FFFFFFFFE01FFFFFFFFF00000
00007FFFFFFFFC00FFFFFFFFF80000
0000FFFFFFFFF8007FFFFFFFFC0000
0001FFFFFFFFF0003FFFFFFFFE0000
0003FFFFFFFFE0001FFFFFFFFF0000
0007FFFFFFFFC0000FFFFFFFFF8000
000FFFFFFFFF800007FFFFFFFFC000
001FFFFFFFFF000003FFFFFFFFE000
003FFFFFFFFE000001FFFFFFFFF000
007FFFFFFFFC000000FFFFFFFFF800
00FFFFFFFFF80000007FFFFFFFFC00
01FFFFFFFFF00000003FFFFFFFFE00
03FFFFFFFFE00000001FFFFFFFFF00
07FFFFFFFFC00000000FFFFFFFFF80
0FFFFFFFFF8000000007FFFFFFFFC0
1FFFFFFFFF0000000003FFFFFFFFE0
3FFFFFFFFE0000000001FFFFFFFFF0
7FFFFFFFFC0000000000FFFFFFFFF8
FFFFFFFFF800000000007FFFFFFFF8
FFFFFFFFF000000000003FFFFFFFF8
FFFFFFFFE000000000001FFFFFFFF8
FFFFFFFFC000000000000FFFFFFFF8
FFFFFFFF80000000000007FFFFFFF8
FFFFFFFF00000000000003FFFFFFF8
FFFFFFFE00000000000001FFFFFFF8
FFFFFFFC00000000000000FFFFFFF8
FFFFFFF8000000000000007FFFFFF8
FFFFFFF0000000000000003FFFFFF8
FFFFFFF0000000000000003FFFFFF8
FFFFFFF0000000000000003FFFFFF8
FFFFFFF0000000000000003FFFFFF8
FFFFFFF0000000000000003FFFFFF8
FFFFFFF0000000000000003FFFFFF8
FFFFFFF0000000000000003FFFFFF8
FFFFFFF0000000000000003FFFFFF8
FFFFFFFFFFFFFFFFFFFFFFFFFFFFF8
FFFFFFFFFFFFFFFFFFFFFFFFFFFFF8
FFFFFFFFFFFFFFFFFFFFFFFFFFFFF8
FFFFFFFFFFFFFFFFFFFFFFFFFFFFF8
FFFFFFFFFFFFFFFFFFFFFFFFFFFFF8
FFFFFFFFFFFFFFFFFFFFFFFFFFFFF8
FFFFFFFFFFFFFFFFFFFFFFFFFFFFF8
FFFFFFFFFFFFFFFFFFFFFFFFFFFFF8
FFFFFFFFFFFFFFFFFFFFFFFFFFFFF8
FFFFFFFFFFFFFFFFFFFFFFFFFFFFF8
FFFFFFFFFFFFFFFFFFFFFFFFFFFFF8
FFFFFFFFFFFFFFFFFFFFFFFFFFFFF8
FFFFFFFFFFFFFFFFFFFFFFFFFFFFF8
FFFFFFFFFFFFFFFFFFFFFFFFFFFFF8
FFFFFFFFFFFFFFFFFFFFFFFFFFFFF8
FFFFFFFFFFFFFFFFFFFFFFFFFFFFF8
FFFFFFFFFFFFFFFFFFFFFFFFFFFFF8
FFFFFFFFFFFFFFFFFFFFFFFFFFFFF8
FFFFFFFFFFFFFFFFFFFFFFFFFFFFF8
FFFFFFFFFFFFFFFFFFFFFFFFFFFFF8
FFFFFFFFFFFFFFFFFFFFFFFFFFFFF8
FFFFFFFFFFFFFFFFFFFFFFFFFFFFF8
FFFFFFFFFFFFFFFFFFFFFFFFFFFFF8
FFFFFFFFFFFFFFFFFFFFFFFFFFFFF8
FFFFFFFFFFFFFFFFFFFFFFFFFFFFF8
FFFFFFFFFFFFFFFFFFFFFFFFFFFFF8
FFFFFFFFFFFFFFFFFFFFFFFFFFFFF8
FFFFFFF0000000000000003FFFFFF8
FFFFFFF0000000000000003FFFFFF8
FFFFFFF0000000000000003FFFFFF8
FFFFFFF0000000000000003FFFFFF8
FFFFFFF0000000000000003FFFFFF8
FFFFFFF0000000000000003FFFFFF8
FFFFFFF0000000000000003FFFFFF8
FFFFFFF0000000000000003FFFFFF8
FFFFFFF0000000000000003FFFFFF8
FFFFFFF0000000000000003FFFFFF8
FFFFFFF0000000000000003FFFFFF8
FFFFFFF0000000000000003FFFFFF8
FFFFFFF0000000000000003FFFFFF8
FFFFFFF0000000000000003FFFFFF8
FFFFFFF0000000000000003FFFFFF8
FFFFFFF0000000000000003FFFFFF8
FFFFFFF0000000000000003FFFFFF8
FFFFFFF0000000000000003FFFFFF8
FFFFFFF0000000000000003FFFFFF8
FFFFFFF0000000000000003FFFFFF8
FFFFFFF0000000000000003FFFFFF8
FFFFFFF0000000000000003FFFFFF8
FFFFFFF0000000000000003FFFFFF8
FFFFFFF0000000000000003FFFFFF8
FFFFFFF0000000000000003FFFFFF8
FFFFFFF0000000000000003FFFFFF8
FFFFFFF0000000000000003FFFFFF8
FFFFFFF0000000000000003FFFFFF8
FFFFFFF0000000000000003FFFFFF8
FFFFFFF0000000000000003FFFFFF8
FFFFFFF0000000000000003FFFFFF8
FFFFFFF0000000000000003FFFFFF8
ENDCHAR
STARTCHAR 0042
ENCODING 66
SWIDTH 676 0
DWIDTH 115 0
BBX 111 130 2 0
BITMAP
FFFFFFFFFFFFFFFFFFFFFF800000
FFFFFFFFFFFFFFFFFFFFFFC00000
FFFFFFFFFFFFFFFFFFFFFFE00000
FFFFFFFFFFFFFFFFFFFFFFF00000
FFFFFFFFFFFFFFFFFFFFFFF80000
FFFFFFFFFFFFFFFFFFFFFFFC0000
FFFFFFFFFFFFFFFFFFFFFFFE0000
FFFFFFFFFFFFFFFFFFFFFFFF0000
FFFFFFFFFFFFFFFFFFFFFFFF8000
FFFFFFFFFFFFFFFFFFFFFFFFC000
FFFFFFFFFFFFFFFFFFFFFFFFE000
FFFFFFFFFFFFFFFFFFFFFFFFF000
FFFFFFFFFFFFFFFFFFFFFFFFF800
FFFFFFFFFFFFFFFFFFFFFFFFFC00
FFFFFFFFFFFFFFFFFFFFFFFFFE00
FFFFFFFFFFFFFFFFFFFFFFFFFF00
FFFFFFFFFFFFFFFFFFFFFFFFFF80
FFFFFFFFFFFFFFFFFFFFFFFFFFC0
FFFFFFFFFFFFFFFFFFFFFFFFFFE0
FFFFFFFFFFFFFFFFFFFFFFFFFFF0
FFFFFFFFFFFFFFFFFFFFFFFFFFF8
FFFFFFFFFFFFFFFFFFFFFFFFFFFC
FFFFFFFFFFFFFFFFFFFFFFFFFFFE
FFFFFFFFFFFFFFFFFFFFFFFFFFFE
FFFFFFFFFFFFFFFFFFFFFFFFFFFE
FFFFFFFFFFFFFFFFFFFFFFFFFFFE
FFFFFFFFFFFFFFFFFFFFFFFFFFFE
FFFFFFFFFFFFFFFFFFFFFFFFFFFE
FFFFFFF00000000000000FFFFFFE
FFFFFFF00000000000000FFFFFFE
FFFFFFF00000000000000FFFFFFE
FFFFFFF00000000000000FFFFFFE
FFFFFFF00000000000000FFFFFFE
FFFFFFF00000000000000FFFFFFE
FFFFFFF00000000000000FFFFFFE
FFFFFFF00000000000000FFFFFFE
FFFFFFF00000000000000FFFFFFE
FFFFFFF00000000000000FFFFFFE
FFFFFFF00000000000000FFFFFFE
FFFFFFF00000000000000FFFFFFE
FFFFFFF00000000000000FFFFFFE
FFFFFFF00000000000001FFFFFFE
FFFFFFF00000000000003FFFFFFE
FFFFFFF00000000000007FFFFFFE
FFFFFFF0000000000000FFFFFFFE
FFFFFFF0000000000001FFFFFFFE
FFFFFFF0000000000003FFFFFFFE
FFFFFFF0000000000007FFFFFFFE
FFFFFFF000000000000FFFFFFFFE
FFFFFFF000000000001FFFFFFFFE
FFFFFFF000000000003FFFFFFFFE
FFFFFFF000000000007FFFFFFFFC
FFFFFFFFFFFFFFFFFFFFFFFFFFF8
FFFFFFFFFFFFFFFFFFFFFFFFFFF0
FFFFFFFFFFFFFFFFFFFFFFFFFFE0
FFFFFFFFFFFFFFFFFFFFFFFFFFC0
FFFFFFFFFFFFFFFFFFFFFFFFFF80
FFFFFFFFFFFFFFFFFFFFFFFFFF00
FFFFFFFFFFFFFFFFFFFFFFFFFE00
FFFFFFFFFFFFFFFFFFFFFFFFFC00
FFFFFFFFFFFFFFFFFFFFFFFFF800
FFFFFFFFFFFFFFFFFFFFFFFFF000
FFFFFFFFFFFFFFFFFFFFFFFFE000
FFFFFFFFFFFFFFFFFFFFFFFFC000
FFFFFFFFFFFFFFFFFFFFFFFF8000
FFFFFFFFFFFFFFFFFFFFFFFF8000
FFFFFFFFFFFFFFFFFFFFFFFFC000
FFFFFFFFFFFFFFFFFFFFFFFFE000
FFFFFFFFFFFFFFFFFFFFFFFFF000
FFFFFFFFFFFFFFFFFFFFFFFFF800
FFFFFFFFFFFFFFFFFFFFFFFFFC00
FFFFFFFFFFFFFFFFFFFFFFFFFE00
FFFFFFFFFFFFFFFFFFFFFFFFFF00
FFFFFFFFFFFFFFFFFFFFFFFFFF80
FFFFFFFFFFFFFFFFFFFFFFFFFFC0
FFFFFFFFFFFFFFFFFFFFFFFFFFE0
FFFFFFFFFFFFFFFFFFFFFFFFFFF0
FFFFFFFFFFFFFFFFFFFFFFFFFFF8
FFFFFFFFFFFFFFFFFFFFFFFFFFFC
FFFFFFF000000000003FFFFFFFFE
FFFFFFF000000000001FFFFFFFFE
FFFFFFF000000000000FFFFFFFFE
FFFFFFF0000000000007FFFFFFFE
FFFFFFF0000000000003FFFFFFFE
FFFFFFF0000000000001FFFFFFFE
FFFFFFF0000000000000FFFFFFFE
FFFFFFF00000000000007FFFFFFE
FFFFFFF00000000000003FFFFFFE
FFFFFFF00000000000001FFFFFFE
FFFFFFF00000000000000FFFFFFE
FFFFFFF00000000000000FFFFFFE
FFFFFFF00000000000000FFFFFFE
FFFFFFF00000000000000FFFFFFE
FFFFFFF00000000000000FFFFFFE
FFFFFFF00000000000000FFFFFFE
FFFFFFF00000000000000FFFFFFE
FFFFFFF00000000000000FFFFFFE
FFFFFFF00000000000000FFFFFFE
FFFFFFF00000000000000FFFFFFE
FFFFFFF00000000000000FFFFFFE
FFFFFFF00000000000000FFFFFFE
FFFFFFF00000000000000FFFFFFE
FFFFFFF00000000000000FFFFFFE
FFFFFFFFFFFFFFFFFFFFFFFFFFFE
FFFFFFFFFFFFFFFFFFFFFFFFFFFE
FFFFFFFFFFFFFFFFFFFFFFFFFFFE
FFFFFFFFFFFFFFFFFFFFFFFFFFFE
FFFFFFFFFFFFFFFFFFFFFFFFFFFE
FFFFFFFFFFFFFFFFFFFFFFFFFFFE
FFFFFFFFFFFFFFFFFFFFFFFFFFFC
FFFFFFFFFFFFFFFFFFFFFFFFFFF8
FFFFFFFFFFFFFFFFFFFFFFFFFFF0
FFFFFFFFFFFFFFFFFFFFFFFFFFE0
FFFFFFFFFFFFFFFFFFFFFFFFFFC0
FFFFFFFFFFFFFFFFFFFFFFFFFF80
FFFFFFFFFFFFFFFFFFFFFFFFFF00
FFFFFFFFFFFFFFFFFFFFFFFFFE00
FFFFFFFFFFFFFFFFFFFFFFFFFC00
FFFFFFFFFFFFFFFFFFFFFFFFF800
FFFFFFFFFFFFFFFFFFFFFFFFF000
FFFFFFFFFFFFFFFFFFFFFFFFE000
FFFFFFFFFFFFFFFFFFFFFFFFC000
FFFFFFFFFFFFFFFFFFFFFFFF8000
FFFFFFFFFFFFFFFFFFFFFFFF0000
FFFFFFFFFFFFFFFFFFFFFFFE0000
FFFFFFFFFFFFFFFFFFFFFFFC0000
FFFFFFFFFFFFFFFFFFFFFFF80000
FFFFFFFFFFFFFFFFFFFFFFF00000
FFFFFFFFFFFFFFFFFFFFFFE00000
FFFFFFFFFFFFFFFFFFFFFFC00000
ENDCHAR
STARTCHAR 0043
ENCODING 67
SWIDTH 676 0
DWIDTH 115 0
BBX 111 130 2 0
BITMAP
000003FFFFFFFFFFFFFFFF800000
000007FFFFFFFFFFFFFFFFC00000
00000FFFFFFFFFFFFFFFFFE00000
00001FFFFFFFFFFFFFFFFFF00000
00003FFFFFFFFFFFFFFFFFF80000
00007FFFFFFFFFFFFFFFFFFC0000
0000FFFFFFFFFFFFFFFFFFFE0000
0001FFFFFFFFFFFFFFFFFFFF0000
0003FFFFFFFFFFFFFFFFFFFF8000
0007FFFFFFFFFFFFFFFFFFFFC000
000FFFFFFFFFFFFFFFFFFFFFE000
001FFFFFFFFFFFFFFFFFFFFFF000
003FFFFFFFFFFFFFFFFFFFFFF800
007FFFFFFFFFFFFFFFFFFFFFFC00
00FFFFFFFFFFFFFFFFFFFFFFFE00
01FFFFFFFFFFFFFFFFFFFFFFFF00
03FFFFFFFFFFFFFFFFFFFFFFFF80
07FFFFFFFFFFFFFFFFFFFFFFFFC0
0FFFFFFFFFFFFFFFFFFFFFFFFFE0
1FFFFFFFFFFFFFFFFFFFFFFFFFF0
3FFFFFFFFFFFFFFFFFFFFFFFFFF8
7FFFFFFFFFFFFFFFFFFFFFFFFFFC
FFFFFFFFFFFFFFFFFFFFFFFFFFFE
FFFFFFFFFFFFFFFFFFFFFFFFFFFE
FFFFFFFFFFFFFFFFFFFFFFFFFFFE
FFFFFFFFFFFFFFFFFFFFFFFFFFFE
FFFFFFFFFFFFFFFFFFFFFFFFFFFE
FFFFFFFFFFFFFFFFFFFFFFFFFFFE
FFFFFFF00000000000000FFFFFFE
FFFFFFF00000000000000FFFFFFE
FFFFFFF00000000000000FFFFFFE
FFFFFFF00000000000000FFFFFFE
FFFFFFF00000000000000FFFFFFE
FFFFFFF00000000000000FFFFFFE
FFFFFFF00000000000000FFFFFFE
FFFFFFF00000000000000FFFFFFE
FFFFFFF00000000000000FFFFFFE
FFFFFFF00000000000000FFFFFFE
FFFFFFF00000000000000FFFFFFE
FFFFFFF00000000000000FFFFFFE
FFFFFFF00000000000000FFFFFFE
FFFFFFF00000000000000FFFFFFE
FFFFFFF00000000000000FFFFFFE
FFFFFFF00000000000000FFFFFFE
FFFFFFF00000000000000FFFFFFE
FFFFFFF00000000000000FFFFFFE
FFFFFFF00000000000000FFFFFFE
FFFFFFF000000000000000000000
FFFFFFF000000000000000000000
FFFFFFF000000000000000000000
FFFFFFF000000000000000000000
FFFFFFF000000000000000000000
FFFFFFF000000000000000000000
FFFFFFF000000000000000000000
FFFFFFF000000000000000000000
FFFFFFF000000000000000000000
FFFFFFF000000000000000000000
FFFFFFF000000000000000000000
FFFFFFF000000000000000000000
FFFFFFF000000000000000000000
FFFFFFF000000000000000000000
FFFFFFF000000000000000000000
FFFFFFF000000000000000000000
FFFFFFF000000000000000000000
FFFFFFF000000000000000000000
FFFFFFF000000000000000000000
FFFFFFF000000000000000000000
FFFFFFF000000000000000000000
FFFFFFF000000000000000000000
FFFFFFF000000000000000000000
FFFFFFF000000000000000000000
FFFFFFF000000000000000000000
FFFFFFF000000000000000000000
FFFFFFF000000000000000000000
FFFFFFF000000000000000000000
FFFFFFF000000000000000000000
FFFFFFF000000000000000000000
FFFFFFF000000000000000000000
FFFFFFF000000000000000000000
FFFFFFF000000000000000000000
FFFFFFF000000000000000000000
FFFFFFF000000000000000000000
FFFFFFF000000000000000000000
FFFFFFF000000000000000000000
FFFFFFF00000000000000FFFFFFE
FFFFFFF00000000000000FFFFFFE
FFFFFFF00000000000000FFFFFFE
FFFFFFF00000000000000FFFFFFE
FFFFFFF00000000000000FFFFFFE
FFFFFFF00000000000000FFFFFFE
FFFFFFF00000000000000FFFFFFE
FFFFFFF00000000000000FFFFFFE
FFFFFFF00000000000000FFFFFFE
FFFFFFF00000000000000FFFFFFE
FFFFFFF00000000000000FFFFFFE
FFFFFFF00000000000000FFFFFFE
FFFFFFF00000000000000FFFFFFE
FFFFFFF00000000000000FFFFFFE
FFFFFFF00000000000000FFFFFFE
FFFFFFF00000000000000FFFFFFE
FFFFFFF00000000000000FFFFFFE
FFFFFFF00000000000000FFFFFFE
FFFFFFF00000000000000FFFFFFE
FFFFFFFFFFFFFFFFFFFFFFFFFFFE
FFFFFFFFFFFFFFFFFFFFFFFFFFFE
FFFFFFFFFFFFFFFFFFFFFFFFFFFE
FFFFFFFFFFFFFFFFFFFFFFFFFFFE
FFFFFFFFFFFFFFFFFFFFFFFFFFFE
FFFFFFFFFFFFFFFFFFFFFFFFFFFE
7FFFFFFFFFFFFFFFFFFFFFFFFFFC
3FFFFFFFFFFFFFFFFFFFFFFFFFF8
1FFFFFFFFFFFFFFFFFFFFFFFFFF0
0FFFFFFFFFFFFFFFFFFFFFFFFFE0
07FFFFFFFFFFFFFFFFFFFFFFFFC0
03FFFFFFFFFFFFFFFFFFFFFFFF80
01FFFFFFFFFFFFFFFFFFFFFFFF00
00FFFFFFFFFFFFFFFFFFFFFFFE00
007FFFFFFFFFFFFFFFFFFFFFFC00
003FFFFFFFFFFFFFFFFFFFFFF800
001FFFFFFFFFFFFFFFFFFFFFF000
000FFFFFFFFFFFFFFFFFFFFFE000
0007FFFFFFFFFFFFFFFFFFFFC000
0003FFFFFFFFFFFFFFFFFFFF8000
0001FFFFFFFFFFFFFFFFFFFF0000
0000FFFFFFFFFFFFFFFFFFFE0000
00007FFFFFFFFFFFFFFFFFFC0000
00003FFFFFFFFFFFFFFFFFF80000
00001FFFFFFFFFFFFFFFFFF00000
00000FFFFFFFFFFFFFFFFFE00000
000007FFFFFFFFFFFFFFFFC00000
ENDCHAR
STARTCHAR 0044
ENCODING 68
SWIDTH 676 0
DWIDTH 115 0
BBX 111 130 2 0
BITMAP
FFFFFFFFFFFFFFFFFFFFFF800000
FFFFFFFFFFFFFFFFFFFFFFC00000
FFFFFFFFFFFFFFFFFFFFFFE00000
FFFFFFFFFFFFFFFFFFFFFFF00000
FFFFFFFFFFFFFFFFFFFFFFF80000
FFFFFFFFFFFFFFFFFFFFFFFC0000
FFFFFFFFFFFFFFFFFFFFFFFE0000
FFFFFFFFFFFFFFFFFFFFFFFF0000
FFFFFFFFFFFFFFFFFFFFFFFF8000
FFFFFFFFFFFFFFFFFFFFFFFFC000
FFFFFFFFFFFFFFFFFFFFFFFFE000
FFFFFFFFFFFFFFFFFFFFFFFFF000
FFFFFFFFFFFFFFFFFFFFFFFFF800
FFFFFFFFFFFFFFFFFFFFFFFFFC00
FFFFFFFFFFFFFFFFFFFFFFFFFE00
FFFFFFFFFFFFFFFFFFFFFFFFFF00
FFFFFFFFFFFFFFFFFFFFFFFFFF80
FFFFFFFFFFFFFFFFFFFFFFFFFFC0
FFFFFFFFFFFFFFFFFFFFFFFFFFE0
FFFFFFFFFFFFFFFFFFFFFFFFFFF0
FFFFFFFFFFFFFFFFFFFFFFFFFFF8
FFFFFFFFFFFFFFFFFFFFFFFFFFFC
FFFFFFFFFFFFFFFFFFFFFFFFFFFE
FFFFFFFFFFFFFFFFFFFFFFFFFFFE
FFFFFFFFFFFFFFFFFFFFFFFFFFFE
FFFFFFFFFFFFFFFFFFFFFFFFFFFE
FFFFFFFFFFFFFFFFFFFFFFFFFFFE
FFFFFFFFFFFFFFFFFFFFFFFFFFFE
FFFFFFF00000000000000FFFFFFE
FFFFFFF00000000000000FFFFFFE
FFFFFFF00000000000000FFFFFFE
FFFFFFF00000000000000FFFFFFE
FFFFFFF00000000000000FFFFFFE
FFFFFFF00000000000000FFFFFFE
FFFFFFF00000000000000FFFFFFE
FFFFFFF00000000000000FFFFFFE
FFFFFFF00000000000000FFFFFFE
FFFFFFF00000000000000FFFFFFE
FFFFFFF00000000000000FFFFFFE
FFFFFFF00000000000000FFFFFFE
FFFFFFF00000000000000FFFFFFE
FFFFFFF00000000000000FFFFFFE
FFFFFFF00000000000000FFFFFFE
FFFFFFF00000000000000FFFFFFE
FFFFFFF00000000000000FFFFFFE
FFFFFFF00000000000000FFFFFFE
FFFFFFF00000000000000FFFFFFE
FFFFFFF00000000000000FFFFFFE
FFFFFFF00000000000000FFFFFFE
FFFFFFF00000000000000FFFFFFE
FFFFFFF00000000000000FFFFFFE
FFFFFFF00000000000000FFFFFFE
FFFFFFF00000000000000FFFFFFE
FFFFFFF00000000000000FFFFFFE
FFFFFFF00000000000000FFFFFFE
FFFFFFF00000000000000FFFFFFE
FFFFFFF00000000000000FFFFFFE
FFFFFFF00000000000000FFFFFFE
FFFFFFF00000000000000FFFFFFE
FFFFFFF00000000000000FFFFFFE
FFFFFFF00000000000000FFFFFFE
FFFFFFF00000000000000FFFFFFE
FFFFFFF00000000000000FFFFFFE
FFFFFFF00000000000000FFFFFFE
FFFFFFF00000000000000FFFFFFE
FFFFFFF00000000000000FFFFFFE
FFFFFFF00000000000000FFFFFFE
FFFFFFF00000000000000FFFFFFE
FFFFFFF00000000000000FFFFFFE
FFFFFFF00000000000000FFFFFFE
FFFFFFF00000000000000FFFFFFE
FFFFFFF00000000000000FFFFFFE
FFFFFFF00000000000000FFFFFFE
FFFFFFF00000000000000FFFFFFE
FFFFFFF00000000000000FFFFFFE
FFFFFFF00000000000000FFFFFFE
FFFFFFF00000000000000FFFFFFE
FFFFFFF00000000000000FFFFFFE
FFFFFFF00000000000000FFFFFFE
FFFFFFF00000000000000FFFFFFE
FFFFFFF00000000000000FFFFFFE
FFFFFFF00000000000000FFFFFFE
FFFFFFF00000000000000FFFFFFE
FFFFFFF00000000000000FFFFFFE
FFFFFFF00000000000000FFFFFFE
FFFFFFF00000000000000FFFFFFE
FFFFFFF00000000000000FFFFFFE
FFFFFFF00000000000000FFFFFFE
FFFFFFF00000000000000FFFFFFE
FFFFFFF00000000000000FFFFFFE
FFFFFFF00000000000000FFFFFFE
FFFFFFF00000000000000FFFFFFE
FFFFFFF00000000000000FFFFFFE
FFFFFFF00000000000000FFFFFFE
FFFFFFF00000000000000FFFFFFE
FFFFFFF00000000000000FFFFFFE
FFFFFFF00000000000000FFFFFFE
FFFFFFF00000000000000FFFFFFE
FFFFFFF00000000000000FFFFFFE
FFFFFFF00000000000000FFFFFFE
FFFFFFF00000000000000FFFFFFE
FFFFFFF00000000000000FFFFFFE
FFFFFFF00000000000000FFFFFFE
FFFFFFFFFFFFFFFFFFFFFFFFFFFE
FFFFFFFFFFFFFFFFFFFFFFFFFFFE
FFFFFFFFFFFFFFFFFFFFFFFFFFFE
FFFFFFFFFFFFFFFFFFFFFFFFFFFE
FFFFFFFFFFFFFFFFFFFFFFFFFFFE
FFFFFFFFFFFFFFFFFFFFFFFFFFFE
FFFFFFFFFFFFFFFFFFFFFFFFFFFC
FFFFFFFFFFFFFFFFFFFFFFFFFFF8
FFFFFFFFFFFFFFFFFFFFFFFFFFF0
FFFFFFFFFFFFFFFFFFFFFFFFFFE0
FFFFFFFFFFFFFFFFFFFFFFFFFFC0
FFFFFFFFFFFFFFFFFFFFFFFFFF80
FFFFFFFFFFFFFFFFFFFFFFFFFF00
FFFFFFFFFFFFFFFFFFFFFFFFFE00
FFFFFFFFFFFFFFFFFFFFFFFFFC00
FFFFFFFFFFFFFFFFFFFFFFFFF800
FFFFFFFFFFFFFFFFFFFFFFFFF000
FFFFFFFFFFFFFFFFFFFFFFFFE000
FFFFFFFFFFFFFFFFFFFFFFFFC000
FFFFFFFFFFFFFFFFFFFFFFFF8000
FFFFFFFFFFFFFFFFFFFFFFFF0000
FFFFFFFFFFFFFFFFFFFFFFFE0000
FFFFFFFFFFFFFFFFFFFFFFFC0000
FFFFFFFFFFFFFFFFFFFFFFF80000
FFFFFFFFFFFFFFFFFFFFFFF00000
FFFFFFFFFFFFFFFFFFFFFFE00000
FFFFFFFFFFFFFFFFFFFFFFC00000
ENDCHAR
STARTCHAR 0045
ENCODING 69
SWIDTH 600 0
DWIDTH 102 0
BBX 98 130 2 0
BITMAP
FFFFFFFFFFFFFFFFFFFFFFFFC0
FFFFFFFFFFFFFFFFFFFFFFFFC0
FFFFFFFFFFFFFFFFFFFFFFFFC0
FFFFFFFFFFFFFFFFFFFFFFFFC0
FFFFFFFFFFFFFFFFFFFFFFFFC0
FFFFFFFFFFFFFFFFFFFFFFFFC0
FFFFFFFFFFFFFFFFFFFFFFFFC0
FFFFFFFFFFFFFFFFFFFFFFFFC0
FFFFFFFFFFFFFFFFFFFFFFFFC0
FFFFFFFFFFFFFFFFFFFFFFFFC0
FFFFFFFFFFFFFFFFFFFFFFFFC0
FFFFFFFFFFFFFFFFFFFFFFFFC0
FFFFFFFFFFFFFFFFFFFFFFFFC0
FFFFFFFFFFFFFFFFFFFFFFFFC0
FFFFFFFFFFFFFFFFFFFFFFFFC0
FFFFFFFFFFFFFFFFFFFFFFFFC0
FFFFFFFFFFFFFFFFFFFFFFFFC0
FFFFFFFFFFFFFFFFFFFFFFFFC0
FFFFFFFFFFFFFFFFFFFFFFFFC0
FFFFFFFFFFFFFFFFFFFFFFFFC0
FFFFFFFFFFFFFFFFFFFFFFFFC0
FFFFFFFFFFFFFFFFFFFFFFFFC0
FFFFFFFFFFFFFFFFFFFFFFFFC0
FFFFFFFFFFFFFFFFFFFFFFFFC0
FFFFFFFFFFFFFFFFFFFFFFFFC0
FFFFFFFFFFFFFFFFFFFFFFFFC0
FFFFFFFFFFFFFFFFFFFFFFFFC0
FFFFFFFFFFFFFFFFFFFFFFFFC0
FFFFFFF0000000000000000000
FFFFFFF0000000000000000000
FFFFFFF0000000000000000000
FFFFFFF0000000000000000000
FFFFFFF0000000000000000000
FFFFFFF0000000000000000000
FFFFFFF0000000000000000000
FFFFFFF0000000000000000000
FFFFFFF0000000000000000000
FFFFFFF0000000000000000000
FFFFFFF0000000000000000000
FFFFFFF0000000000000000000
FFFFFFF0000000000000000000
FFFFFFF0000000000000000000
FFFFFFF0000000000000000000
FFFFFFF0000000000000000000
FFFFFFF0000000000000000000
FFFFFFF0000000000000000000
FFFFFFF0000000000000000000
FFFFFFF0000000000000000000
FFFFFFF0000000000000000000
FFFFFFF0000000000000000000
FFFFFFF0000000000000000000
FFFFFFF0000000000000000000
FFFFFFFFFFFFFFFFFFFFFFFFC0
FFFFFFFFFFFFFFFFFFFFFFFFC0
FFFFFFFFFFFFFFFFFFFFFFFFC0
FFFFFFFFFFFFFFFFFFFFFFFFC0
FFFFFFFFFFFFFFFFFFFFFFFFC0
FFFFFFFFFFFFFFFFFFFFFFFFC0
FFFFFFFFFFFFFFFFFFFFFFFFC0
FFFFFFFFFFFFFFFFFFFFFFFFC0
FFFFFFFFFFFFFFFFFFFFFFFFC0
FFFFFFFFFFFFFFFFFFFFFFFFC0
FFFFFFFFFFFFFFFFFFFFFFFFC0
FFFFFFFFFFFFFFFFFFFFFFFFC0
FFFFFFFFFFFFFFFFFFFFFFFFC0
FFFFFFFFFFFFFFFFFFFFFFFFC0
FFFFFFFFFFFFFFFFFFFFFFFFC0
FFFFFFFFFFFFFFFFFFFFFFFFC0
FFFFFFFFFFFFFFFFFFFFFFFFC0
FFFFFFFFFFFFFFFFFFFFFFFFC0
FFFFFFFFFFFFFFFFFFFFFFFFC0
FFFFFFFFFFFFFFFFFFFFFFFFC0
FFFFFFFFFFFFFFFFFFFFFFFFC0
FFFFFFFFFFFFFFFFFFFFFFFFC0
FFFFFFFFFFFFFFFFFFFFFFFFC0
FFFFFFFFFFFFFFFFFFFFFFFFC0
FFFFFFFFFFFFFFFFFFFFFFFFC0
FFFFFFFFFFFFFFFFFFFFFFFFC0
FFFFFFFFFFFFFFFFFFFFFFFFC0
FFFFFFF0000000000000000000
FFFFFFF0000000000000000000
FFFFFFF0000000000000000000
FFFFFFF0000000000000000000
FFFFFFF0000000000000000000
FFFFFFF0000000000000000000
FFFFFFF0000000000000000000
FFFFFFF0000000000000000000
FFFFFFF0000000000000000000
FFFFFFF0000000000000000000
FFFFFFF0000000000000000000
FFFFFFF0000000000000000000
FFFFFFF0000000000000000000
FFFFFFF0000000000000000000
FFFFFFF0000000000000000000
FFFFFFF0000000000000000000
FFFFFFF0000000000000000000
FFFFFFF0000000000000000000
FFFFFFF0000000000000000000
FFFFFFF0000000000000000000
FFFFFFF0000000000000000000
FFFFFFF0000000000000000000
FFFFFFF0000000000000000000
FFFFFFF0000000000000000000
FFFFFFFFFFFFFFFFFFFFFFFFC0
FFFFFFFFFFFFFFFFFFFFFFFFC0
FFFFFFFFFFFFFFFFFFFFFFFFC0
FFFFFFFFFFFFFFFFFFFFFFFFC0
FFFFFFFFFFFFFFFFFFFFFFFFC0
FFFFFFFFFFFFFFFFFFFFFFFFC0
FFFFFFFFFFFFFFFFFFFFFFFFC0
FFFFFFFFFFFFFFFFFFFFFFFFC0
FFFFFFFFFFFFFFFFFFFFFFFFC0
FFFFFFFFFFFFFFFFFFFFFFFFC0
FFFFFFFFFFFFFFFFFFFFFFFFC0
FFFFFFFFFFFFFFFFFFFFFFFFC0
FFFFFFFFFFFFFFFFFFFFFFFFC0
FFFFFFFFFFFFFFFFFFFFFFFFC0
FFFFFFFFFFFFFFFFFFFFFFFFC0
FFFFFFFFFFFFFFFFFFFFFFFFC0
FFFFFFFFFFFFFFFFFFFFFFFFC0
FFFFFFFFFFFFFFFFFFFFFFFFC0
FFFFFFFFFFFFFFFFFFFFFFFFC0
FFFFFFFFFFFFFFFFFFFFFFFFC0
FFFFFFFFFFFFFFFFFFFFFFFFC0
FFFFFFFFFFFFFFFFFFFFFFFFC0
FFFFFFFFFFFFFFFFFFFFFFFFC0
FFFFFFFFFFFFFFFFFFFFFFFFC0
FFFFFFFFFFFFFFFFFFFFFFFFC0
FFFFFFFFFFFFFFFFFFFFFFFFC0
FFFFFFFFFFFFFFFFFFFFFFFFC0
ENDCHAR
STARTCHAR 0046
ENCODING 70
SWIDTH 564 0
DWIDTH 96 0
BBX 92 130 2 0
BITMAP
FFFFFFFFFFFFFFFFFFFFFFF0
FFFFFFFFFFFFFFFFFFFFFFF0
FFFFFFFFFFFFFFFFFFFFFFF0
FFFFFFFFFFFFFFFFFFFFFFF0
FFFFFFFFFFFFFFFFFFFFFFF0
FFFFFFFFFFFFFFFFFFFFFFF0
FFFFFFFFFFFFFFFFFFFFFFF0
FFFFFFFFFFFFFFFFFFFFFFF0
FFFFFFFFFFFFFFFFFFFFFFF0
FFFFFFFFFFFFFFFFFFFFFFF0
FFFFFFFFFFFFFFFFFFFFFFF0
FFFFFFFFFFFFFFFFFFFFFFF0
FFFFFFFFFFFFFFFFFFFFFFF0
FFFFFFFFFFFFFFFFFFFFFFF0
FFFFFFFFFFFFFFFFFFFFFFF0
FFFFFFFFFFFFFFFFFFFFFFF0
FFFFFFFFFFFFFFFFFFFFFFF0
FFFFFFFFFFFFFFFFFFFFFFF0
FFFFFFFFFFFFFFFFFFFFFFF0
FFFFFFFFFFFFFFFFFFFFFFF0
FFFFFFFFFFFFFFFFFFFFFFF0
FFFFFFFFFFFFFFFFFFFFFFF0
FFFFFFFFFFFFFFFFFFFFFFF0
FFFFFFFFFFFFFFFFFFFFFFF0
FFFFFFFFFFFFFFFFFFFFFFF0
FFFFFFFFFFFFFFFFFFFFFFF0
FFFFFFFFFFFFFFFFFFFFFFF0
FFFFFFFFFFFFFFFFFFFFFFF0
FFFFFFF00000000000000000
FFFFFFF00000000000000000
FFFFFFF00000000000000000
FFFFFFF00000000000000000
FFFFFFF00000000000000000
FFFFFFF00000000000000000
FFFFFFF00000000000000000
FFFFFFF00000000000000000
FFFFFFF00000000000000000
FFFFFFF00000000000000000
FFFFFFF00000000000000000
FFFFFFF00000000000000000
FFFFFFF00000000000000000
FFFFFFF00000000000000000
FFFFFFF00000000000000000
FFFFFFF00000000000000000
FFFFFFF00000000000000000
FFFFFFF00000000000000000
FFFFFFF00000000000000000
FFFFFFF00000000000000000
FFFFFFF00000000000000000
FFFFFFF00000000000000000
FFFFFFF00000000000000000
FFFFFFF00000000000000000
FFFFFFFFFFFFFFFFFFFFFFF0
FFFFFFFFFFFFFFFFFFFFFFF0
FFFFFFFFFFFFFFFFFFFFFFF0
FFFFFFFFFFFFFFFFFFFFFFF0
FFFFFFFFFFFFFFFFFFFFFFF0
FFFFFFFFFFFFFFFFFFFFFFF0
FFFFFFFFFFFFFFFFFFFFFFF0
FFFFFFFFFFFFFFFFFFFFFFF0
FFFFFFFFFFFFFFFFFFFFFFF0
FFFFFFFFFFFFFFFFFFFFFFF0
FFFFFFFFFFFFFFFFFFFFFFF0
FFFFFFFFFFFFFFFFFFFFFFF0
FFFFFFFFFFFFFFFFFFFFFFF0
FFFFFFFFFFFFFFFFFFFFFFF0
FFFFFFFFFFFFFFFFFFFFFFF0
FFFFFFFFFFFFFFFFFFFFFFF0
FFFFFFFFFFFFFFFFFFFFFFF0
FFFFFFFFFFFFFFFFFFFFFFF0
FFFFFFFFFFFFFFFFFFFFFFF0
FFFFFFFFFFFFFFFFFFFFFFF0
FFFFFFFFFFFFFFFFFFFFFFF0
FFFFFFFFFFFFFFFFFFFFFFF0
FFFFFFFFFFFFFFFFFFFFFFF0
FFFFFFFFFFFFFFFFFFFFFFF0
FFFFFFFFFFFFFFFFFFFFFFF0
FFFFFFFFFFFFFFFFFFFFFFF0
FFFFFFFFFFFFFFFFFFFFFFF0
FFFFFFF00000000000000000
FFFFFFF00000000000000000
FFFFFFF00000000000000000
FFFFFFF00000000000000000
FFFFFFF00000000000000000
FFFFFFF00000000000000000
FFFFFFF00000000000000000
FFFFFFF00000000000000000
FFFFFFF00000000000000000
FFFFFFF00000000000000000
FFFFFFF00000000000000000
FFFFFFF00000000000000000
FFFFFFF00000000000000000
FFFFFFF00000000000000000
FFFFFFF00000000000000000
FFFFFFF00000000000000000
FFFFFFF00000000000000000
FFFFFFF00000000000000000
FFFFFFF00000000000000000
FFFFFFF00000000000000000
FFFFFFF00000000000000000
FFFFFFF00000000000000000
FFFFFFF00000000000000000
FFFFFFF00000000000000000
FFFFFFF00000000000000000
FFFFFFF00000000000000000
FFFFFFF00000000000000000
FFFFFFF00000000000000000
FFFFFFF00000000000000000
FFFFFFF00000000000000000
FFFFFFF00000000000000000
FFFFFFF00000000000000000
FFFFFFF00000000000000000
FFFFFFF00000000000000000
FFFFFFF00000000000000000
FFFFFFF00000000000000000
FFFFFFF00000000000000000
FFFFFFF00000000000000000
FFFFFFF00000000000000000
FFFFFFF00000000000000000
FFFFFFF00000000000000000
FFFFFFF00000000000000000
FFFFFFF00000000000000000
FFFFFFF00000000000000000
FFFFFFF00000000000000000
FFFFFFF00000000000000000
FFFFFFF00000000000000000
FFFFFFF00000000000000000
FFFFFFF00000000000000000
FFFFFFF00000000000000000
FFFFFFF00000000000000000
ENDCHAR
STARTCHAR 0047
ENCODING 71
SWIDTH 676 0
DWIDTH 115 0
BBX 111 130 2 0
BITMAP
000003FFFFFFFFFFFFFFFF800000
000007FFFFFFFFFFFFFFFFC00000
00000FFFFFFFFFFFFFFFFFE00000
00001FFFFFFFFFFFFFFFFFF00000
00003FFFFFFFFFFFFFFFFFF80000
00007FFFFFFFFFFFFFFFFFFC0000
0000FFFFFFFFFFFFFFFFFFFE0000
0001FFFFFFFFFFFFFFFFFFFF0000
0003FFFFFFFFFFFFFFFFFFFF8000
0007FFFFFFFFFFFFFFFFFFFFC000
000FFFFFFFFFFFFFFFFFFFFFE000
001FFFFFFFFFFFFFFFFFFFFFF000
003FFFFFFFFFFFFFFFFFFFFFF800
007FFFFFFFFFFFFFFFFFFFFFFC00
00FFFFFFFFFFFFFFFFFFFFFFFE00
01FFFFFFFFFFFFFFFFFFFFFFFF00
03FFFFFFFFFFFFFFFFFFFFFFFF80
07FFFFFFFFFFFFFFFFFFFFFFFFC0
0FFFFFFFFFFFFFFFFFFFFFFFFFE0
1FFFFFFFFFFFFFFFFFFFFFFFFFF0
3FFFFFFFFFFFFFFFFFFFFFFFFFF8
7FFFFFFFFFFFFFFFFFFFFFFFFFFC
FFFFFFFFFFFFFFFFFFFFFFFFFFFE
FFFFFFFFFFFFFFFFFFFFFFFFFFFE
FFFFFFFFFFFFFFFFFFFFFFFFFFFE
FFFFFFFFFFFFFFFFFFFFFFFFFFFE
FFFFFFFFFFFFFFFFFFFFFFFFFFFE
FFFFFFFFFFFFFFFFFFFFFFFFFFFE
FFFFFFF00000000000000FFFFFFE
FFFFFFF00000000000000FFFFFFE
FFFFFFF00000000000000FFFFFFE
FFFFFFF00000000000000FFFFFFE
FFFFFFF00000000000000FFFFFFE
FFFFFFF00000000000000FFFFFFE
FFFFFFF00000000000000FFFFFFE
FFFFFFF00000000000000FFFFFFE
FFFFFFF00000000000000FFFFFFE
FFFFFFF00000000000000FFFFFFE
FFFFFFF00000000000000FFFFFFE
FFFFFFF00000000000000FFFFFFE
FFFFFFF00000000000000FFFFFFE
FFFFFFF00000000000000FFFFFFE
FFFFFFF00000000000000FFFFFFE
FFFFFFF00000000000000FFFFFFE
FFFFFFF00000000000000FFFFFFE
FFFFFFF00000000000000FFFFFFE
FFFFFFF00000000000000FFFFFFE
FFFFFFF000000000000000000000
FFFFFFF000000000000000000000
FFFFFFF000000000000000000000
FFFFFFF000000000000000000000
FFFFFFF000000000000000000000
FFFFFFF000000000000000000000
FFFFFFF000000000000000000000
FFFFFFF000000000000000000000
FFFFFFF000000000000000000000
FFFFFFF000000000000000000000
FFFFFFF000000000000000000000
FFFFFFF00000003FFFFFFFFFFFFE
FFFFFFF00000003FFFFFFFFFFFFE
FFFFFFF00000003FFFFFFFFFFFFE
FFFFFFF00000003FFFFFFFFFFFFE
FFFFFFF00000003FFFFFFFFFFFFE
FFFFFFF00000003FFFFFFFFFFFFE
FFFFFFF00000003FFFFFFFFFFFFE
FFFFFFF00000003FFFFFFFFFFFFE
FFFFFFF00000003FFFFFFFFFFFFE
FFFFFFF00000003FFFFFFFFFFFFE
FFFFFFF00000003FFFFFFFFFFFFE
FFFFFFF00000003FFFFFFFFFFFFE
FFFFFFF00000003FFFFFFFFFFFFE
FFFFFFF00000003FFFFFFFFFFFFE
FFFFFFF00000003FFFFFFFFFFFFE
FFFFFFF00000003FFFFFFFFFFFFE
FFFFFFF00000003FFFFFFFFFFFFE
FFFFFFF00000003FFFFFFFFFFFFE
FFFFFFF00000003FFFFFFFFFFFFE
FFFFFFF00000003FFFFFFFFFFFFE
FFFFFFF00000003FFFFFFFFFFFFE
FFFFFFF00000003FFFFFFFFFFFFE
FFFFFFF00000003FFFFFFFFFFFFE
FFFFFFF00000003FFFFFFFFFFFFE
FFFFFFF00000003FFFFFFFFFFFFE
FFFFFFF00000003FFFFFFFFFFFFE
FFFFFFF00000003FFFFFFFFFFFFE
FFFFFFF00000000000000FFFFFFE
FFFFFFF00000000000000FFFFFFE
FFFFFFF00000000000000FFFFFFE
FFFFFFF00000000000000FFFFFFE
FFFFFFF00000000000000FFFFFFE
FFFFFFF00000000000000FFFFFFE
FFFFFFF00000000000000FFFFFFE
FFFFFFF00000000000000FFFFFFE
FFFFFFF00000000000000FFFFFFE
FFFFFFF00000000000000FFFFFFE
FFFFFFF00000000000000FFFFFFE
FFFFFFF00000000000000FFFFFFE
FFFFFFF00000000000000FFFFFFE
FFFFFFF00000000000000FFFFFFE
FFFFFFF00000000000000FFFFFFE
FFFFFFF00000000000000FFFFFFE
FFFFFFF00000000000000FFFFFFE
FFFFFFF00000000000000FFFFFFE
FFFFFFFFFFFFFFFFFFFFFFFFFFFE
FFFFFFFFFFFFFFFFFFFFFFFFFFFE
FFFFFFFFFFFFFFFFFFFFFFFFFFFE
FFFFFFFFFFFFFFFFFFFFFFFFFFFE
FFFFFFFFFFFFFFFFFFFFFFFFFFFE
FFFFFFFFFFFFFFFFFFFFFFFFFFFE
7FFFFFFFFFFFFFFFFFFFFFFFFFFC
3FFFFFFFFFFFFFFFFFFFFFFFFFF8
1FFFFFFFFFFFFFFFFFFFFFFFFFF0
0FFFFFFFFFFFFFFFFFFFFFFFFFE0
07FFFFFFFFFFFFFFFFFFFFFFFFC0
03FFFFFFFFFFFFFFFFFFFFFFFF80
01FFFFFFFFFFFFFFFFFFFFFFFF00
00FFFFFFFFFFFFFFFFFFFFFFFE00
007FFFFFFFFFFFFFFFFFFFFFFC00
003FFFFFFFFFFFFFFFFFFFFFF800
001FFFFFFFFFFFFFFFFFFFFFF000
000FFFFFFFFFFFFFFFFFFFFFE000
0007FFFFFFFFFFFFFFFFFFFFC000
0003FFFFFFFFFFFFFFFFFFFF8000
0001FFFFFFFFFFFFFFFFFFFF0000
0000FFFFFFFFFFFFFFFFFFFE0000
00007FFFFFFFFFFFFFFFFFFC0000
00003FFFFFFFFFFFFFFFFFF80000
00001FFFFFFFFFFFFFFFFFF00000
00000FFFFFFFFFFFFFFFFFE00000
000007FFFFFFFFFFFFFFFFC00000
ENDCHAR
STARTCHAR 0048
ENCODING 72
SWIDTH 641 0
DWIDTH 109 0
BBX 104 130 2 0
BITMAP
FFFFFFF0000000000007FFFFFF
FFFFFFF0000000000007FFFFFF
FFFFFFF0000000000007FFFFFF
FFFFFFF0000000000007FFFFFF
FFFFFFF0000000000007FFFFFF
FFFFFFF0000000000007FFFFFF
FFFFFFF0000000000007FFFFFF
FFFFFFF0000000000007FFFFFF
FFFFFFF0000000000007FFFFFF
FFFFFFF0000000000007FFFFFF
FFFFFFF0000000000007FFFFFF
FFFFFFF0000000000007FFFFFF
FFFFFFF0000000000007FFFFFF
FFFFFFF0000000000007FFFFFF
FFFFFFF0000000000007FFFFFF
FFFFFFF0000000000007FFFFFF
FFFFFFF0000000000007FFFFFF
FFFFFFF0000000000007FFFFFF
FFFFFFF0000000000007FFFFFF
FFFFFFF0000000000007FFFFFF
FFFFFFF0000000000007FFFFFF
FFFFFFF0000000000007FFFFFF
FFFFFFF0000000000007FFFFFF
FFFFFFF0000000000007FFFFFF
FFFFFFF0000000000007FFFFFF
FFFFFFF0000000000007FFFFFF
FFFFFFF0000000000007FFFFFF
FFFFFFF0000000000007FFFFFF
FFFFFFF0000000000007FFFFFF
FFFFFFF0000000000007FFFFFF
FFFFFFF0000000000007FFFFFF
FFFFFFF0000000000007FFFFFF
FFFFFFF0000000000007FFFFFF
FFFFFFF0000000000007FFFFFF
FFFFFFF0000000000007FFFFFF
FFFFFFF0000000000007FFFFFF
FFFFFFF0000000000007FFFFFF
FFFFFFF0000000000007FFFFFF
FFFFFFF0000000000007FFFFFF
FFFFFFF0000000000007FFFFFF
FFFFFFF0000000000007FFFFFF
FFFFFFF0000000000007FFFFFF
FFFFFFF0000000000007FFFFFF
FFFFFFF0000000000007FFFFFF
FFFFFFF0000000000007FFFFFF
FFFFFFF0000000000007FFFFFF
FFFFFFF0000000000007FFFFFF
FFFFFFF0000000000007FFFFFF
FFFFFFF0000000000007FFFFFF
FFFFFFF0000000000007FFFFFF
FFFFFFF0000000000007FFFFFF
FFFFFFF0000000000007FFFFFF
FFFFFFFFFFFFFFFFFFFFFFFFFF
FFFFFFFFFFFFFFFFFFFFFFFFFF
FFFFFFFFFFFFFFFFFFFFFFFFFF
FFFFFFFFFFFFFFFFFFFFFFFFFF
FFFFFFFFFFFFFFFFFFFFFFFFFF
FFFFFFFFFFFFFFFFFFFFFFFFFF
FFFFFFFFFFFFFFFFFFFFFFFFFF
FFFFFFFFFFFFFFFFFFFFFFFFFF
FFFFFFFFFFFFFFFFFFFFFFFFFF
FFFFFFFFFFFFFFFFFFFFFFFFFF
FFFFFFFFFFFFFFFFFFFFFFFFFF
FFFFFFFFFFFFFFFFFFFFFFFFFF
FFFFFFFFFFFFFFFFFFFFFFFFFF
FFFFFFFFFFFFFFFFFFFFFFFFFF
FFFFFFFFFFFFFFFFFFFFFFFFFF
FFFFFFFFFFFFFFFFFFFFFFFFFF
FFFFFFFFFFFFFFFFFFFFFFFFFF
FFFFFFFFFFFFFFFFFFFFFFFFFF
FFFFFFFFFFFFFFFFFFFFFFFFFF
FFFFFFFFFFFFFFFFFFFFFFFFFF
FFFFFFFFFFFFFFFFFFFFFFFFFF
FFFFFFFFFFFFFFFFFFFFFFFFFF
FFFFFFFFFFFFFFFFFFFFFFFFFF
FFFFFFFFFFFFFFFFFFFFFFFFFF
FFFFFFFFFFFFFFFFFFFFFFFFFF
FFFFFFFFFFFFFFFFFFFFFFFFFF
FFFFFFFFFFFFFFFFFFFFFFFFFF
FFFFFFF0000000000007FFFFFF
FFFFFFF0000000000007FFFFFF
FFFFFFF0000000000007FFFFFF
FFFFFFF0000000000007FFFFFF
FFFFFFF0000000000007FFFFFF
FFFFFFF0000000000007FFFFFF
FFFFFFF0000000000007FFFFFF
FFFFFFF0000000000007FFFFFF
FFFFFFF0000000000007FFFFFF
FFFFFFF0000000000007FFFFFF
FFFFFFF0000000000007FFFFFF
FFFFFFF0000000000007FFFFFF
FFFFFFF0000000000007FFFFFF
FFFFFFF0000000000007FFFFFF
FFFFFFF0000000000007FFFFFF
FFFFFFF0000000000007FFFFFF
FFFFFFF0000000000007FFFFFF
FFFFFFF0000000000007FFFFFF
FFFFFFF0000000000007FFFFFF
FFFFFFF0000000000007FFFFFF
FFFFFFF0000000000007FFFFFF
FFFFFFF0000000000007FFFFFF
FFFFFFF0000000000007FFFFFF
FFFFFFF0000000000007FFFFFF
FFFFFFF0000000000007FFFFFF
FFFFFFF0000000000007FFFFFF
FFFFFFF0000000000007FFFFFF
FFFFFFF0000000000007FFFFFF
FFFFFFF0000000000007FFFFFF
FFFFFFF0000000000007FFFFFF
FFFFFFF0000000000007FFFFFF
FFFFFFF0000000000007FFFFFF
FFFFFFF0000000000007FFFFFF
FFFFFFF0000000000007FFFFFF
FFFFFFF0000000000007FFFFFF
FFFFFFF0000000000007FFFFFF
FFFFFFF0000000000007FFFFFF
FFFFFFF0000000000007FFFFFF
FFFFFFF0000000000007FFFFFF
FFFFFFF0000000000007FFFFFF
FFFFFFF0000000000007FFFFFF
FFFFFFF0000000000007FFFFFF
FFFFFFF0000000000007FFFFFF
FFFFFFF0000000000007FFFFFF
FFFFFFF0000000000007FFFFFF
FFFFFFF0000000000007FFFFFF
FFFFFFF0000000000007FFFFFF
FFFFFFF0000000000007FFFFFF
FFFFFFF0000000000007FFFFFF
FFFFFFF0000000000007FFFFFF
FFFFFFF0000000000007FFFFFF
ENDCHAR
STARTCHAR 0049
ENCODING 73
SWIDTH 188 0
DWIDTH 32 0
BBX 28 130 2 0
BITMAP
FFFFFFF0
FFFFFFF0
FFFFFFF0
FFFFFFF0
FFFFFFF0
FFFFFFF0
FFFFFFF0
FFFFFFF0
FFFFFFF0
FFFFFFF0
FFFFFFF0
FFFFFFF0
FFFFFFF0
FFFFFFF0
FFFFFFF0
FFFFFFF0
FFFFFFF0
FFFFFFF0
FFFFFFF0
FFFFFFF0
FFFFFFF0
FFFFFFF0
FFFFFFF0
FFFFFFF0
FFFFFFF0
FFFFFFF0
FFFFFFF0
FFFFFFF0
FFFFFFF0
FFFFFFF0
FFFFFFF0
FFFFFFF0
FFFFFFF0
FFFFFFF0
FFFFFFF0
FFFFFFF0
FFFFFFF0
FFFFFFF0
FFFFFFF0
FFFFFFF0
FFFFFFF0
FFFFFFF0
FFFFFFF0
FFFFFFF0
FFFFFFF0
FFFFFFF0
FFFFFFF0
FFFFFFF0
FFFFFFF0
FFFFFFF0
FFFFFFF0
FFFFFFF0
FFFFFFF0
FFFFFFF0
FFFFFFF0
FFFFFFF0
FFFFFFF0
FFFFFFF0
FFFFFFF0
FFFFFFF0
FFFFFFF0
FFFFFFF0
FFFFFFF0
FFFFFFF0
FFFFFFF0
FFFFFFF0
FFFFFFF0
FFFFFFF0
FFFFFFF0
FFFFFFF0
FFFFFFF0
FFFFFFF0
FFFFFFF0
FFFFFFF0
FFFFFFF0
FFFFFFF0
FFFFFFF0
FFFFFFF0
FFFFFFF0
FFFFFFF0
FFFFFFF0
FFFFFFF0
FFFFFFF0
FFFFFFF0
FFFFFFF0
FFFFFFF0
FFFFFFF0
FFFFFFF0
FFFFFFF0
FFFFFFF0
FFFFFFF0
FFFFFFF0
FFFFFFF0
FFFFFFF0
FFFFFFF0
FFFFFFF0
FFFFFFF0
FFFFFFF0
FFFFFFF0
FFFFFFF0
FFFFFFF0
FFFFFFF0
FFFFFFF0
FFFFFFF0
FFFFFFF0
FFFFFFF0
FFFFFFF0
FFFFFFF0
FFFFFFF0
FFFFFFF0
FFFFFFF0
FFFFFFF0
FFFFFFF0
FFFFFFF0
FFFFFFF0
FFFFFFF0
FFFFFFF0
FFFFFFF0
FFFFFFF0
FFFFFFF0
FFFFFFF0
FFFFFFF0
FFFFFFF0
FFFFFFF0
FFFFFFF0
FFFFFFF0
FFFFFFF0
FFFFFFF0
FFFFFFF0
FFFFFFF0
ENDCHAR
STARTCHAR 004A
ENCODING 74
SWIDTH 600 0
DWIDTH 102 0
BBX 98 130 2 0
BITMAP
000000000007FFFFFFFFFFFFC0
000000000007FFFFFFFFFFFFC0
000000000007FFFFFFFFFFFFC0
000000000007FFFFFFFFFFFFC0
000000000007FFFFFFFFFFFFC0
000000000007FFFFFFFFFFFFC0
000000000007FFFFFFFFFFFFC0
000000000007FFFFFFFFFFFFC0
000000000007FFFFFFFFFFFFC0
000000000007FFFFFFFFFFFFC0
000000000007FFFFFFFFFFFFC0
000000000007FFFFFFFFFFFFC0
000000000007FFFFFFFFFFFFC0
000000000007FFFFFFFFFFFFC0
000000000007FFFFFFFFFFFFC0
000000000007FFFFFFFFFFFFC0
000000000007FFFFFFFFFFFFC0
000000000007FFFFFFFFFFFFC0
000000000007FFFFFFFFFFFFC0
000000000007FFFFFFFFFFFFC0
000000000007FFFFFFFFFFFFC0
000000000007FFFFFFFFFFFFC0
000000000007FFFFFFFFFFFFC0
000000000007FFFFFFFFFFFFC0
000000000007FFFFFFFFFFFFC0
000000000007FFFFFFFFFFFFC0
000000000007FFFFFFFFFFFFC0
000000000007FFFFFFFFFFFFC0
000000000000000001FFFFFFC0
000000000000000001FFFFFFC0
000000000000000001FFFFFFC0
000000000000000001FFFFFFC0
000000000000000001FFFFFFC0
000000000000000001FFFFFFC0
000000000000000001FFFFFFC0
000000000000000001FFFFFFC0
000000000000000001FFFFFFC0
000000000000000001FFFFFFC0
000000000000000001FFFFFFC0
000000000000000001FFFFFFC0
000000000000000001FFFFFFC0
000000000000000001FFFFFFC0
000000000000000001FFFFFFC0
000000000000000001FFFFFFC0
000000000000000001FFFFFFC0
000000000000000001FFFFFFC0
000000000000000001FFFFFFC0
000000000000000001FFFFFFC0
000000000000000001FFFFFFC0
000000000000000001FFFFFFC0
000000000000000001FFFFFFC0
000000000000000001FFFFFFC0
000000000000000001FFFFFFC0
000000000000000001FFFFFFC0
000000000000000001FFFFFFC0
000000000000000001FFFFFFC0
000000000000000001FFFFFFC0
000000000000000001FFFFFFC0
000000000000000001FFFFFFC0
000000000000000001FFFFFFC0
000000000000000001FFFFFFC0
000000000000000001FFFFFFC0
000000000000000001FFFFFFC0
000000000000000001FFFFFFC0
000000000000000001FFFFFFC0
000000000000000001FFFFFFC0
000000000000000001FFFFFFC0
000000000000000001FFFFFFC0
000000000000000001FFFFFFC0
000000000000000001FFFFFFC0
000000000000000001FFFFFFC0
000000000000000001FFFFFFC0
000000000000000001FFFFFFC0
000000000000000001FFFFFFC0
000000000000000001FFFFFFC0
000000000000000001FFFFFFC0
000000000000000001FFFFFFC0
000000000000000001FFFFFFC0
000000000000000001FFFFFFC0
000000000000000001FFFFFFC0
000000000000000001FFFFFFC0
000000000000000001FFFFFFC0
000000000000000001FFFFFFC0
000000000000000001FFFFFFC0
FFFFFFF00000000001FFFFFFC0
FFFFFFF00000000001FFFFFFC0
FFFFFFF00000000001FFFFFFC0
FFFFFFF00000000001FFFFFFC0
FFFFFFF00000000001FFFFFFC0
FFFFFFF00000000001FFFFFFC0
FFFFFFF00000000001FFFFFFC0
FFFFFFF00000000001FFFFFFC0
FFFFFFF00000000001FFFFFFC0
FFFFFFF00000000001FFFFFFC0
FFFFFFF00000000001FFFFFFC0
FFFFFFF00000000001FFFFFFC0
FFFFFFF00000000001FFFFFFC0
FFFFFFF00000000001FFFFFFC0
FFFFFFF00000000001FFFFFFC0
FFFFFFF00000000001FFFFFFC0
FFFFFFF00000000001FFFFFFC0
FFFFFFF00000000001FFFFFFC0
FFFFFFF00000000001FFFFFFC0
FFFFFFFFFFFFFFFFFFFFFFFFC0
FFFFFFFFFFFFFFFFFFFFFFFFC0
FFFFFFFFFFFFFFFFFFFFFFFFC0
FFFFFFFFFFFFFFFFFFFFFFFFC0
FFFFFFFFFFFFFFFFFFFFFFFFC0
FFFFFFFFFFFFFFFFFFFFFFFFC0
7FFFFFFFFFFFFFFFFFFFFFFF80
3FFFFFFFFFFFFFFFFFFFFFFF00
1FFFFFFFFFFFFFFFFFFFFFFE00
0FFFFFFFFFFFFFFFFFFFFFFC00
07FFFFFFFFFFFFFFFFFFFFF800
03FFFFFFFFFFFFFFFFFFFFF000
01FFFFFFFFFFFFFFFFFFFFE000
00FFFFFFFFFFFFFFFFFFFFC000
007FFFFFFFFFFFFFFFFFFF8000
003FFFFFFFFFFFFFFFFFFF0000
001FFFFFFFFFFFFFFFFFFE0000
000FFFFFFFFFFFFFFFFFFC0000
0007FFFFFFFFFFFFFFFFF80000
0003FFFFFFFFFFFFFFFFF00000
0001FFFFFFFFFFFFFFFFE00000
0000FFFFFFFFFFFFFFFFC00000
00007FFFFFFFFFFFFFFF800000
00003FFFFFFFFFFFFFFF000000
00001FFFFFFFFFFFFFFE000000
00000FFFFFFFFFFFFFFC000000
000007FFFFFFFFFFFFF8000000
ENDCHAR
STARTCHAR 004B
ENCODING 75
SWIDTH 641 0
DWIDTH 109 0
BBX 104 130 2 0
BITMAP
FFFFFFF0000000000000FFFFFF
FFFFFFF0000000000001FFFFFF
FFFFFFF0000000000003FFFFFF
FFFFFFF0000000000007FFFFFF
FFFFFFF000000000000FFFFFFF
FFFFFFF000000000001FFFFFFF
FFFFFFF000000000003FFFFFFF
FFFFFFF000000000007FFFFFFF
FFFFFFF00000000000FFFFFFFF
FFFFFFF00000000001FFFFFFFF
FFFFFFF00000000003FFFFFFFF
FFFFFFF0000000000FFFFFFFFF
FFFFFFF0000000001FFFFFFFFF
FFFFFFF0000000003FFFFFFFFE
FFFFFFF0000000007FFFFFFFFC
FFFFFFF000000000FFFFFFFFF8
FFFFFFF000000001FFFFFFFFF0
FFFFFFF000000003FFFFFFFFE0
FFFFFFF000000007FFFFFFFFC0
FFFFFFF00000000FFFFFFFFF80
FFFFFFF00000001FFFFFFFFF00
FFFFFFF00000003FFFFFFFFE00
FFFFFFF00000007FFFFFFFFC00
FFFFFFF0000000FFFFFFFFF800
FFFFFFF0000001FFFFFFFFF000
FFFFFFF0000003FFFFFFFFE000
FFFFFFF0000007FFFFFFFFC000
FFFFFFF000000FFFFFFFFF8000
FFFFFFF000001FFFFFFFFF0000
FFFFFFF000003FFFFFFFFE0000
FFFFFFF000007FFFFFFFFC0000
FFFFFFF00000FFFFFFFFF80000
FFFFFFF00001FFFFFFFFF00000
FFFFFFF00003FFFFFFFFE00000
FFFFFFF00007FFFFFFFFC00000
FFFFFFF0000FFFFFFFFF800000
FFFFFFF0001FFFFFFFFF000000
FFFFFFF0003FFFFFFFFE000000
FFFFFFF0007FFFFFFFFC000000
FFFFFFF000FFFFFFFFF8000000
FFFFFFF001FFFFFFFFF0000000
FFFFFFF003FFFFFFFFE0000000
FFFFFFF007FFFFFFFFC0000000
FFFFFFF00FFFFFFFFF80000000
FFFFFFF01FFFFFFFFF00000000
FFFFFFF03FFFFFFFFE00000000
FFFFFFF07FFFFFFFFC00000000
FFFFFFF0FFFFFFFFF800000000
FFFFFFF1FFFFFFFFF000000000
FFFFFFF3FFFFFFFFE000000000
FFFFFFF7FFFFFFFFC000000000
FFFFFFFFFFFFFFFF8000000000
FFFFFFFFFFFFFFFF0000000000
FFFFFFFFFFFFFFFE0000000000
FFFFFFFFFFFFFFFC0000000000
FFFFFFFFFFFFFFF80000000000
FFFFFFFFFFFFFFF00000000000
FFFFFFFFFFFFFFE00000000000
FFFFFFFFFFFFFFC00000000000
FFFFFFFFFFFFFF800000000000
FFFFFFFFFFFFFF000000000000
FFFFFFFFFFFFFE000000000000
FFFFFFFFFFFFFC000000000000
FFFFFFFFFFFFF8000000000000
FFFFFFFFFFFFF0000000000000
FFFFFFFFFFFFF0000000000000
FFFFFFFFFFFFF8000000000000
FFFFFFFFFFFFFC000000000000
FFFFFFFFFFFFFE000000000000
FFFFFFFFFFFFFF000000000000
FFFFFFFFFFFFFF800000000000
FFFFFFFFFFFFFFC00000000000
FFFFFFFFFFFFFFE00000000000
FFFFFFFFFFFFFFF00000000000
FFFFFFFFFFFFFFF80000000000
FFFFFFFFFFFFFFFC0000000000
FFFFFFFFFFFFFFFE0000000000
FFFFFFFFFFFFFFFF0000000000
FFFFFFFFFFFFFFFF8000000000
FFFFFFF7FFFFFFFFC000000000
FFFFFFF3FFFFFFFFE000000000
FFFFFFF1FFFFFFFFF000000000
FFFFFFF0FFFFFFFFF800000000
FFFFFFF07FFFFFFFFC00000000
FFFFFFF03FFFFFFFFE00000000
FFFFFFF01FFFFFFFFF00000000
FFFFFFF00FFFFFFFFF80000000
FFFFFFF007FFFFFFFFC0000000
FFFFFFF003FFFFFFFFE0000000
FFFFFFF001FFFFFFFFF0000000
FFFFFFF000FFFFFFFFF8000000
FFFFFFF0007FFFFFFFFC000000
FFFFFFF0003FFFFFFFFE000000
FFFFFFF0001FFFFFFFFF000000
FFFFFFF0000FFFFFFFFF800000
FFFFFFF00007FFFFFFFFC00000
FFFFFFF00003FFFFFFFFE00000
FFFFFFF00001FFFFFFFFF00000
FFFFFFF00000FFFFFFFFF80000
FFFFFFF000007FFFFFFFFC0000
FFFFFFF000003FFFFFFFFE0000
FFFFFFF000001FFFFFFFFF0000
FFFFFFF000000FFFFFFFFF8000
FFFFFFF0000007FFFFFFFFC000
FFFFFFF0000003FFFFFFFFE000
FFFFFFF0000001FFFFFFFFF000
FFFFFFF0000000FFFFFFFFF800
FFFFFFF00000007FFFFFFFFC00
FFFFFFF00000003FFFFFFFFE00
FFFFFFF00000001FFFFFFFFF00
FFFFFFF00000000FFFFFFFFF80
FFFFFFF000000007FFFFFFFFC0
FFFFFFF000000003FFFFFFFFE0
FFFFFFF000000001FFFFFFFFF0
FFFFFFF000000000FFFFFFFFF8
FFFFFFF0000000007FFFFFFFFC
FFFFFFF0000000003FFFFFFFFE
FFFFFFF0000000001FFFFFFFFF
FFFFFFF0000000000FFFFFFFFF
FFFFFFF00000000007FFFFFFFF
FFFFFFF00000000003FFFFFFFF
FFFFFFF00000000001FFFFFFFF
FFFFFFF00000000000FFFFFFFF
FFFFFFF000000000007FFFFFFF
FFFFFFF000000000003FFFFFFF
FFFFFFF000000000001FFFFFFF
FFFFFFF000000000000FFFFFFF
FFFFFFF0000000000007FFFFFF
FFFFFFF0000000000003FFFFFF
FFFFFFF0000000000001FFFFFF
ENDCHAR
STARTCHAR 004C
ENCODING 76
SWIDTH 529 0
DWIDTH 90 0
BBX 85 130 2 0
BITMAP
FFFFFFF000000000000000
FFFFFFF000000000000000
FFFFFFF000000000000000
FFFFFFF000000000000000
FFFFFFF000000000000000
FFFFFFF000000000000000
FFFFFFF000000000000000
FFFFFFF000000000000000
FFFFFFF000000000000000
FFFFFFF000000000000000
FFFFFFF000000000000000
FFFFFFF000000000000000
FFFFFFF000000000000000
FFFFFFF000000000000000
FFFFFFF000000000000000
FFFFFFF000000000000000
FFFFFFF000000000000000
FFFFFFF000000000000000
FFFFFFF000000000000000
FFFFFFF000000000000000
FFFFFFF000000000000000
FFFFFFF000000000000000
FFFFFFF000000000000000
FFFFFFF000000000000000
FFFFFFF000000000000000
FFFFFFF000000000000000
FFFFFFF000000000000000
FFFFFFF000000000000000
FFFFFFF000000000000000
FFFFFFF000000000000000
FFFFFFF000000000000000
FFFFFFF000000000000000
FFFFFFF000000000000000
FFFFFFF000000000000000
FFFFFFF000000000000000
FFFFFFF000000000000000
FFFFFFF000000000000000
FFFFFFF000000000000000
FFFFFFF000000000000000
FFFFFFF000000000000000
FFFFFFF000000000000000
FFFFFFF000000000000000
FFFFFFF000000000000000
FFFFFFF000000000000000
FFFFFFF000000000000000
FFFFFFF000000000000000
FFFFFFF000000000000000
FFFFFFF000000000000000
FFFFFFF000000000000000
FFFFFFF000000000000000
FFFFFFF000000000000000
FFFFFFF000000000000000
FFFFFFF000000000000000
FFFFFFF000000000000000
FFFFFFF000000000000000
FFFFFFF000000000000000
FFFFFFF000000000000000
FFFFFFF000000000000000
FFFFFFF000000000000000
FFFFFFF000000000000000
FFFFFFF000000000000000
FFFFFFF000000000000000
FFFFFFF000000000000000
FFFFFFF000000000000000
FFFFFFF000000000000000
FFFFFFF000000000000000
FFFFFFF000000000000000
FFFFFFF000000000000000
FFFFFFF000000000000000
FFFFFFF000000000000000
FFFFFFF000000000000000
FFFFFFF000000000000000
FFFFFFF000000000000000
FFFFFFF000000000000000
FFFFFFF000000000000000
FFFFFFF000000000000000
FFFFFFF000000000000000
FFFFFFF000000000000000
FFFFFFF000000000000000
FFFFFFF000000000000000
FFFFFFF000000000000000
FFFFFFF000000000000000
FFFFFFF000000000000000
FFFFFFF000000000000000
FFFFFFF000000000000000
FFFFFFF000000000000000
FFFFFFF000000000000000
FFFFFFF000000000000000
FFFFFFF000000000000000
FFFFFFF000000000000000
FFFFFFF000000000000000
FFFFFFF000000000000000
FFFFFFF000000000000000
FFFFFFF000000000000000
FFFFFFF000000000000000
FFFFFFF000000000000000
FFFFFFF000000000000000
FFFFFFF000000000000000
FFFFFFF000000000000000
FFFFFFF000000000000000
FFFFFFF000000000000000
FFFFFFF000000000000000
FFFFFFF000000000000000
FFFFFFFFFFFFFFFFFFFFF8
FFFFFFFFFFFFFFFFFFFFF8
FFFFFFFFFFFFFFFFFFFFF8
FFFFFFFFFFFFFFFFFFFFF8
FFFFFFFFFFFFFFFFFFFFF8
FFFFFFFFFFFFFFFFFFFFF8
FFFFFFFFFFFFFFFFFFFFF8
FFFFFFFFFFFFFFFFFFFFF8
FFFFFFFFFFFFFFFFFFFFF8
FFFFFFFFFFFFFFFFFFFFF8
FFFFFFFFFFFFFFFFFFFFF8
FFFFFFFFFFFFFFFFFFFFF8
FFFFFFFFFFFFFFFFFFFFF8
FFFFFFFFFFFFFFFFFFFFF8
FFFFFFFFFFFFFFFFFFFFF8
FFFFFFFFFFFFFFFFFFFFF8
FFFFFFFFFFFFFFFFFFFFF8
FFFFFFFFFFFFFFFFFFFFF8
FFFFFFFFFFFFFFFFFFFFF8
FFFFFFFFFFFFFFFFFFFFF8
FFFFFFFFFFFFFFFFFFFFF8
FFFFFFFFFFFFFFFFFFFFF8
FFFFFFFFFFFFFFFFFFFFF8
FFFFFFFFFFFFFFFFFFFFF8
FFFFFFFFFFFFFFFFFFFFF8
FFFFFFFFFFFFFFFFFFFFF8
FFFFFFFFFFFFFFFFFFFFF8
ENDCHAR
STARTCHAR 004D
ENCODING 77
SWIDTH 788 0
DWIDTH 134 0
BBX 130 130 2 0
BITMAP
FFF800000000000000000000000003FFC0
FFFC00000000000000000000000007FFC0
FFFE0000000000000000000000000FFFC0
FFFF0000000000000000000000001FFFC0
FFFF8000000000000000000000003FFFC0
FFFFC000000000000000000000007FFFC0
FFFFE00000000000000000000000FFFFC0
FFFFF00000000000000000000001FFFFC0
FFFFF80000000000000000000003FFFFC0
FFFFFC0000000000000000000007FFFFC0
FFFFFE000000000000000000000FFFFFC0
FFFFFF000000000000000000001FFFFFC0
FFFFFF800000000000000000003FFFFFC0
FFFFFFC00000000000000000007FFFFFC0
FFFFFFE0000000000000000000FFFFFFC0
FFFFFFF0000000000000000001FFFFFFC0
FFFFFFF8000000000000000003FFFFFFC0
FFFFFFFC000000000000000007FFFFFFC0
FFFFFFFE00000000000000000FFFFFFFC0
FFFFFFFF00000000000000001FFFFFFFC0
FFFFFFFF80000000000000003FFFFFFFC0
FFFFFFFFC0000000000000007FFFFFFFC0
FFFFFFFFE000000000000000FFFFFFFFC0
FFFFFFFFF000000000000001FFFFFFFFC0
FFFFFFFFF800000000000003FFFFFFFFC0
FFFFFFFFFC00000000000007FFFFFFFFC0
FFFFFFFFFE0000000000000FFFFFFFFFC0
FFFFFFFFFF0000000000001FFFFFFFFFC0
FFFFFFFFFF8000000000003FFFFFFFFFC0
FFFFFFFFFFC000000000007FFFFFFFFFC0
FFFFFFFFFFE00000000000FFFFFFFFFFC0
FFFFFFFFFFF00000000001FFFFFFFFFFC0
FFFFFFFFFFF80000000003FFFFFFFFFFC0
FFFFFFFFFFFC0000000007FFFFFFFFFFC0
FFFFFFFFFFFE000000000FFFFFFFFFFFC0
FFFFFFFFFFFF000000001FFFFFFFFFFFC0
FFFFFFFFFFFF800000003FFFFFFFFFFFC0
FFFFFFFFFFFFC00000007FFFFFFFFFFFC0
FFFFFFFFFFFFE0000000FFFFFFFFFFFFC0
FFFFFFFFFFFFF0000001FFFFFFFFFFFFC0
FFFFFFFFFFFFF8000003FFFFFFFFFFFFC0
FFFFFFFFFFFFFC000007FFFFFFFFFFFFC0
FFFFFFFFFFFFFE00000FFFFFFFFFFFFFC0
FFFFFFFFFFFFFF00001FFFFFFFFFFFFFC0
FFFFFFFFFFFFFF80003FFFFFFFFFFFFFC0
FFFFFFFFFFFFFFC0007FFFFFFFFFFFFFC0
FFFFFFFFFFFFFFE000FFFFFFFFFFFFFFC0
FFFFFFFFFFFFFFF001FFFFFFFFFFFFFFC0
FFFFFFFFFFFFFFF803FFFFFFFFFFFFFFC0
FFFFFFFFFFFFFFFC07FFFFFFFFFFFFFFC0
FFFFFFFFFFFFFFFE0FFFFFFFFFFFFFFFC0
FFFFFFFFFFFFFFFF1FFFFFFFFFFFFFFFC0
FFFFFFFFFFFFFFFFBFFFFFFFFFFFFFFFC0
FFFFFFF7FFFFFFFFFFFFFFFFFDFFFFFFC0
FFFFFFF3FFFFFFFFFFFFFFFFF9FFFFFFC0
FFFFFFF1FFFFFFFFFFFFFFFFF1FFFFFFC0
FFFFFFF0FFFFFFFFFFFFFFFFE1FFFFFFC0
FFFFFFF07FFFFFFFFFFFFFFFC1FFFFFFC0
FFFFFFF03FFFFFFFFFFFFFFF81FFFFFFC0
FFFFFFF01FFFFFFFFFFFFFFF01FFFFFFC0
FFFFFFF00FFFFFFFFFFFFFFE01FFFFFFC0
FFFFFFF007FFFFFFFFFFFFFC01FFFFFFC0
FFFFFFF003FFFFFFFFFFFFF801FFFFFFC0
FFFFFFF001FFFFFFFFFFFFF001FFFFFFC0
FFFFFFF000FFFFFFFFFFFFE001FFFFFFC0
FFFFFFF0007FFFFFFFFFFFC001FFFFFFC0
FFFFFFF0003FFFFFFFFFFF8001FFFFFFC0
FFFFFFF0001FFFFFFFFFFF0001FFFFFFC0
FFFFFFF0000FFFFFFFFFFE0001FFFFFFC0
FFFFFFF00007FFFFFFFFFC0001FFFFFFC0
FFFFFFF00003FFFFFFFFF80001FFFFFFC0
FFFFFFF00001FFFFFFFFF00001FFFFFFC0
FFFFFFF00000FFFFFFFFE00001FFFFFFC0
FFFFFFF000007FFFFFFFC00001FFFFFFC0
FFFFFFF000003FFFFFFF800001FFFFFFC0
FFFFFFF000001FFFFFFF000001FFFFFFC0
FFFFFFF000000FFFFFFE000001FFFFFFC0
FFFFFFF000000FFFFFFE000001FFFFFFC0
FFFFFFF000000FFFFFFE000001FFFFFFC0
FFFFFFF000000FFFFFFE000001FFFFFFC0
FFFFFFF000000FFFFFFE000001FFFFFFC0
FFFFFFF000000FFFFFFE000001FFFFFFC0
FFFFFFF000000FFFFFFE000001FFFFFFC0
FFFFFFF000000FFFFFFE000001FFFFFFC0
FFFFFFF000000FFFFFFE000001FFFFFFC0
FFFFFFF000000FFFFFFE000001FFFFFFC0
FFFFFFF000000FFFFFFE000001FFFFFFC0
FFFFFFF000000FFFFFFE000001FFFFFFC0
FFFFFFF000000FFFFFFE000001FFFFFFC0
FFFFFFF000000FFFFFFE000001FFFFFFC0
FFFFFFF000000FFFFFFE000001FFFFFFC0
FFFFFFF000000FFFFFFE000001FFFFFFC0
FFFFFFF000000FFFFFFE000001FFFFFFC0
FFFFFFF000000FFFFFFE000001FFFFFFC0
FFFFFFF000000FFFFFFE000001FFFFFFC0
FFFFFFF000000FFFFFFE000001FFFFFFC0
FFFFFFF000000FFFFFFE000001FFFFFFC0
FFFFFFF000000FFFFFFE000001FFFFFFC0
FFFFFFF000000FFFFFFE000001FFFFFFC0
FFFFFFF000000FFFFFFE000001FFFFFFC0
FFFFFFF000000FFFFFFE000001FFFFFFC0
FFFFFFF000000FFFFFFE000001FFFFFFC0
FFFFFFF000000FFFFFFE000001FFFFFFC0
FFFFFFF000000FFFFFFE000001FFFFFFC0
FFFFFFF000000FFFFFFE000001FFFFFFC0
FFFFFFF000000FFFFFFE000001FFFFFFC0
FFFFFFF000000FFFFFFE000001FFFFFFC0
FFFFFFF000000FFFFFFE000001FFFFFFC0
FFFFFFF000000FFFFFFE000001FFFFFFC0
FFFFFFF000000FFFFFFE000001FFFFFFC0
FFFFFFF000000FFFFFFE000001FFFFFFC0
FFFFFFF000000FFFFFFE000001FFFFFFC0
FFFFFFF000000FFFFFFE000001FFFFFFC0
FFFFFFF000000FFFFFFE000001FFFFFFC0
FFFFFFF000000FFFFFFE000001FFFFFFC0
FFFFFFF000000FFFFFFE000001FFFFFFC0
FFFFFFF000000FFFFFFE000001FFFFFFC0
FFFFFFF000000FFFFFFE000001FFFFFFC0
FFFFFFF000000FFFFFFE000001FFFFFFC0
FFFFFFF000000FFFFFFE000001FFFFFFC0
FFFFFFF000000FFFFFFE000001FFFFFFC0
FFFFFFF000000FFFFFFE000001FFFFFFC0
FFFFFFF000000FFFFFFE000001FFFFFFC0
FFFFFFF000000FFFFFFE000001FFFFFFC0
FFFFFFF000000FFFFFFE000001FFFFFFC0
FFFFFFF000000FFFFFFE000001FFFFFFC0
FFFFFFF000000FFFFFFE000001FFFFFFC0
FFFFFFF000000FFFFFFE000001FFFFFFC0
FFFFFFF000000FFFFFFE000001FFFFFFC0
FFFFFFF000000FFFFFFE000001FFFFFFC0
ENDCHAR
STARTCHAR 004E
ENCODING 78
SWIDTH 717 0
DWIDTH 122 0
BBX 117 130 2 0
BITMAP
FFF80000000000000000003FFFFFF8
FFF80000000000000000003FFFFFF8
FFFC0000000000000000003FFFFFF8
FFFE0000000000000000003FFFFFF8
FFFF0000000000000000003FFFFFF8
FFFF8000000000000000003FFFFFF8
FFFFC000000000000000003FFFFFF8
FFFFE000000000000000003FFFFFF8
FFFFF000000000000000003FFFFFF8
FFFFF800000000000000003FFFFFF8
FFFFFC00000000000000003FFFFFF8
FFFFFE00000000000000003FFFFFF8
FFFFFF00000000000000003FFFFFF8
FFFFFF80000000000000003FFFFFF8
FFFFFFC0000000000000003FFFFFF8
FFFFFFE0000000000000003FFFFFF8
FFFFFFF0000000000000003FFFFFF8
FFFFFFF8000000000000003FFFFFF8
FFFFFFFC000000000000003FFFFFF8
FFFFFFFE000000000000003FFFFFF8
FFFFFFFF000000000000003FFFFFF8
FFFFFFFF800000000000003FFFFFF8
FFFFFFFFC00000000000003FFFFFF8
FFFFFFFFE00000000000003FFFFFF8
FFFFFFFFF00000000000003FFFFFF8
FFFFFFFFF80000000000003FFFFFF8
FFFFFFFFFC0000000000003FFFFFF8
FFFFFFFFFE0000000000003FFFFFF8
FFFFFFFFFF0000000000003FFFFFF8
FFFFFFFFFF8000000000003FFFFFF8
FFFFFFFFFFC000000000003FFFFFF8
FFFFFFFFFFE000000000003FFFFFF8
FFFFFFFFFFF000000000003FFFFFF8
FFFFFFFFFFF800000000003FFFFFF8
FFFFFFFFFFFC00000000003FFFFFF8
FFFFFFFFFFFE00000000003FFFFFF8
FFFFFFFFFFFF00000000003FFFFFF8
FFFFFFFFFFFF80000000003FFFFFF8
FFFFFFFFFFFFC0000000003FFFFFF8
FFFFFFFFFFFFE0000000003FFFFFF8
FFFFFFFFFFFFF0000000003FFFFFF8
FFFFFFFFFFFFF8000000003FFFFFF8
FFFFFFFFFFFFFC000000003FFFFFF8
FFFFFFFFFFFFFE000000003FFFFFF8
FFFFFFFFFFFFFF000000003FFFFFF8
FFFFFFFFFFFFFF800000003FFFFFF8
FFFFFFFFFFFFFFC00000003FFFFFF8
FFFFFFFFFFFFFFE00000003FFFFFF8
FFFFFFFFFFFFFFF00000003FFFFFF8
FFFFFFFFFFFFFFF80000003FFFFFF8
FFFFFFFFFFFFFFFC0000003FFFFFF8
FFFFFFFFFFFFFFFE0000003FFFFFF8
FFFFFFFFFFFFFFFF0000003FFFFFF8
FFFFFFF7FFFFFFFF8000003FFFFFF8
FFFFFFF3FFFFFFFFC000003FFFFFF8
FFFFFFF1FFFFFFFFE000003FFFFFF8
FFFFFFF0FFFFFFFFF000003FFFFFF8
FFFFFFF07FFFFFFFF800003FFFFFF8
FFFFFFF03FFFFFFFFC00003FFFFFF8
FFFFFFF01FFFFFFFFE00003FFFFFF8
FFFFFFF00FFFFFFFFF00003FFFFFF8
FFFFFFF007FFFFFFFF80003FFFFFF8
FFFFFFF003FFFFFFFFC0003FFFFFF8
FFFFFFF001FFFFFFFFE0003FFFFFF8
FFFFFFF000FFFFFFFFF0003FFFFFF8
FFFFFFF0007FFFFFFFF8003FFFFFF8
FFFFFFF0003FFFFFFFFC003FFFFFF8
FFFFFFF0001FFFFFFFFE003FFFFFF8
FFFFFFF0000FFFFFFFFF003FFFFFF8
FFFFFFF00007FFFFFFFF803FFFFFF8
FFFFFFF00003FFFFFFFFC03FFFFFF8
FFFFFFF00001FFFFFFFFE03FFFFFF8
FFFFFFF00000FFFFFFFFF03FFFFFF8
FFFFFFF000007FFFFFFFF83FFFFFF8
FFFFFFF000003FFFFFFFFC3FFFFFF8
FFFFFFF000001FFFFFFFFE3FFFFFF8
FFFFFFF000000FFFFFFFFF3FFFFFF8
FFFFFFF0000007FFFFFFFFBFFFFFF8
FFFFFFF0000003FFFFFFFFFFFFFFF8
FFFFFFF0000001FFFFFFFFFFFFFFF8
FFFFFFF0000000FFFFFFFFFFFFFFF8
FFFFFFF00000007FFFFFFFFFFFFFF8
FFFFFFF00000003FFFFFFFFFFFFFF8
FFFFFFF00000001FFFFFFFFFFFFFF8
FFFFFFF00000000FFFFFFFFFFFFFF8
FFFFFFF000000007FFFFFFFFFFFFF8
FFFFFFF000000003FFFFFFFFFFFFF8
FFFFFFF000000001FFFFFFFFFFFFF8
FFFFFFF000000000FFFFFFFFFFFFF8
FFFFFFF0000000007FFFFFFFFFFFF8
FFFFFFF0000000003FFFFFFFFFFFF8
FFFFFFF0000000001FFFFFFFFFFFF8
FFFFFFF0000000000FFFFFFFFFFFF8
FFFFFFF00000000007FFFFFFFFFFF8
FFFFFFF00000000003FFFFFFFFFFF8
FFFFFFF00000000001FFFFFFFFFFF8
FFFFFFF00000000000FFFFFFFFFFF8
FFFFFFF000000000007FFFFFFFFFF8
FFFFFFF000000000003FFFFFFFFFF8
FFFFFFF000000000001FFFFFFFFFF8
FFFFFFF000000000000FFFFFFFFFF8
FFFFFFF0000000000007FFFFFFFFF8
FFFFFFF0000000000003FFFFFFFFF8
FFFFFFF0000000000001FFFFFFFFF8
FFFFFFF0000000000000FFFFFFFFF8
FFFFFFF00000000000007FFFFFFFF8
FFFFFFF00000000000003FFFFFFFF8
FFFFFFF00000000000001FFFFFFFF8
FFFFFFF00000000000000FFFFFFFF8
FFFFFFF000000000000007FFFFFFF8
FFFFFFF000000000000003FFFFFFF8
FFFFFFF000000000000001FFFFFFF8
FFFFFFF000000000000000FFFFFFF8
FFFFFFF0000000000000007FFFFFF8
FFFFFFF0000000000000003FFFFFF8
FFFFFFF0000000000000001FFFFFF8
FFFFFFF0000000000000000FFFFFF8
FFFFFFF00000000000000007FFFFF8
FFFFFFF00000000000000003FFFFF8
FFFFFFF00000000000000001FFFFF8
FFFFFFF00000000000000000FFFFF8
FFFFFFF000000000000000007FFFF8
FFFFFFF000000000000000003FFFF8
FFFFFFF000000000000000001FFFF8
FFFFFFF000000000000000000FFFF8
FFFFFFF0000000000000000007FFF8
FFFFFFF0000000000000000003FFF8
FFFFFFF0000000000000000001FFF8
FFFFFFF0000000000000000000FFF8
FFFFFFF00000000000000000007FF8
ENDCHAR
STARTCHAR 004F
ENCODING 79
SWIDTH 676 0
DWIDTH 115 0
BBX 111 130 2 0
BITMAP
000003FFFFFFFFFFFFFFFF800000
000007FFFFFFFFFFFFFFFFC00000
00000FFFFFFFFFFFFFFFFFE00000
00001FFFFFFFFFFFFFFFFFF00000
00003FFFFFFFFFFFFFFFFFF80000
00007FFFFFFFFFFFFFFFFFFC0000
0000FFFFFFFFFFFFFFFFFFFE0000
0001FFFFFFFFFFFFFFFFFFFF0000
0003FFFFFFFFFFFFFFFFFFFF8000
0007FFFFFFFFFFFFFFFFFFFFC000
000FFFFFFFFFFFFFFFFFFFFFE000
001FFFFFFFFFFFFFFFFFFFFFF000
003FFFFFFFFFFFFFFFFFFFFFF800
007FFFFFFFFFFFFFFFFFFFFFFC00
00FFFFFFFFFFFFFFFFFFFFFFFE00
01FFFFFFFFFFFFFFFFFFFFFFFF00
03FFFFFFFFFFFFFFFFFFFFFFFF80
07FFFFFFFFFFFFFFFFFFFFFFFFC0
0FFFFFFFFFFFFFFFFFFFFFFFFFE0
1FFFFFFFFFFFFFFFFFFFFFFFFFF0
3FFFFFFFFFFFFFFFFFFFFFFFFFF8
7FFFFFFFFFFFFFFFFFFFFFFFFFFC
FFFFFFFFFFFFFFFFFFFFFFFFFFFE
FFFFFFFFFFFFFFFFFFFFFFFFFFFE
FFFFFFFFFFFFFFFFFFFFFFFFFFFE
FFFFFFFFFFFFFFFFFFFFFFFFFFFE
FFFFFFFFFFFFFFFFFFFFFFFFFFFE
FFFFFFFFFFFFFFFFFFFFFFFFFFFE
FFFFFFF00000000000000FFFFFFE
FFFFFFF00000000000000FFFFFFE
FFFFFFF00000000000000FFFFFFE
FFFFFFF00000000000000FFFFFFE
FFFFFFF00000000000000FFFFFFE
FFFFFFF00000000000000FFFFFFE
FFFFFFF00000000000000FFFFFFE
FFFFFFF00000000000000FFFFFFE
FFFFFFF00000000000000FFFFFFE
FFFFFFF00000000000000FFFFFFE
FFFFFFF00000000000000FFFFFFE
FFFFFFF00000000000000FFFFFFE
FFFFFFF00000000000000FFFFFFE
FFFFFFF00000000000000FFFFFFE
FFFFFFF00000000000000FFFFFFE
FFFFFFF00000000000000FFFFFFE
FFFFFFF00000000000000FFFFFFE
FFFFFFF00000000000000FFFFFFE
FFFFFFF00000000000000FFFFFFE
FFFFFFF00000000000000FFFFFFE
FFFFFFF00000000000000FFFFFFE
FFFFFFF00000000000000FFFFFFE
FFFFFFF00000000000000FFFFFFE
FFFFFFF00000000000000FFFFFFE
FFFFFFF00000000000000FFFFFFE
FFFFFFF00000000000000FFFFFFE
FFFFFFF00000000000000FFFFFFE
FFFFFFF00000000000000FFFFFFE
FFFFFFF00000000000000FFFFFFE
FFFFFFF00000000000000FFFFFFE
FFFFFFF00000000000000FFFFFFE
FFFFFFF00000000000000FFFFFFE
FFFFFFF00000000000000FFFFFFE
FFFFFFF00000000000000FFFFFFE
FFFFFFF00000000000000FFFFFFE
FFFFFFF00000000000000FFFFFFE
FFFFFFF00000000000000FFFFFFE
FFFFFFF00000000000000FFFFFFE
FFFFFFF00000000000000FFFFFFE
FFFFFFF00000000000000FFFFFFE
FFFFFFF00000000000000FFFFFFE
FFFFFFF00000000000000FFFFFFE
FFFFFFF00000000000000FFFFFFE
FFFFFFF00000000000000FFFFFFE
FFFFFFF00000000000000FFFFFFE
FFFFFFF00000000000000FFFFFFE
FFFFFFF00000000000000FFFFFFE
FFFFFFF00000000000000FFFFFFE
FFFFFFF00000000000000FFFFFFE
FFFFFFF00000000000000FFFFFFE
FFFFFFF00000000000000FFFFFFE
FFFFFFF00000000000000FFFFFFE
FFFFFFF00000000000000FFFFFFE
FFFFFFF00000000000000FFFFFFE
FFFFFFF00000000000000FFFFFFE
FFFFFFF00000000000000FFFFFFE
FFFFFFF00000000000000FFFFFFE
FFFFFFF00000000000000FFFFFFE
FFFFFFF00000000000000FFFFFFE
FFFFFFF00000000000000FFFFFFE
FFFFFFF00000000000000FFFFFFE
FFFFFFF00000000000000FFFFFFE
FFFFFFF00000000000000FFFFFFE
FFFFFFF00000000000000FFFFFFE
FFFFFFF00000000000000FFFFFFE
FFFFFFF00000000000000FFFFFFE
FFFFFFF00000000000000FFFFFFE
FFFFFFF00000000000000FFFFFFE
FFFFFFF00000000000000FFFFFFE
FFFFFFF00000000000000FFFFFFE
FFFFFFF00000000000000FFFFFFE
FFFFFFF00000000000000FFFFFFE
FFFFFFF00000000000000FFFFFFE
FFFFFFF00000000000000FFFFFFE
FFFFFFF00000000000000FFFFFFE
FFFFFFFFFFFFFFFFFFFFFFFFFFFE
FFFFFFFFFFFFFFFFFFFFFFFFFFFE
FFFFFFFFFFFFFFFFFFFFFFFFFFFE
FFFFFFFFFFFFFFFFFFFFFFFFFFFE
FFFFFFFFFFFFFFFFFFFFFFFFFFFE
FFFFFFFFFFFFFFFFFFFFFFFFFFFE
7FFFFFFFFFFFFFFFFFFFFFFFFFFC
3FFFFFFFFFFFFFFFFFFFFFFFFFF8
1FFFFFFFFFFFFFFFFFFFFFFFFFF0
0FFFFFFFFFFFFFFFFFFFFFFFFFE0
07FFFFFFFFFFFFFFFFFFFFFFFFC0
03FFFFFFFFFFFFFFFFFFFFFFFF80
01FFFFFFFFFFFFFFFFFFFFFFFF00
00FFFFFFFFFFFFFFFFFFFFFFFE00
007FFFFFFFFFFFFFFFFFFFFFFC00
003FFFFFFFFFFFFFFFFFFFFFF800
001FFFFFFFFFFFFFFFFFFFFFF000
000FFFFFFFFFFFFFFFFFFFFFE000
0007FFFFFFFFFFFFFFFFFFFFC000
0003FFFFFFFFFFFFFFFFFFFF8000
0001FFFFFFFFFFFFFFFFFFFF0000
0000FFFFFFFFFFFFFFFFFFFE0000
00007FFFFFFFFFFFFFFFFFFC0000
00003FFFFFFFFFFFFFFFFFF80000
00001FFFFFFFFFFFFFFFFFF00000
00000FFFFFFFFFFFFFFFFFE00000
000007FFFFFFFFFFFFFFFFC00000
ENDCHAR
STARTCHAR 0050
ENCODING 80
SWIDTH 600 0
DWIDTH 102 0
BBX 98 130 2 0
BITMAP
FFFFFFFFFFFFFFFFFFF0000000
FFFFFFFFFFFFFFFFFFF8000000
FFFFFFFFFFFFFFFFFFFC000000
FFFFFFFFFFFFFFFFFFFE000000
FFFFFFFFFFFFFFFFFFFF000000
FFFFFFFFFFFFFFFFFFFF800000
FFFFFFFFFFFFFFFFFFFFC00000
FFFFFFFFFFFFFFFFFFFFE00000
FFFFFFFFFFFFFFFFFFFFF00000
FFFFFFFFFFFFFFFFFFFFF80000
FFFFFFFFFFFFFFFFFFFFFC0000
FFFFFFFFFFFFFFFFFFFFFF0000
FFFFFFFFFFFFFFFFFFFFFF8000
FFFFFFFFFFFFFFFFFFFFFFC000
FFFFFFFFFFFFFFFFFFFFFFE000
FFFFFFFFFFFFFFFFFFFFFFF000
FFFFFFFFFFFFFFFFFFFFFFF800
FFFFFFFFFFFFFFFFFFFFFFFC00
FFFFFFFFFFFFFFFFFFFFFFFE00
FFFFFFFFFFFFFFFFFFFFFFFF00
FFFFFFFFFFFFFFFFFFFFFFFF80
FFFFFFFFFFFFFFFFFFFFFFFFC0
FFFFFFFFFFFFFFFFFFFFFFFFC0
FFFFFFFFFFFFFFFFFFFFFFFFC0
FFFFFFFFFFFFFFFFFFFFFFFFC0
FFFFFFFFFFFFFFFFFFFFFFFFC0
FFFFFFFFFFFFFFFFFFFFFFFFC0
FFFFFFFFFFFFFFFFFFFFFFFFC0
FFFFFFF00000000001FFFFFFC0
FFFFFFF00000000001FFFFFFC0
FFFFFFF00000000001FFFFFFC0
FFFFFFF00000000001FFFFFFC0
FFFFFFF00000000001FFFFFFC0
FFFFFFF00000000001FFFFFFC0
FFFFFFF00000000001FFFFFFC0
FFFFFFF00000000001FFFFFFC0
FFFFFFF00000000001FFFFFFC0
FFFFFFF00000000001FFFFFFC0
FFFFFFF00000000001FFFFFFC0
FFFFFFF00000000001FFFFFFC0
FFFFFFF00000000001FFFFFFC0
FFFFFFF00000000001FFFFFFC0
FFFFFFF00000000001FFFFFFC0
FFFFFFF00000000001FFFFFFC0
FFFFFFF00000000001FFFFFFC0
FFFFFFF00000000001FFFFFFC0
FFFFFFF00000000001FFFFFFC0
FFFFFFF00000000001FFFFFFC0
FFFFFFF00000000001FFFFFFC0
FFFFFFF00000000001FFFFFFC0
FFFFFFF00000000001FFFFFFC0
FFFFFFF00000000001FFFFFFC0
FFFFFFF00000000001FFFFFFC0
FFFFFFF00000000001FFFFFFC0
FFFFFFF00000000001FFFFFFC0
FFFFFFF00000000001FFFFFFC0
FFFFFFF00000000001FFFFFFC0
FFFFFFF00000000001FFFFFFC0
FFFFFFF00000000001FFFFFFC0
FFFFFFF00000000001FFFFFFC0
FFFFFFF00000000001FFFFFFC0
FFFFFFF00000000001FFFFFFC0
FFFFFFF00000000001FFFFFFC0
FFFFFFF00000000001FFFFFFC0
FFFFFFFFFFFFFFFFFFFFFFFFC0
FFFFFFFFFFFFFFFFFFFFFFFFC0
FFFFFFFFFFFFFFFFFFFFFFFFC0
FFFFFFFFFFFFFFFFFFFFFFFFC0
FFFFFFFFFFFFFFFFFFFFFFFFC0
FFFFFFFFFFFFFFFFFFFFFFFFC0
FFFFFFFFFFFFFFFFFFFFFFFF80
FFFFFFFFFFFFFFFFFFFFFFFF00
FFFFFFFFFFFFFFFFFFFFFFFE00
FFFFFFFFFFFFFFFFFFFFFFFC00
FFFFFFFFFFFFFFFFFFFFFFF800
FFFFFFFFFFFFFFFFFFFFFFF000
FFFFFFFFFFFFFFFFFFFFFFE000
FFFFFFFFFFFFFFFFFFFFFFC000
FFFFFFFFFFFFFFFFFFFFFF8000
FFFFFFFFFFFFFFFFFFFFFF0000
FFFFFFFFFFFFFFFFFFFFFE0000
FFFFFFFFFFFFFFFFFFFFFC0000
FFFFFFFFFFFFFFFFFFFFF80000
FFFFFFFFFFFFFFFFFFFFF00000
FFFFFFFFFFFFFFFFFFFFE00000
FFFFFFFFFFFFFFFFFFFFC00000
FFFFFFFFFFFFFFFFFFFF800000
FFFFFFFFFFFFFFFFFFFF000000
FFFFFFFFFFFFFFFFFFFE000000
FFFFFFFFFFFFFFFFFFFC000000
FFFFFFFFFFFFFFFFFFF8000000
FFFFFFFFFFFFFFFFFFF0000000
FFFFFFF0000000000000000000
FFFFFFF0000000000000000000
FFFFFFF0000000000000000000
FFFFFFF0000000000000000000
FFFFFFF0000000000000000000
FFFFFFF0000000000000000000
FFFFFFF0000000000000000000
FFFFFFF0000000000000000000
FFFFFFF0000000000000000000
FFFFFFF0000000000000000000
FFFFFFF0000000000000000000
FFFFFFF0000000000000000000
FFFFFFF0000000000000000000
FFFFFFF0000000000000000000
FFFFFFF0000000000000000000
FFFFFFF0000000000000000000
FFFFFFF0000000000000000000
FFFFFFF0000000000000000000
FFFFFFF0000000000000000000
FFFFFFF0000000000000000000
FFFFFFF0000000000000000000
FFFFFFF0000000000000000000
FFFFFFF0000000000000000000
FFFFFFF0000000000000000000
FFFFFFF0000000000000000000
FFFFFFF0000000000000000000
FFFFFFF0000000000000000000
FFFFFFF0000000000000000000
FFFFFFF0000000000000000000
FFFFFFF0000000000000000000
FFFFFFF0000000000000000000
FFFFFFF0000000000000000000
FFFFFFF0000000000000000000
FFFFFFF0000000000000000000
FFFFFFF0000000000000000000
FFFFFFF0000000000000000000
FFFFFFF0000000000000000000
FFFFFFF0000000000000000000
ENDCHAR
STARTCHAR 0051
ENCODING 81
SWIDTH 676 0
DWIDTH 115 0
BBX 124 149 2 -20
BITMAP
000003FFFFFFFFFFFFFFFF8000000000
000007FFFFFFFFFFFFFFFFC000000000
00000FFFFFFFFFFFFFFFFFE000000000
00001FFFFFFFFFFFFFFFFFF000000000
00003FFFFFFFFFFFFFFFFFF800000000
00007FFFFFFFFFFFFFFFFFFC00000000
0000FFFFFFFFFFFFFFFFFFFE00000000
0001FFFFFFFFFFFFFFFFFFFF00000000
0003FFFFFFFFFFFFFFFFFFFF80000000
0007FFFFFFFFFFFFFFFFFFFFC0000000
000FFFFFFFFFFFFFFFFFFFFFE0000000
001FFFFFFFFFFFFFFFFFFFFFF0000000
003FFFFFFFFFFFFFFFFFFFFFF8000000
007FFFFFFFFFFFFFFFFFFFFFFC000000
00FFFFFFFFFFFFFFFFFFFFFFFE000000
01FFFFFFFFFFFFFFFFFFFFFFFF000000
03FFFFFFFFFFFFFFFFFFFFFFFF800000
07FFFFFFFFFFFFFFFFFFFFFFFFC00000
0FFFFFFFFFFFFFFFFFFFFFFFFFE00000
1FFFFFFFFFFFFFFFFFFFFFFFFFF00000
3FFFFFFFFFFFFFFFFFFFFFFFFFF80000
7FFFFFFFFFFFFFFFFFFFFFFFFFFC0000
FFFFFFFFFFFFFFFFFFFFFFFFFFFE0000
FFFFFFFFFFFFFFFFFFFFFFFFFFFE0000
FFFFFFFFFFFFFFFFFFFFFFFFFFFE0000
FFFFFFFFFFFFFFFFFFFFFFFFFFFE0000
FFFFFFFFFFFFFFFFFFFFFFFFFFFE0000
FFFFFFFFFFFFFFFFFFFFFFFFFFFE0000
FFFFFFF00000000000000FFFFFFE0000
FFFFFFF00000000000000FFFFFFE0000
FFFFFFF00000000000000FFFFFFE0000
FFFFFFF00000000000000FFFFFFE0000
FFFFFFF00000000000000FFFFFFE0000
FFFFFFF00000000000000FFFFFFE0000
FFFFFFF00000000000000FFFFFFE0000
FFFFFFF00000000000000FFFFFFE0000
FFFFFFF00000000000000FFFFFFE0000
FFFFFFF00000000000000FFFFFFE0000
FFFFFFF00000000000000FFFFFFE0000
FFFFFFF00000000000000FFFFFFE0000
FFFFFFF00000000000000FFFFFFE0000
FFFFFFF00000000000000FFFFFFE0000
FFFFFFF00000000000000FFFFFFE0000
FFFFFFF00000000000000FFFFFFE0000
FFFFFFF00000000000000FFFFFFE0000
FFFFFFF00000000000000FFFFFFE0000
FFFFFFF00000000000000FFFFFFE0000
FFFFFFF00000000000000FFFFFFE0000
FFFFFFF00000000000000FFFFFFE0000
FFFFFFF00000000000000FFFFFFE0000
FFFFFFF00000000000000FFFFFFE0000
FFFFFFF00000000000000FFFFFFE0000
FFFFFFF00000000000000FFFFFFE0000
FFFFFFF00000000000000FFFFFFE0000
FFFFFFF00000000000000FFFFFFE0000
FFFFFFF00000000000000FFFFFFE0000
FFFFFFF00000000000000FFFFFFE0000
FFFFFFF00000000000000FFFFFFE0000
FFFFFFF00000000000000FFFFFFE0000
FFFFFFF00000000000000FFFFFFE0000
FFFFFFF00000000000000FFFFFFE0000
FFFFFFF00000000000000FFFFFFE0000
FFFFFFF00000000000000FFFFFFE0000
FFFFFFF00000000000000FFFFFFE0000
FFFFFFF00000000000000FFFFFFE0000
FFFFFFF00000000000000FFFFFFE0000
FFFFFFF00000000000000FFFFFFE0000
FFFFFFF00000000000000FFFFFFE0000
FFFFFFF00000000000000FFFFFFE0000
FFFFFFF00000000000000FFFFFFE0000
FFFFFFF00000000000000FFFFFFE0000
FFFFFFF00000000000000FFFFFFE0000
FFFFFFF00000000000000FFFFFFE0000
FFFFFFF00000000000000FFFFFFE0000
FFFFFFF00000000000000FFFFFFE0000
FFFFFFF00000000000000FFFFFFE0000
FFFFFFF00000000000000FFFFFFE0000
FFFFFFF00000000000000FFFFFFE0000
FFFFFFF00000000000000FFFFFFE0000
FFFFFFF00000000000000FFFFFFE0000
FFFFFFF00000000000000FFFFFFE0000
FFFFFFF00000000000000FFFFFFE0000
FFFFFFF00000000000000FFFFFFE0000
FFFFFFF00000000000000FFFFFFE0000
FFFFFFF00000000000000FFFFFFE0000
FFFFFFF00000000000000FFFFFFE0000
FFFFFFF00000000000000FFFFFFE0000
FFFFFFF00000000000000FFFFFFE0000
FFFFFFF00000000000000FFFFFFE0000
FFFFFFF00000000000000FFFFFFE0000
FFFFFFF00000000000000FFFFFFE0000
FFFFFFF00000000000000FFFFFFE0000
FFFFFFF00000000000000FFFFFFE0000
FFFFFFF00000000000000FFFFFFE0000
FFFFFFF00000000000000FFFFFFE0000
FFFFFFF00000000000000FFFFFFE0000
FFFFFFF00000000000000FFFFFFC0000
FFFFFFF00000000000000FFFFFF80000
FFFFFFF00000000000000FFFFFF00000
FFFFFFF00000000000000FFFFFE00000
FFFFFFF00000000000000FFFFFC00000
FFFFFFF00000000000000FFFFF800000
FFFFFFF00000000000000FFFFF000000
FFFFFFFFFFFFFFFFFFFFFFFFFE000000
FFFFFFFFFFFFFFFFFFFFFFFFFC000000
FFFFFFFFFFFFFFFFFFFFFFFFF8000000
FFFFFFFFFFFFFFFFFFFFFFFFF0000000
FFFFFFFFFFFFFFFFFFFFFFFFE0000000
FFFFFFFFFFFFFFFFFFFFFFFFC0000000
7FFFFFFFFFFFFFFFFFFFFFFF80000000
3FFFFFFFFFFFFFFFFFFFFFFF80000000
1FFFFFFFFFFFFFFFFFFFFFFFC0000000
0FFFFFFFFFFFFFFFFFFFFFFFE0000000
07FFFFFFFFFFFFFFFFFFFFFFF0000000
03FFFFFFFFFFFFFFFFFFFFFFF8000000
01FFFFFFFFFFFFFFFFFFFFFFFC000000
00FFFFFFFFFFFFFFFFFFFFFFFE000000
007FFFFFFFFFFFFFFFFFFFFFFF000000
003FFFFFFFFFFFFFFFFFFFFFFF800000
001FFFFFFFFFFFFFFFFFFFFFFFC00000
000FFFFFFFFFFFFFFFFFFFFFFFE00000
0007FFFFFFFFFFFFFFFFFFFFFFF00000
0003FFFFFFFFFFFFFFFFFFFFFFF80000
0001FFFFFFFFFFFFFFFFFFFFFFFC0000
0000FFFFFFFFFFFFFFFFFFFFFFFE0000
00007FFFFFFFFFFFFFFFFFFFFFFF0000
00003FFFFFFFFFFFFFFFFFFFFFFF8000
00001FFFFFFFFFFFFFFFFFFFFFFFC000
00000FFFFFFFFFFFFFFFFFFFFFFFE000
000007FFFFFFFFFFFFFFFFFFFFFFF000
00000000000000000000FFFFFFFFF800
000000000000000000007FFFFFFFFC00
000000000000000000003FFFFFFFFE00
000000000000000000001FFFFFFFFF00
000000000000000000000FFFFFFFFF80
0000000000000000000007FFFFFFFFC0
0000000000000000000003FFFFFFFFE0
0000000000000000000001FFFFFFFFF0
0000000000000000000000FFFFFFFFF0
00000000000000000000007FFFFFFFF0
00000000000000000000003FFFFFFFF0
00000000000000000000001FFFFFFFF0
00000000000000000000000FFFFFFFF0
000000000000000000000007FFFFFFF0
000000000000000000000003FFFFFFF0
000000000000000000000001FFFFFFF0
000000000000000000000000FFFFFFF0
0000000000000000000000007FFFFFF0
0000000000000000000000003FFFFFF0
ENDCHAR
STARTCHAR 0052
ENCODING 82
SWIDTH 641 0
DWIDTH 109 0
BBX 104 130 2 0
BITMAP
FFFFFFFFFFFFFFFFFFFFE00000
FFFFFFFFFFFFFFFFFFFFF00000
FFFFFFFFFFFFFFFFFFFFF80000
FFFFFFFFFFFFFFFFFFFFFC0000
FFFFFFFFFFFFFFFFFFFFFE0000
FFFFFFFFFFFFFFFFFFFFFF0000
FFFFFFFFFFFFFFFFFFFFFF8000
FFFFFFFFFFFFFFFFFFFFFFC000
FFFFFFFFFFFFFFFFFFFFFFE000
FFFFFFFFFFFFFFFFFFFFFFF000
FFFFFFFFFFFFFFFFFFFFFFF800
FFFFFFFFFFFFFFFFFFFFFFFC00
FFFFFFFFFFFFFFFFFFFFFFFE00
FFFFFFFFFFFFFFFFFFFFFFFF00
FFFFFFFFFFFFFFFFFFFFFFFF80
FFFFFFFFFFFFFFFFFFFFFFFFC0
FFFFFFFFFFFFFFFFFFFFFFFFE0
FFFFFFFFFFFFFFFFFFFFFFFFF0
FFFFFFFFFFFFFFFFFFFFFFFFF8
FFFFFFFFFFFFFFFFFFFFFFFFFC
FFFFFFFFFFFFFFFFFFFFFFFFFE
FFFFFFFFFFFFFFFFFFFFFFFFFF
FFFFFFFFFFFFFFFFFFFFFFFFFF
FFFFFFFFFFFFFFFFFFFFFFFFFF
FFFFFFFFFFFFFFFFFFFFFFFFFF
FFFFFFFFFFFFFFFFFFFFFFFFFF
FFFFFFFFFFFFFFFFFFFFFFFFFF
FFFFFFFFFFFFFFFFFFFFFFFFFF
FFFFFFF0000000000007FFFFFF
FFFFFFF0000000000007FFFFFF
FFFFFFF0000000000007FFFFFF
FFFFFFF0000000000007FFFFFF
FFFFFFF0000000000007FFFFFF
FFFFFFF0000000000007FFFFFF
FFFFFFF0000000000007FFFFFF
FFFFFFF0000000000007FFFFFF
FFFFFFF0000000000007FFFFFF
FFFFFFF0000000000007FFFFFF
FFFFFFF0000000000007FFFFFF
FFFFFFF0000000000007FFFFFF
FFFFFFF0000000000007FFFFFF
FFFFFFF0000000000007FFFFFF
FFFFFFF0000000000007FFFFFF
FFFFFFF0000000000007FFFFFF
FFFFFFF0000000000007FFFFFF
FFFFFFF0000000000007FFFFFF
FFFFFFF0000000000007FFFFFF
FFFFFFF0000000000007FFFFFF
FFFFFFF0000000000007FFFFFF
FFFFFFF0000000000007FFFFFF
FFFFFFF0000000000007FFFFFF
FFFFFFF0000000000007FFFFFF
FFFFFFF0000000000007FFFFFF
FFFFFFF0000000000007FFFFFF
FFFFFFF0000000000007FFFFFF
FFFFFFF0000000000007FFFFFF
FFFFFFF0000000000007FFFFFF
FFFFFFF0000000000007FFFFFF
FFFFFFF0000000000007FFFFFF
FFFFFFF0000000000007FFFFFF
FFFFFFF0000000000007FFFFFF
FFFFFFF0000000000007FFFFFF
FFFFFFF0000000000007FFFFFF
FFFFFFF0000000000007FFFFFF
FFFFFFFFFFFFFFFFFFFFFFFFFF
FFFFFFFFFFFFFFFFFFFFFFFFFF
FFFFFFFFFFFFFFFFFFFFFFFFFF
FFFFFFFFFFFFFFFFFFFFFFFFFF
FFFFFFFFFFFFFFFFFFFFFFFFFF
FFFFFFFFFFFFFFFFFFFFFFFFFF
FFFFFFFFFFFFFFFFFFFFFFFFFF
FFFFFFFFFFFFFFFFFFFFFFFFFE
FFFFFFFFFFFFFFFFFFFFFFFFFC
FFFFFFFFFFFFFFFFFFFFFFFFF8
FFFFFFFFFFFFFFFFFFFFFFFFF0
FFFFFFFFFFFFFFFFFFFFFFFFE0
FFFFFFFFFFFFFFFFFFFFFFFFC0
FFFFFFFFFFFFFFFFFFFFFFFF80
FFFFFFFFFFFFFFFFFFFFFFFF00
FFFFFFFFFFFFFFFFFFFFFFFE00
FFFFFFFFFFFFFFFFFFFFFFFC00
FFFFFFFFFFFFFFFFFFFFFFF800
FFFFFFFFFFFFFFFFFFFFFFF000
FFFFFFFFFFFFFFFFFFFFFFE000
FFFFFFFFFFFFFFFFFFFFFFC000
FFFFFFFFFFFFFFFFFFFFFF8000
FFFFFFFFFFFFFFFFFFFFFF0000
FFFFFFFFFFFFFFFFFFFFFE0000
FFFFFFFFFFFFFFFFFFFFFC0000
FFFFFFFFFFFFFFFFFFFFF80000
FFFFFFFFFFFFFFFFFFFFF00000
FFFFFFFFFFFFFFFFFFFFE00000
FFFFFFF0003FFFFFFFFE000000
FFFFFFF0001FFFFFFFFF000000
FFFFFFF0000FFFFFFFFF800000
FFFFFFF00007FFFFFFFFC00000
FFFFFFF00003FFFFFFFFE00000
FFFFFFF00001FFFFFFFFF00000
FFFFFFF00000FFFFFFFFF80000
FFFFFFF000007FFFFFFFFC0000
FFFFFFF000003FFFFFFFFE0000
FFFFFFF000001FFFFFFFFF0000
FFFFFFF000000FFFFFFFFF8000
FFFFFFF0000007FFFFFFFFC000
FFFFFFF0000003FFFFFFFFE000
FFFFFFF0000001FFFFFFFFF000
FFFFFFF0000000FFFFFFFFF800
FFFFFFF00000007FFFFFFFFC00
FFFFFFF00000003FFFFFFFFE00
FFFFFFF00000001FFFFFFFFF00
FFFFFFF00000000FFFFFFFFF80
FFFFFFF000000007FFFFFFFFC0
FFFFFFF000000003FFFFFFFFE0
FFFFFFF000000001FFFFFFFFF0
FFFFFFF000000000FFFFFFFFF8
FFFFFFF0000000007FFFFFFFFC
FFFFFFF0000000003FFFFFFFFE
FFFFFFF0000000001FFFFFFFFF
FFFFFFF0000000000FFFFFFFFF
FFFFFFF00000000007FFFFFFFF
FFFFFFF00000000003FFFFFFFF
FFFFFFF00000000001FFFFFFFF
FFFFFFF00000000000FFFFFFFF
FFFFFFF000000000007FFFFFFF
FFFFFFF000000000003FFFFFFF
FFFFFFF000000000001FFFFFFF
FFFFFFF000000000000FFFFFFF
FFFFFFF0000000000007FFFFFF
FFFFFFF0000000000003FFFFFF
FFFFFFF0000000000001FFFFFF
ENDCHAR
STARTCHAR 0053
ENCODING 83
SWIDTH 676 0
DWIDTH 115 0
BBX 111 130 2 0
BITMAP
000003FFFFFFFFFFFFFFFF800000
000007FFFFFFFFFFFFFFFFC00000
00000FFFFFFFFFFFFFFFFFE00000
00001FFFFFFFFFFFFFFFFFF00000
00003FFFFFFFFFFFFFFFFFF80000
00007FFFFFFFFFFFFFFFFFFC0000
0000FFFFFFFFFFFFFFFFFFFE0000
0001FFFFFFFFFFFFFFFFFFFF0000
0003FFFFFFFFFFFFFFFFFFFF8000
0007FFFFFFFFFFFFFFFFFFFFC000
000FFFFFFFFFFFFFFFFFFFFFE000
001FFFFFFFFFFFFFFFFFFFFFF000
003FFFFFFFFFFFFFFFFFFFFFF800
007FFFFFFFFFFFFFFFFFFFFFFC00
00FFFFFFFFFFFFFFFFFFFFFFFE00
01FFFFFFFFFFFFFFFFFFFFFFFF00
03FFFFFFFFFFFFFFFFFFFFFFFF80
07FFFFFFFFFFFFFFFFFFFFFFFFC0
0FFFFFFFFFFFFFFFFFFFFFFFFFE0
1FFFFFFFFFFFFFFFFFFFFFFFFFF0
3FFFFFFFFFFFFFFFFFFFFFFFFFF8
7FFFFFFFFFFFFFFFFFFFFFFFFFFC
FFFFFFFFFFFFFFFFFFFFFFFFFFFE
FFFFFFFFFFFFFFFFFFFFFFFFFFFE
FFFFFFFFFFFFFFFFFFFFFFFFFFFE
FFFFFFFFFFFFFFFFFFFFFFFFFFFE
FFFFFFFFFFFFFFFFFFFFFFFFFFFE
FFFFFFFFFFFFFFFFFFFFFFFFFFFE
FFFFFFF00000000000000FFFFFFE
FFFFFFF00000000000000FFFFFFE
FFFFFFF00000000000000FFFFFFE
FFFFFFF00000000000000FFFFFFE
FFFFFFF00000000000000FFFFFFE
FFFFFFF00000000000000FFFFFFE
FFFFFFF00000000000000FFFFFFE
FFFFFFF00000000000000FFFFFFE
FFFFFFF00000000000000FFFFFFE
FFFFFFF00000000000000FFFFFFE
FFFFFFF00000000000000FFFFFFE
FFFFFFF00000000000000FFFFFFE
FFFFFFF00000000000000FFFFFFE
FFFFFFF00000000000000FFFFFFE
FFFFFFF00000000000000FFFFFFE
FFFFFFF00000000000000FFFFFFE
FFFFFFF00000000000000FFFFFFE
FFFFFFF00000000000000FFFFFFE
FFFFFFF00000000000000FFFFFFE
FFFFFFF000000000000000000000
FFFFFFF000000000000000000000
FFFFFFF000000000000000000000
FFFFFFF000000000000000000000
FFFFFFF000000000000000000000
FFFFFFFFFFFFFFFFFFFFFFC00000
FFFFFFFFFFFFFFFFFFFFFFE00000
FFFFFFFFFFFFFFFFFFFFFFF00000
FFFFFFFFFFFFFFFFFFFFFFF80000
FFFFFFFFFFFFFFFFFFFFFFFC0000
7FFFFFFFFFFFFFFFFFFFFFFE0000
3FFFFFFFFFFFFFFFFFFFFFFF0000
1FFFFFFFFFFFFFFFFFFFFFFF8000
0FFFFFFFFFFFFFFFFFFFFFFFC000
07FFFFFFFFFFFFFFFFFFFFFFE000
03FFFFFFFFFFFFFFFFFFFFFFF000
01FFFFFFFFFFFFFFFFFFFFFFF800
00FFFFFFFFFFFFFFFFFFFFFFFC00
007FFFFFFFFFFFFFFFFFFFFFFE00
003FFFFFFFFFFFFFFFFFFFFFFF00
001FFFFFFFFFFFFFFFFFFFFFFF80
000FFFFFFFFFFFFFFFFFFFFFFFC0
0007FFFFFFFFFFFFFFFFFFFFFFE0
0003FFFFFFFFFFFFFFFFFFFFFFF0
0001FFFFFFFFFFFFFFFFFFFFFFF8
0000FFFFFFFFFFFFFFFFFFFFFFFC
00007FFFFFFFFFFFFFFFFFFFFFFE
00003FFFFFFFFFFFFFFFFFFFFFFE
00001FFFFFFFFFFFFFFFFFFFFFFE
00000FFFFFFFFFFFFFFFFFFFFFFE
000007FFFFFFFFFFFFFFFFFFFFFE
000003FFFFFFFFFFFFFFFFFFFFFE
000000000000000000000FFFFFFE
000000000000000000000FFFFFFE
000000000000000000000FFFFFFE
000000000000000000000FFFFFFE
000000000000000000000FFFFFFE
FFFFFFF00000000000000FFFFFFE
FFFFFFF00000000000000FFFFFFE
FFFFFFF00000000000000FFFFFFE
FFFFFFF00000000000000FFFFFFE
FFFFFFF00000000000000FFFFFFE
FFFFFFF00000000000000FFFFFFE
FFFFFFF00000000000000FFFFFFE
FFFFFFF00000000000000FFFFFFE
FFFFFFF00000000000000FFFFFFE
FFFFFFF00000000000000FFFFFFE
FFFFFFF00000000000000FFFFFFE
FFFFFFF00000000000000FFFFFFE
FFFFFFF00000000000000FFFFFFE
FFFFFFF00000000000000FFFFFFE
FFFFFFF00000000000000FFFFFFE
FFFFFFF00000000000000FFFFFFE
FFFFFFF00000000000000FFFFFFE
FFFFFFF00000000000000FFFFFFE
FFFFFFF00000000000000FFFFFFE
FFFFFFFFFFFFFFFFFFFFFFFFFFFE
FFFFFFFFFFFFFFFFFFFFFFFFFFFE
FFFFFFFFFFFFFFFFFFFFFFFFFFFE
FFFFFFFFFFFFFFFFFFFFFFFFFFFE
FFFFFFFFFFFFFFFFFFFFFFFFFFFE
FFFFFFFFFFFFFFFFFFFFFFFFFFFE
7FFFFFFFFFFFFFFFFFFFFFFFFFFC
3FFFFFFFFFFFFFFFFFFFFFFFFFF8
1FFFFFFFFFFFFFFFFFFFFFFFFFF0
0FFFFFFFFFFFFFFFFFFFFFFFFFE0
07FFFFFFFFFFFFFFFFFFFFFFFFC0
03FFFFFFFFFFFFFFFFFFFFFFFF80
01FFFFFFFFFFFFFFFFFFFFFFFF00
00FFFFFFFFFFFFFFFFFFFFFFFE00
007FFFFFFFFFFFFFFFFFFFFFFC00
003FFFFFFFFFFFFFFFFFFFFFF800
001FFFFFFFFFFFFFFFFFFFFFF000
000FFFFFFFFFFFFFFFFFFFFFE000
0007FFFFFFFFFFFFFFFFFFFFC000
0003FFFFFFFFFFFFFFFFFFFF8000
0001FFFFFFFFFFFFFFFFFFFF0000
0000FFFFFFFFFFFFFFFFFFFE0000
00007FFFFFFFFFFFFFFFFFFC0000
00003FFFFFFFFFFFFFFFFFF80000
00001FFFFFFFFFFFFFFFFFF00000
00000FFFFFFFFFFFFFFFFFE00000
000007FFFFFFFFFFFFFFFFC00000
ENDCHAR
STARTCHAR 0054
ENCODING 84
SWIDTH 564 0
DWIDTH 96 0
BBX 92 130 2 0
BITMAP
FFFFFFFFFFFFFFFFFFFFFFF0
FFFFFFFFFFFFFFFFFFFFFFF0
FFFFFFFFFFFFFFFFFFFFFFF0
FFFFFFFFFFFFFFFFFFFFFFF0
FFFFFFFFFFFFFFFFFFFFFFF0
FFFFFFFFFFFFFFFFFFFFFFF0
FFFFFFFFFFFFFFFFFFFFFFF0
FFFFFFFFFFFFFFFFFFFFFFF0
FFFFFFFFFFFFFFFFFFFFFFF0
FFFFFFFFFFFFFFFFFFFFFFF0
FFFFFFFFFFFFFFFFFFFFFFF0
FFFFFFFFFFFFFFFFFFFFFFF0
FFFFFFFFFFFFFFFFFFFFFFF0
FFFFFFFFFFFFFFFFFFFFFFF0
FFFFFFFFFFFFFFFFFFFFFFF0
FFFFFFFFFFFFFFFFFFFFFFF0
FFFFFFFFFFFFFFFFFFFFFFF0
FFFFFFFFFFFFFFFFFFFFFFF0
FFFFFFFFFFFFFFFFFFFFFFF0
FFFFFFFFFFFFFFFFFFFFFFF0
FFFFFFFFFFFFFFFFFFFFFFF0
FFFFFFFFFFFFFFFFFFFFFFF0
FFFFFFFFFFFFFFFFFFFFFFF0
FFFFFFFFFFFFFFFFFFFFFFF0
FFFFFFFFFFFFFFFFFFFFFFF0
FFFFFFFFFFFFFFFFFFFFFFF0
FFFFFFFFFFFFFFFFFFFFFFF0
FFFFFFFFFFFFFFFFFFFFFFF0
00000000FFFFFFF000000000
00000000FFFFFFF000000000
00000000FFFFFFF000000000
00000000FFFFFFF000000000
00000000FFFFFFF000000000
00000000FFFFFFF000000000
00000000FFFFFFF000000000
00000000FFFFFFF000000000
00000000FFFFFFF000000000
00000000FFFFFFF000000000
00000000FFFFFFF000000000
00000000FFFFFFF000000000
00000000FFFFFFF000000000
00000000FFFFFFF000000000
00000000FFFFFFF000000000
00000000FFFFFFF000000000
00000000FFFFFFF000000000
00000000FFFFFFF000000000
00000000FFFFFFF000000000
00000000FFFFFFF000000000
00000000FFFFFFF000000000
00000000FFFFFFF000000000
00000000FFFFFFF000000000
00000000FFFFFFF000000000
00000000FFFFFFF000000000
00000000FFFFFFF000000000
00000000FFFFFFF000000000
00000000FFFFFFF000000000
00000000FFFFFFF000000000
00000000FFFFFFF000000000
00000000FFFFFFF000000000
00000000FFFFFFF000000000
00000000FFFFFFF000000000
00000000FFFFFFF000000000
00000000FFFFFFF000000000
00000000FFFFFFF000000000
00000000FFFFFFF000000000
00000000FFFFFFF000000000
00000000FFFFFFF000000000
00000000FFFFFFF000000000
00000000FFFFFFF000000000
00000000FFFFFFF000000000
00000000FFFFFFF000000000
00000000FFFFFFF000000000
00000000FFFFFFF000000000
00000000FFFFFFF000000000
00000000FFFFFFF000000000
00000000FFFFFFF000000000
00000000FFFFFFF000000000
00000000FFFFFFF000000000
00000000FFFFFFF000000000
00000000FFFFFFF000000000
00000000FFFFFFF000000000
00000000FFFFFFF000000000
00000000FFFFFFF000000000
00000000FFFFFFF000000000
00000000FFFFFFF000000000
00000000FFFFFFF000000000
00000000FFFFFFF000000000
00000000FFFFFFF000000000
00000000FFFFFFF000000000
00000000FFFFFFF000000000
00000000FFFFFFF000000000
00000000FFFFFFF000000000
00000000FFFFFFF000000000
00000000FFFFFFF000000000
00000000FFFFFFF000000000
00000000FFFFFFF000000000
00000000FFFFFFF000000000
00000000FFFFFFF000000000
00000000FFFFFFF000000000
00000000FFFFFFF000000000
00000000FFFFFFF000000000
00000000FFFFFFF000000000
00000000FFFFFFF000000000
00000000FFFFFFF000000000
00000000FFFFFFF000000000
00000000FFFFFFF000000000
00000000FFFFFFF000000000
00000000FFFFFFF000000000
00000000FFFFFFF000000000
00000000FFFFFFF000000000
00000000FFFFFFF000000000
00000000FFFFFFF000000000
00000000FFFFFFF000000000
00000000FFFFFFF000000000
00000000FFFFFFF000000000
00000000FFFFFFF000000000
00000000FFFFFFF000000000
00000000FFFFFFF000000000
00000000FFFFFFF000000000
00000000FFFFFFF000000000
00000000FFFFFFF000000000
00000000FFFFFFF000000000
00000000FFFFFFF000000000
00000000FFFFFFF000000000
00000000FFFFFFF000000000
00000000FFFFFFF000000000
00000000FFFFFFF000000000
00000000FFFFFFF000000000
00000000FFFFFFF000000000
00000000FFFFFFF000000000
ENDCHAR
STARTCHAR 0055
ENCODING 85
SWIDTH 676 0
DWIDTH 115 0
BBX 111 130 2 0
BITMAP
FFFFFFF00000000000000FFFFFFE
FFFFFFF00000000000000FFFFFFE
FFFFFFF00000000000000FFFFFFE
FFFFFFF00000000000000FFFFFFE
FFFFFFF00000000000000FFFFFFE
FFFFFFF00000000000000FFFFFFE
FFFFFFF00000000000000FFFFFFE
FFFFFFF00000000000000FFFFFFE
FFFFFFF00000000000000FFFFFFE
FFFFFFF00000000000000FFFFFFE
FFFFFFF00000000000000FFFFFFE
FFFFFFF00000000000000FFFFFFE
FFFFFFF00000000000000FFFFFFE
FFFFFFF00000000000000FFFFFFE
FFFFFFF00000000000000FFFFFFE
FFFFFFF00000000000000FFFFFFE
FFFFFFF00000000000000FFFFFFE
FFFFFFF00000000000000FFFFFFE
FFFFFFF00000000000000FFFFFFE
FFFFFFF00000000000000FFFFFFE
FFFFFFF00000000000000FFFFFFE
FFFFFFF00000000000000FFFFFFE
FFFFFFF00000000000000FFFFFFE
FFFFFFF00000000000000FFFFFFE
FFFFFFF00000000000000FFFFFFE
FFFFFFF00000000000000FFFFFFE
FFFFFFF00000000000000FFFFFFE
FFFFFFF00000000000000FFFFFFE
FFFFFFF00000000000000FFFFFFE
FFFFFFF00000000000000FFFFFFE
FFFFFFF00000000000000FFFFFFE
FFFFFFF00000000000000FFFFFFE
FFFFFFF00000000000000FFFFFFE
FFFFFFF00000000000000FFFFFFE
FFFFFFF00000000000000FFFFFFE
FFFFFFF00000000000000FFFFFFE
FFFFFFF00000000000000FFFFFFE
FFFFFFF00000000000000FFFFFFE
FFFFFFF00000000000000FFFFFFE
FFFFFFF00000000000000FFFFFFE
FFFFFFF00000000000000FFFFFFE
FFFFFFF00000000000000FFFFFFE
FFFFFFF00000000000000FFFFFFE
FFFFFFF00000000000000FFFFFFE
FFFFFFF00000000000000FFFFFFE
FFFFFFF00000000000000FFFFFFE
FFFFFFF00000000000000FFFFFFE
FFFFFFF00000000000000FFFFFFE
FFFFFFF00000000000000FFFFFFE
FFFFFFF00000000000000FFFFFFE
FFFFFFF00000000000000FFFFFFE
FFFFFFF00000000000000FFFFFFE
FFFFFFF00000000000000FFFFFFE
FFFFFFF00000000000000FFFFFFE
FFFFFFF00000000000000FFFFFFE
FFFFFFF00000000000000FFFFFFE
FFFFFFF00000000000000FFFFFFE
FFFFFFF00000000000000FFFFFFE
FFFFFFF00000000000000FFFFFFE
FFFFFFF00000000000000FFFFFFE
FFFFFFF00000000000000FFFFFFE
FFFFFFF00000000000000FFFFFFE
FFFFFFF00000000000000FFFFFFE
FFFFFFF00000000000000FFFFFFE
FFFFFFF00000000000000FFFFFFE
FFFFFFF00000000000000FFFFFFE
FFFFFFF00000000000000FFFFFFE
FFFFFFF00000000000000FFFFFFE
FFFFFFF00000000000000FFFFFFE
FFFFFFF00000000000000FFFFFFE
FFFFFFF00000000000000FFFFFFE
FFFFFFF00000000000000FFFFFFE
FFFFFFF00000000000000FFFFFFE
FFFFFFF00000000000000FFFFFFE
FFFFFFF00000000000000FFFFFFE
FFFFFFF00000000000000FFFFFFE
FFFFFFF00000000000000FFFFFFE
FFFFFFF00000000000000FFFFFFE
FFFFFFF00000000000000FFFFFFE
FFFFFFF00000000000000FFFFFFE
FFFFFFF00000000000000FFFFFFE
FFFFFFF00000000000000FFFFFFE
FFFFFFF00000000000000FFFFFFE
FFFFFFF00000000000000FFFFFFE
FFFFFFF00000000000000FFFFFFE
FFFFFFF00000000000000FFFFFFE
FFFFFFF00000000000000FFFFFFE
FFFFFFF00000000000000FFFFFFE
FFFFFFF00000000000000FFFFFFE
FFFFFFF00000000000000FFFFFFE
FFFFFFF00000000000000FFFFFFE
FFFFFFF00000000000000FFFFFFE
FFFFFFF00000000000000FFFFFFE
FFFFFFF00000000000000FFFFFFE
FFFFFFF00000000000000FFFFFFE
FFFFFFF00000000000000FFFFFFE
FFFFFFF00000000000000FFFFFFE
FFFFFFF00000000000000FFFFFFE
FFFFFFF00000000000000FFFFFFE
FFFFFFF00000000000000FFFFFFE
FFFFFFF00000000000000FFFFFFE
FFFFFFF00000000000000FFFFFFE
FFFFFFF00000000000000FFFFFFE
FFFFFFFFFFFFFFFFFFFFFFFFFFFE
FFFFFFFFFFFFFFFFFFFFFFFFFFFE
FFFFFFFFFFFFFFFFFFFFFFFFFFFE
FFFFFFFFFFFFFFFFFFFFFFFFFFFE
FFFFFFFFFFFFFFFFFFFFFFFFFFFE
FFFFFFFFFFFFFFFFFFFFFFFFFFFE
7FFFFFFFFFFFFFFFFFFFFFFFFFFC
3FFFFFFFFFFFFFFFFFFFFFFFFFF8
1FFFFFFFFFFFFFFFFFFFFFFFFFF0
0FFFFFFFFFFFFFFFFFFFFFFFFFE0
07FFFFFFFFFFFFFFFFFFFFFFFFC0
03FFFFFFFFFFFFFFFFFFFFFFFF80
01FFFFFFFFFFFFFFFFFFFFFFFF00
00FFFFFFFFFFFFFFFFFFFFFFFE00
007FFFFFFFFFFFFFFFFFFFFFFC00
003FFFFFFFFFFFFFFFFFFFFFF800
001FFFFFFFFFFFFFFFFFFFFFF000
000FFFFFFFFFFFFFFFFFFFFFE000
0007FFFFFFFFFFFFFFFFFFFFC000
0003FFFFFFFFFFFFFFFFFFFF8000
0001FFFFFFFFFFFFFFFFFFFF0000
0000FFFFFFFFFFFFFFFFFFFE0000
00007FFFFFFFFFFFFFFFFFFC0000
00003FFFFFFFFFFFFFFFFFF80000
00001FFFFFFFFFFFFFFFFFF00000
00000FFFFFFFFFFFFFFFFFE00000
000007FFFFFFFFFFFFFFFFC00000
ENDCHAR
STARTCHAR 0056
ENCODING 86
SWIDTH 641 0
DWIDTH 109 0
BBX 104 130 2 0
BITMAP
FFFFFFF0000000000007FFFFFF
FFFFFFF0000000000007FFFFFF
FFFFFFF0000000000007FFFFFF
FFFFFFF0000000000007FFFFFF
FFFFFFF0000000000007FFFFFF
FFFFFFF0000000000007FFFFFF
FFFFFFF0000000000007FFFFFF
FFFFFFF0000000000007FFFFFF
FFFFFFF0000000000007FFFFFF
FFFFFFF0000000000007FFFFFF
FFFFFFF0000000000007FFFFFF
FFFFFFF0000000000007FFFFFF
FFFFFFF0000000000007FFFFFF
FFFFFFF0000000000007FFFFFF
FFFFFFF0000000000007FFFFFF
FFFFFFF0000000000007FFFFFF
FFFFFFF0000000000007FFFFFF
FFFFFFF0000000000007FFFFFF
FFFFFFF0000000000007FFFFFF
FFFFFFF0000000000007FFFFFF
FFFFFFF0000000000007FFFFFF
FFFFFFF0000000000007FFFFFF
FFFFFFF0000000000007FFFFFF
FFFFFFF0000000000007FFFFFF
FFFFFFF0000000000007FFFFFF
FFFFFFF0000000000007FFFFFF
FFFFFFF0000000000007FFFFFF
FFFFFFF0000000000007FFFFFF
FFFFFFF0000000000007FFFFFF
FFFFFFF0000000000007FFFFFF
FFFFFFF0000000000007FFFFFF
FFFFFFF0000000000007FFFFFF
FFFFFFF0000000000007FFFFFF
FFFFFFF0000000000007FFFFFF
FFFFFFF0000000000007FFFFFF
FFFFFFF0000000000007FFFFFF
FFFFFFF0000000000007FFFFFF
FFFFFFF0000000000007FFFFFF
FFFFFFF0000000000007FFFFFF
FFFFFFF0000000000007FFFFFF
FFFFFFF0000000000007FFFFFF
FFFFFFF0000000000007FFFFFF
FFFFFFF0000000000007FFFFFF
FFFFFFF0000000000007FFFFFF
FFFFFFF0000000000007FFFFFF
FFFFFFF0000000000007FFFFFF
FFFFFFF0000000000007FFFFFF
FFFFFFF0000000000007FFFFFF
FFFFFFF0000000000007FFFFFF
FFFFFFF0000000000007FFFFFF
FFFFFFF0000000000007FFFFFF
FFFFFFF0000000000007FFFFFF
FFFFFFF0000000000007FFFFFF
FFFFFFF0000000000007FFFFFF
FFFFFFF0000000000007FFFFFF
FFFFFFF0000000000007FFFFFF
FFFFFFF0000000000007FFFFFF
FFFFFFF0000000000007FFFFFF
FFFFFFF0000000000007FFFFFF
FFFFFFF0000000000007FFFFFF
FFFFFFF0000000000007FFFFFF
FFFFFFF0000000000007FFFFFF
FFFFFFF0000000000007FFFFFF
FFFFFFF0000000000007FFFFFF
FFFFFFF0000000000007FFFFFF
FFFFFFF0000000000007FFFFFF
FFFFFFF0000000000007FFFFFF
FFFFFFF0000000000007FFFFFF
FFFFFFF0000000000007FFFFFF
FFFFFFF0000000000007FFFFFF
FFFFFFF0000000000007FFFFFF
FFFFFFF0000000000007FFFFFF
FFFFFFF0000000000007FFFFFF
FFFFFFF0000000000007FFFFFF
FFFFFFF800000000000FFFFFFF
FFFFFFFC00000000001FFFFFFF
FFFFFFFE00000000003FFFFFFF
FFFFFFFF00000000007FFFFFFF
FFFFFFFF8000000000FFFFFFFF
FFFFFFFFC000000001FFFFFFFF
FFFFFFFFE000000003FFFFFFFF
FFFFFFFFF000000007FFFFFFFF
FFFFFFFFF80000000FFFFFFFFF
7FFFFFFFFC0000001FFFFFFFFF
3FFFFFFFFE0000003FFFFFFFFE
1FFFFFFFFF0000007FFFFFFFFC
0FFFFFFFFF800000FFFFFFFFF8
07FFFFFFFFC00001FFFFFFFFF0
03FFFFFFFFE00003FFFFFFFFE0
01FFFFFFFFF00007FFFFFFFFC0
00FFFFFFFFF8000FFFFFFFFF80
007FFFFFFFFC001FFFFFFFFF00
003FFFFFFFFE003FFFFFFFFE00
001FFFFFFFFF007FFFFFFFFC00
000FFFFFFFFF80FFFFFFFFF800
0007FFFFFFFFC1FFFFFFFFF000
0003FFFFFFFFE3FFFFFFFFE000
0001FFFFFFFFF7FFFFFFFFC000
0000FFFFFFFFFFFFFFFFFF8000
00007FFFFFFFFFFFFFFFFF0000
00003FFFFFFFFFFFFFFFFE0000
00001FFFFFFFFFFFFFFFFC0000
00000FFFFFFFFFFFFFFFF80000
000007FFFFFFFFFFFFFFF00000
000003FFFFFFFFFFFFFFE00000
000001FFFFFFFFFFFFFFC00000
000000FFFFFFFFFFFFFF800000
0000007FFFFFFFFFFFFF000000
0000003FFFFFFFFFFFFE000000
0000001FFFFFFFFFFFFC000000
0000000FFFFFFFFFFFF8000000
00000007FFFFFFFFFFF0000000
00000003FFFFFFFFFFE0000000
00000001FFFFFFFFFFC0000000
00000000FFFFFFFFFF80000000
000000007FFFFFFFFF00000000
000000003FFFFFFFFE00000000
000000001FFFFFFFFC00000000
000000000FFFFFFFF800000000
0000000007FFFFFFF000000000
0000000003FFFFFFE000000000
0000000001FFFFFFC000000000
0000000000FFFFFF8000000000
00000000007FFFFF0000000000
00000000003FFFFE0000000000
00000000001FFFFC0000000000
00000000000FFFF80000000000
000000000007FFF00000000000
000000000003FFE00000000000
000000000001FFC00000000000
ENDCHAR
STARTCHAR 0057
ENCODING 87
SWIDTH 788 0
DWIDTH 134 0
BBX 130 130 2 0
BITMAP
FFFFFFF000000FFFFFFE000001FFFFFFC0
FFFFFFF000000FFFFFFE000001FFFFFFC0
FFFFFFF000000FFFFFFE000001FFFFFFC0
FFFFFFF000000FFFFFFE000001FFFFFFC0
FFFFFFF000000FFFFFFE000001FFFFFFC0
FFFFFFF000000FFFFFFE000001FFFFFFC0
FFFFFFF000000FFFFFFE000001FFFFFFC0
FFFFFFF000000FFFFFFE000001FFFFFFC0
FFFFFFF000000FFFFFFE000001FFFFFFC0
FFFFFFF000000FFFFFFE000001FFFFFFC0
FFFFFFF000000FFFFFFE000001FFFFFFC0
FFFFFFF000000FFFFFFE000001FFFFFFC0
FFFFFFF000000FFFFFFE000001FFFFFFC0
FFFFFFF000000FFFFFFE000001FFFFFFC0
FFFFFFF000000FFFFFFE000001FFFFFFC0
FFFFFFF000000FFFFFFE000001FFFFFFC0
FFFFFFF000000FFFFFFE000001FFFFFFC0
FFFFFFF000000FFFFFFE000001FFFFFFC0
FFFFFFF000000FFFFFFE000001FFFFFFC0
FFFFFFF000000FFFFFFE000001FFFFFFC0
FFFFFFF000000FFFFFFE000001FFFFFFC0
FFFFFFF000000FFFFFFE000001FFFFFFC0
FFFFFFF000000FFFFFFE000001FFFFFFC0
FFFFFFF000000FFFFFFE000001FFFFFFC0
FFFFFFF000000FFFFFFE000001FFFFFFC0
FFFFFFF000000FFFFFFE000001FFFFFFC0
FFFFFFF000000FFFFFFE000001FFFFFFC0
FFFFFFF000000FFFFFFE000001FFFFFFC0
FFFFFFF000000FFFFFFE000001FFFFFFC0
FFFFFFF000000FFFFFFE000001FFFFFFC0
FFFFFFF000000FFFFFFE000001FFFFFFC0
FFFFFFF000000FFFFFFE000001FFFFFFC0
FFFFFFF000000FFFFFFE000001FFFFFFC0
FFFFFFF000000FFFFFFE000001FFFFFFC0
FFFFFFF000000FFFFFFE000001FFFFFFC0
FFFFFFF000000FFFFFFE000001FFFFFFC0
FFFFFFF000000FFFFFFE000001FFFFFFC0
FFFFFFF000000FFFFFFE000001FFFFFFC0
FFFFFFF000000FFFFFFE000001FFFFFFC0
FFFFFFF000000FFFFFFE000001FFFFFFC0
FFFFFFF000000FFFFFFE000001FFFFFFC0
FFFFFFF000000FFFFFFE000001FFFFFFC0
FFFFFFF000000FFFFFFE000001FFFFFFC0
FFFFFFF000000FFFFFFE000001FFFFFFC0
FFFFFFF000000FFFFFFE000001FFFFFFC0
FFFFFFF000000FFFFFFE000001FFFFFFC0
FFFFFFF000000FFFFFFE000001FFFFFFC0
FFFFFFF000000FFFFFFE000001FFFFFFC0
FFFFFFF000000FFFFFFE000001FFFFFFC0
FFFFFFF000000FFFFFFE000001FFFFFFC0
FFFFFFF000000FFFFFFE000001FFFFFFC0
FFFFFFF000000FFFFFFE000001FFFFFFC0
FFFFFFF000000FFFFFFE000001FFFFFFC0
FFFFFFF000000FFFFFFE000001FFFFFFC0
FFFFFFF000001FFFFFFE000001FFFFFFC0
FFFFFFF000003FFFFFFF000001FFFFFFC0
FFFFFFF000007FFFFFFF800001FFFFFFC0
FFFFFFF00000FFFFFFFFC00001FFFFFFC0
FFFFFFF00001FFFFFFFFE00001FFFFFFC0
FFFFFFF00003FFFFFFFFF00001FFFFFFC0
FFFFFFF00007FFFFFFFFF80001FFFFFFC0
FFFFFFF0000FFFFFFFFFFC0001FFFFFFC0
FFFFFFF0001FFFFFFFFFFE0001FFFFFFC0
FFFFFFF0003FFFFFFFFFFF0001FFFFFFC0
FFFFFFF0007FFFFFFFFFFF8001FFFFFFC0
FFFFFFF000FFFFFFFFFFFFC001FFFFFFC0
FFFFFFF001FFFFFFFFFFFFE001FFFFFFC0
FFFFFFF003FFFFFFFFFFFFF001FFFFFFC0
FFFFFFF007FFFFFFFFFFFFF801FFFFFFC0
FFFFFFF00FFFFFFFFFFFFFFC01FFFFFFC0
FFFFFFF01FFFFFFFFFFFFFFE01FFFFFFC0
FFFFFFF03FFFFFFFFFFFFFFF01FFFFFFC0
FFFFFFF07FFFFFFFFFFFFFFF81FFFFFFC0
FFFFFFF0FFFFFFFFFFFFFFFFC1FFFFFFC0
FFFFFFF1FFFFFFFFFFFFFFFFE1FFFFFFC0
FFFFFFF3FFFFFFFFFFFFFFFFF1FFFFFFC0
FFFFFFF7FFFFFFFFFFFFFFFFF9FFFFFFC0
FFFFFFFFFFFFFFFFFFFFFFFFFDFFFFFFC0
FFFFFFFFFFFFFFFF3FFFFFFFFFFFFFFFC0
FFFFFFFFFFFFFFFE1FFFFFFFFFFFFFFFC0
FFFFFFFFFFFFFFFC0FFFFFFFFFFFFFFFC0
FFFFFFFFFFFFFFF807FFFFFFFFFFFFFFC0
FFFFFFFFFFFFFFF003FFFFFFFFFFFFFFC0
FFFFFFFFFFFFFFE001FFFFFFFFFFFFFFC0
FFFFFFFFFFFFFFC000FFFFFFFFFFFFFFC0
FFFFFFFFFFFFFF80007FFFFFFFFFFFFFC0
FFFFFFFFFFFFFF00003FFFFFFFFFFFFFC0
FFFFFFFFFFFFFE00001FFFFFFFFFFFFFC0
FFFFFFFFFFFFFC00000FFFFFFFFFFFFFC0
FFFFFFFFFFFFF8000007FFFFFFFFFFFFC0
FFFFFFFFFFFFF0000003FFFFFFFFFFFFC0
FFFFFFFFFFFFE0000001FFFFFFFFFFFFC0
FFFFFFFFFFFFC0000000FFFFFFFFFFFFC0
FFFFFFFFFFFF800000007FFFFFFFFFFFC0
FFFFFFFFFFFF000000003FFFFFFFFFFFC0
FFFFFFFFFFFE000000001FFFFFFFFFFFC0
FFFFFFFFFFFC000000000FFFFFFFFFFFC0
FFFFFFFFFFF80000000007FFFFFFFFFFC0
FFFFFFFFFFF00000000003FFFFFFFFFFC0
FFFFFFFFFFE00000000001FFFFFFFFFFC0
FFFFFFFFFFC00000000000FFFFFFFFFFC0
FFFFFFFFFF8000000000007FFFFFFFFFC0
FFFFFFFFFF0000000000003FFFFFFFFFC0
FFFFFFFFFE0000000000001FFFFFFFFFC0
FFFFFFFFFC0000000000000FFFFFFFFFC0
FFFFFFFFF800000000000007FFFFFFFFC0
FFFFFFFFF000000000000003FFFFFFFFC0
FFFFFFFFE000000000000001FFFFFFFFC0
FFFFFFFFC000000000000000FFFFFFFFC0
FFFFFFFF80000000000000007FFFFFFFC0
FFFFFFFF00000000000000003FFFFFFFC0
FFFFFFFE00000000000000001FFFFFFFC0
FFFFFFFC00000000000000000FFFFFFFC0
FFFFFFF8000000000000000007FFFFFFC0
FFFFFFF0000000000000000003FFFFFFC0
FFFFFFE0000000000000000001FFFFFFC0
FFFFFFC0000000000000000000FFFFFFC0
FFFFFF800000000000000000007FFFFFC0
FFFFFF000000000000000000003FFFFFC0
FFFFFE000000000000000000001FFFFFC0
FFFFFC000000000000000000000FFFFFC0
FFFFF80000000000000000000007FFFFC0
FFFFF00000000000000000000003FFFFC0
FFFFE00000000000000000000001FFFFC0
FFFFC00000000000000000000000FFFFC0
FFFF8000000000000000000000007FFFC0
FFFF0000000000000000000000003FFFC0
FFFE0000000000000000000000001FFFC0
FFFC0000000000000000000000000FFFC0
FFF800000000000000000000000007FFC0
ENDCHAR
STARTCHAR 0058
ENCODING 88
SWIDTH 641 0
DWIDTH 109 0
BBX 104 130 2 0
BITMAP
FFFFFFF0000000000007FFFFFF
FFFFFFF0000000000007FFFFFF
FFFFFFF0000000000007FFFFFF
FFFFFFF0000000000007FFFFFF
FFFFFFF0000000000007FFFFFF
FFFFFFF0000000000007FFFFFF
FFFFFFF0000000000007FFFFFF
FFFFFFF0000000000007FFFFFF
FFFFFFF0000000000007FFFFFF
FFFFFFF0000000000007FFFFFF
FFFFFFF0000000000007FFFFFF
FFFFFFF0000000000007FFFFFF
FFFFFFF0000000000007FFFFFF
FFFFFFF0000000000007FFFFFF
FFFFFFF0000000000007FFFFFF
FFFFFFF0000000000007FFFFFF
FFFFFFF0000000000007FFFFFF
FFFFFFF0000000000007FFFFFF
FFFFFFF0000000000007FFFFFF
FFFFFFF0000000000007FFFFFF
FFFFFFF0000000000007FFFFFF
FFFFFFF0000000000007FFFFFF
FFFFFFF0000000000007FFFFFF
FFFFFFF800000000000FFFFFFF
FFFFFFFC00000000001FFFFFFF
FFFFFFFE00000000003FFFFFFF
FFFFFFFF00000000007FFFFFFF
FFFFFFFF8000000000FFFFFFFF
FFFFFFFFC000000001FFFFFFFF
FFFFFFFFE000000003FFFFFFFF
FFFFFFFFF000000007FFFFFFFF
FFFFFFFFF80000000FFFFFFFFF
7FFFFFFFFC0000001FFFFFFFFF
3FFFFFFFFE0000003FFFFFFFFE
1FFFFFFFFF0000007FFFFFFFFC
0FFFFFFFFF800000FFFFFFFFF8
07FFFFFFFFC00001FFFFFFFFF0
03FFFFFFFFE00003FFFFFFFFE0
01FFFFFFFFF00007FFFFFFFFC0
00FFFFFFFFF8000FFFFFFFFF80
007FFFFFFFFC001FFFFFFFFF00
003FFFFFFFFE003FFFFFFFFE00
001FFFFFFFFF007FFFFFFFFC00
000FFFFFFFFF80FFFFFFFFF800
0007FFFFFFFFC1FFFFFFFFF000
0003FFFFFFFFE3FFFFFFFFE000
0001FFFFFFFFF7FFFFFFFFC000
0000FFFFFFFFFFFFFFFFFF8000
00007FFFFFFFFFFFFFFFFF0000
00003FFFFFFFFFFFFFFFFE0000
00001FFFFFFFFFFFFFFFFC0000
00000FFFFFFFFFFFFFFFF80000
000007FFFFFFFFFFFFFFF00000
000003FFFFFFFFFFFFFFE00000
000001FFFFFFFFFFFFFFC00000
000000FFFFFFFFFFFFFF800000
0000007FFFFFFFFFFFFF000000
0000003FFFFFFFFFFFFE000000
0000001FFFFFFFFFFFFC000000
0000000FFFFFFFFFFFF8000000
00000007FFFFFFFFFFF0000000
00000003FFFFFFFFFFE0000000
00000001FFFFFFFFFFC0000000
00000000FFFFFFFFFF80000000
000000007FFFFFFFFF00000000
000000003FFFFFFFFE00000000
000000007FFFFFFFFF00000000
00000000FFFFFFFFFF80000000
00000001FFFFFFFFFFC0000000
00000003FFFFFFFFFFE0000000
00000007FFFFFFFFFFF0000000
0000000FFFFFFFFFFFF8000000
0000001FFFFFFFFFFFFC000000
0000003FFFFFFFFFFFFE000000
0000007FFFFFFFFFFFFF000000
000000FFFFFFFFFFFFFF800000
000001FFFFFFFFFFFFFFC00000
000003FFFFFFFFFFFFFFE00000
000007FFFFFFFFFFFFFFF00000
00000FFFFFFFFFFFFFFFF80000
00001FFFFFFFFFFFFFFFFC0000
00003FFFFFFFFFFFFFFFFE0000
00007FFFFFFFFFFFFFFFFF0000
0000FFFFFFFFFFFFFFFFFF8000
0001FFFFFFFFF7FFFFFFFFC000
0003FFFFFFFFE3FFFFFFFFE000
0007FFFFFFFFC1FFFFFFFFF000
000FFFFFFFFF80FFFFFFFFF800
001FFFFFFFFF007FFFFFFFFC00
003FFFFFFFFE003FFFFFFFFE00
007FFFFFFFFC001FFFFFFFFF00
00FFFFFFFFF8000FFFFFFFFF80
01FFFFFFFFF00007FFFFFFFFC0
03FFFFFFFFE00003FFFFFFFFE0
07FFFFFFFFC00001FFFFFFFFF0
0FFFFFFFFF800000FFFFFFFFF8
1FFFFFFFFF0000007FFFFFFFFC
3FFFFFFFFE0000003FFFFFFFFE
7FFFFFFFFC0000001FFFFFFFFF
FFFFFFFFF80000000FFFFFFFFF
FFFFFFFFF000000007FFFFFFFF
FFFFFFFFE000000003FFFFFFFF
FFFFFFFFC000000001FFFFFFFF
FFFFFFFF8000000000FFFFFFFF
FFFFFFFF00000000007FFFFFFF
FFFFFFFE00000000003FFFFFFF
FFFFFFFC00000000001FFFFFFF
FFFFFFF800000000000FFFFFFF
FFFFFFF0000000000007FFFFFF
FFFFFFF0000000000007FFFFFF
FFFFFFF0000000000007FFFFFF
FFFFFFF0000000000007FFFFFF
FFFFFFF0000000000007FFFFFF
FFFFFFF0000000000007FFFFFF
FFFFFFF0000000000007FFFFFF
FFFFFFF0000000000007FFFFFF
FFFFFFF0000000000007FFFFFF
FFFFFFF0000000000007FFFFFF
FFFFFFF0000000000007FFFFFF
FFFFFFF0000000000007FFFFFF
FFFFFFF0000000000007FFFFFF
FFFFFFF0000000000007FFFFFF
FFFFFFF0000000000007FFFFFF
FFFFFFF0000000000007FFFFFF
FFFFFFF0000000000007FFFFFF
FFFFFFF0000000000007FFFFFF
FFFFFFF0000000000007FFFFFF
FFFFFFF0000000000007FFFFFF
FFFFFFF0000000000007FFFFFF
FFFFFFF0000000000007FFFFFF
ENDCHAR
STARTCHAR 0059
ENCODING 89
SWIDTH 641 0
DWIDTH 109 0
BBX 104 130 2 0
BITMAP
FFFFFFF0000000000007FFFFFF
FFFFFFF0000000000007FFFFFF
FFFFFFF0000000000007FFFFFF
FFFFFFF0000000000007FFFFFF
FFFFFFF0000000000007FFFFFF
FFFFFFF0000000000007FFFFFF
FFFFFFF0000000000007FFFFFF
FFFFFFF0000000000007FFFFFF
FFFFFFF0000000000007FFFFFF
FFFFFFF0000000000007FFFFFF
FFFFFFF0000000000007FFFFFF
FFFFFFF0000000000007FFFFFF
FFFFFFF0000000000007FFFFFF
FFFFFFF0000000000007FFFFFF
FFFFFFF0000000000007FFFFFF
FFFFFFF0000000000007FFFFFF
FFFFFFF0000000000007FFFFFF
FFFFFFF0000000000007FFFFFF
FFFFFFF0000000000007FFFFFF
FFFFFFF0000000000007FFFFFF
FFFFFFF0000000000007FFFFFF
FFFFFFF0000000000007FFFFFF
FFFFFFF0000000000007FFFFFF
FFFFFFF0000000000007FFFFFF
FFFFFFF0000000000007FFFFFF
FFFFFFF0000000000007FFFFFF
FFFFFFF0000000000007FFFFFF
FFFFFFF0000000000007FFFFFF
FFFFFFF0000000000007FFFFFF
FFFFFFF0000000000007FFFFFF
FFFFFFF0000000000007FFFFFF
FFFFFFF0000000000007FFFFFF
FFFFFFF0000000000007FFFFFF
FFFFFFF0000000000007FFFFFF
FFFFFFF0000000000007FFFFFF
FFFFFFF000000000000FFFFFFF
FFFFFFF800000000001FFFFFFF
FFFFFFFC00000000003FFFFFFF
FFFFFFFE00000000007FFFFFFF
FFFFFFFF0000000000FFFFFFFF
FFFFFFFF8000000001FFFFFFFF
FFFFFFFFC000000003FFFFFFFF
FFFFFFFFE000000007FFFFFFFF
FFFFFFFFF00000000FFFFFFFFF
FFFFFFFFF80000001FFFFFFFFF
7FFFFFFFFC0000003FFFFFFFFE
3FFFFFFFFE0000007FFFFFFFFC
1FFFFFFFFF000000FFFFFFFFF8
0FFFFFFFFF800001FFFFFFFFF0
07FFFFFFFFC00003FFFFFFFFE0
03FFFFFFFFE00007FFFFFFFFC0
01FFFFFFFFF0000FFFFFFFFF80
00FFFFFFFFF8001FFFFFFFFF00
007FFFFFFFFC003FFFFFFFFE00
003FFFFFFFFE007FFFFFFFFC00
001FFFFFFFFF00FFFFFFFFF800
000FFFFFFFFF81FFFFFFFFF000
0007FFFFFFFFC3FFFFFFFFE000
0003FFFFFFFFE7FFFFFFFFC000
0001FFFFFFFFF7FFFFFFFF8000
0000FFFFFFFFFFFFFFFFFF0000
00007FFFFFFFFFFFFFFFFE0000
00003FFFFFFFFFFFFFFFFC0000
00001FFFFFFFFFFFFFFFF80000
00000FFFFFFFFFFFFFFFF00000
000007FFFFFFFFFFFFFFE00000
000003FFFFFFFFFFFFFFC00000
000001FFFFFFFFFFFFFF800000
000000FFFFFFFFFFFFFF000000
0000007FFFFFFFFFFFFE000000
0000003FFFFFFFFFFFFC000000
0000001FFFFFFFFFFFF8000000
0000000FFFFFFFFFFFF0000000
00000007FFFFFFFFFFE0000000
00000003FFFFFFFFFFC0000000
00000001FFFFFFFFFF80000000
00000000FFFFFFFFFF00000000
000000007FFFFFFFFE00000000
000000003FFFFFFFFC00000000
000000001FFFFFFFF800000000
000000000FFFFFFFF000000000
0000000007FFFFFFE000000000
0000000003FFFFFFC000000000
0000000001FFFFFFC000000000
0000000001FFFFFFC000000000
0000000001FFFFFFC000000000
0000000001FFFFFFC000000000
0000000001FFFFFFC000000000
0000000001FFFFFFC000000000
0000000001FFFFFFC000000000
0000000001FFFFFFC000000000
0000000001FFFFFFC000000000
0000000001FFFFFFC000000000
0000000001FFFFFFC000000000
0000000001FFFFFFC000000000
0000000001FFFFFFC000000000
0000000001FFFFFFC000000000
0000000001FFFFFFC000000000
0000000001FFFFFFC000000000
0000000001FFFFFFC000000000
0000000001FFFFFFC000000000
0000000001FFFFFFC000000000
0000000001FFFFFFC000000000
0000000001FFFFFFC000000000
0000000001FFFFFFC000000000
0000000001FFFFFFC000000000
0000000001FFFFFFC000000000
0000000001FFFFFFC000000000
0000000001FFFFFFC000000000
0000000001FFFFFFC000000000
0000000001FFFFFFC000000000
0000000001FFFFFFC000000000
0000000001FFFFFFC000000000
0000000001FFFFFFC000000000
0000000001FFFFFFC000000000
0000000001FFFFFFC000000000
0000000001FFFFFFC000000000
0000000001FFFFFFC000000000
0000000001FFFFFFC000000000
0000000001FFFFFFC000000000
0000000001FFFFFFC000000000
0000000001FFFFFFC000000000
0000000001FFFFFFC000000000
0000000001FFFFFFC000000000
0000000001FFFFFFC000000000
0000000001FFFFFFC000000000
0000000001FFFFFFC000000000
0000000001FFFFFFC000000000
0000000001FFFFFFC000000000
0000000001FFFFFFC000000000
ENDCHAR
STARTCHAR 005A
ENCODING 90
SWIDTH 641 0
DWIDTH 109 0
BBX 104 130 2 0
BITMAP
FFFFFFFFFFFFFFFFFFFFFFFFFF
FFFFFFFFFFFFFFFFFFFFFFFFFF
FFFFFFFFFFFFFFFFFFFFFFFFFF
FFFFFFFFFFFFFFFFFFFFFFFFFF
FFFFFFFFFFFFFFFFFFFFFFFFFF
FFFFFFFFFFFFFFFFFFFFFFFFFF
FFFFFFFFFFFFFFFFFFFFFFFFFF
FFFFFFFFFFFFFFFFFFFFFFFFFF
FFFFFFFFFFFFFFFFFFFFFFFFFF
FFFFFFFFFFFFFFFFFFFFFFFFFF
FFFFFFFFFFFFFFFFFFFFFFFFFF
FFFFFFFFFFFFFFFFFFFFFFFFFF
FFFFFFFFFFFFFFFFFFFFFFFFFF
FFFFFFFFFFFFFFFFFFFFFFFFFF
FFFFFFFFFFFFFFFFFFFFFFFFFF
FFFFFFFFFFFFFFFFFFFFFFFFFF
FFFFFFFFFFFFFFFFFFFFFFFFFF
FFFFFFFFFFFFFFFFFFFFFFFFFF
FFFFFFFFFFFFFFFFFFFFFFFFFF
FFFFFFFFFFFFFFFFFFFFFFFFFF
FFFFFFFFFFFFFFFFFFFFFFFFFF
FFFFFFFFFFFFFFFFFFFFFFFFFF
FFFFFFFFFFFFFFFFFFFFFFFFFF
FFFFFFFFFFFFFFFFFFFFFFFFFF
FFFFFFFFFFFFFFFFFFFFFFFFFF
FFFFFFFFFFFFFFFFFFFFFFFFFF
FFFFFFFFFFFFFFFFFFFFFFFFFF
FFFFFFFFFFFFFFFFFFFFFFFFFF
000000000000000001FFFFFFFF
000000000000000003FFFFFFFF
000000000000000007FFFFFFFF
00000000000000000FFFFFFFFF
00000000000000001FFFFFFFFF
00000000000000003FFFFFFFFE
00000000000000007FFFFFFFFC
0000000000000000FFFFFFFFF8
0000000000000001FFFFFFFFF0
0000000000000003FFFFFFFFE0
0000000000000007FFFFFFFFC0
000000000000000FFFFFFFFF80
000000000000001FFFFFFFFF00
000000000000003FFFFFFFFE00
000000000000007FFFFFFFFC00
00000000000000FFFFFFFFF800
00000000000001FFFFFFFFF000
00000000000003FFFFFFFFE000
00000000000007FFFFFFFFC000
0000000000000FFFFFFFFF8000
0000000000001FFFFFFFFF0000
0000000000003FFFFFFFFE0000
0000000000007FFFFFFFFC0000
000000000000FFFFFFFFF80000
000000000001FFFFFFFFF00000
000000000003FFFFFFFFE00000
000000000007FFFFFFFFC00000
00000000000FFFFFFFFF800000
00000000001FFFFFFFFF000000
00000000003FFFFFFFFE000000
00000000007FFFFFFFFC000000
0000000000FFFFFFFFF8000000
0000000001FFFFFFFFF0000000
0000000003FFFFFFFFE0000000
0000000007FFFFFFFFC0000000
000000000FFFFFFFFF80000000
000000001FFFFFFFFF00000000
000000003FFFFFFFFE00000000
000000007FFFFFFFFC00000000
00000000FFFFFFFFF800000000
00000001FFFFFFFFF000000000
00000003FFFFFFFFE000000000
00000007FFFFFFFFC000000000
0000000FFFFFFFFF8000000000
0000001FFFFFFFFF0000000000
0000003FFFFFFFFE0000000000
0000007FFFFFFFFC0000000000
000000FFFFFFFFF80000000000
000001FFFFFFFFF00000000000
000003FFFFFFFFE00000000000
000007FFFFFFFFC00000000000
00000FFFFFFFFF800000000000
00001FFFFFFFFF000000000000
00003FFFFFFFFE000000000000
00007FFFFFFFFC000000000000
0000FFFFFFFFF8000000000000
0001FFFFFFFFF0000000000000
0003FFFFFFFFE0000000000000
0007FFFFFFFFC0000000000000
000FFFFFFFFF80000000000000
001FFFFFFFFF00000000000000
003FFFFFFFFE00000000000000
007FFFFFFFFC00000000000000
00FFFFFFFFF800000000000000
01FFFFFFFFF000000000000000
03FFFFFFFFE000000000000000
07FFFFFFFFC000000000000000
0FFFFFFFFF8000000000000000
1FFFFFFFFF0000000000000000
3FFFFFFFFE0000000000000000
7FFFFFFFFC0000000000000000
FFFFFFFFF80000000000000000
FFFFFFFFF00000000000000000
FFFFFFFFE00000000000000000
FFFFFFFFC00000000000000000
FFFFFFFFFFFFFFFFFFFFFFFFFF
FFFFFFFFFFFFFFFFFFFFFFFFFF
FFFFFFFFFFFFFFFFFFFFFFFFFF
FFFFFFFFFFFFFFFFFFFFFFFFFF
FFFFFFFFFFFFFFFFFFFFFFFFFF
FFFFFFFFFFFFFFFFFFFFFFFFFF
FFFFFFFFFFFFFFFFFFFFFFFFFF
FFFFFFFFFFFFFFFFFFFFFFFFFF
FFFFFFFFFFFFFFFFFFFFFFFFFF
FFFFFFFFFFFFFFFFFFFFFFFFFF
FFFFFFFFFFFFFFFFFFFFFFFFFF
FFFFFFFFFFFFFFFFFFFFFFFFFF
FFFFFFFFFFFFFFFFFFFFFFFFFF
FFFFFFFFFFFFFFFFFFFFFFFFFF
FFFFFFFFFFFFFFFFFFFFFFFFFF
FFFFFFFFFFFFFFFFFFFFFFFFFF
FFFFFFFFFFFFFFFFFFFFFFFFFF
FFFFFFFFFFFFFFFFFFFFFFFFFF
FFFFFFFFFFFFFFFFFFFFFFFFFF
FFFFFFFFFFFFFFFFFFFFFFFFFF
FFFFFFFFFFFFFFFFFFFFFFFFFF
FFFFFFFFFFFFFFFFFFFFFFFFFF
FFFFFFFFFFFFFFFFFFFFFFFFFF
FFFFFFFFFFFFFFFFFFFFFFFFFF
FFFFFFFFFFFFFFFFFFFFFFFFFF
FFFFFFFFFFFFFFFFFFFFFFFFFF
FFFFFFFFFFFFFFFFFFFFFFFFFF
ENDCHAR
STARTCHAR 005B
ENCODING 91
SWIDTH 300 0
DWIDTH 51 0
BBX 47 168 2 -20
BITMAP
FFFFFFFFFFFE
FFFFFFFFFFFE
FFFFFFFFFFFE
FFFFFFFFFFFE
FFFFFFFFFFFE
FFFFFFFFFFFE
FFFFFFFFFFFE
FFFFFFFFFFFE
FFFFFFFFFFFE
FFFFFFFFFFFE
FFFFFFFFFFFE
FFFFFFFFFFFE
FFFFFFFFFFFE
FFFFFFFFFFFE
FFFFFFFFFFFE
FFFFFFFFFFFE
FFFFFFFFFFFE
FFFFFFFFFFFE
FFFFFFFFFFFE
FFFFFFFFFFFE
FFFFFFFFFFFE
FFFFFFFFFFFE
FFFFFFFFFFFE
FFFFFFFFFFFE
FFFFFFFFFFFE
FFFFFFFFFFFE
FFFFFFFFFFFE
FFFFFFF00000
FFFFFFF00000
FFFFFFF00000
FFFFFFF00000
FFFFFFF00000
FFFFFFF00000
FFFFFFF00000
FFFFFFF00000
FFFFFFF00000
FFFFFFF00000
FFFFFFF00000
FFFFFFF00000
FFFFFFF00000
FFFFFFF00000
FFFFFFF00000
FFFFFFF00000
FFFFFFF00000
FFFFFFF00000
FFFFFFF00000
FFFFFFF00000
FFFFFFF00000
FFFFFFF00000
FFFFFFF00000
FFFFFFF00000
FFFFFFF00000
FFFFFFF00000
FFFFFFF00000
FFFFFFF00000
FFFFFFF00000
FFFFFFF00000
FFFFFFF00000
FFFFFFF00000
FFFFFFF00000
FFFFFFF00000
FFFFFFF00000
FFFFFFF00000
FFFFFFF00000
FFFFFFF00000
FFFFFFF00000
FFFFFFF00000
FFFFFFF00000
FFFFFFF00000
FFFFFFF00000
FFFFFFF00000
FFFFFFF00000
FFFFFFF00000
FFFFFFF00000
FFFFFFF00000
FFFFFFF00000
FFFFFFF00000
FFFFFFF00000
FFFFFFF00000
FFFFFFF00000
FFFFFFF00000
FFFFFFF00000
FFFFFFF00000
FFFFFFF00000
FFFFFFF00000
FFFFFFF00000
FFFFFFF00000
FFFFFFF00000
FFFFFFF00000
FFFFFFF00000
FFFFFFF00000
FFFFFFF00000
FFFFFFF00000
FFFFFFF00000
FFFFFFF00000
FFFFFFF00000
FFFFFFF00000
FFFFFFF00000
FFFFFFF00000
FFFFFFF00000
FFFFFFF00000
FFFFFFF00000
FFFFFFF00000
FFFFFFF00000
FFFFFFF00000
FFFFFFF00000
FFFFFFF00000
FFFFFFF00000
FFFFFFF00000
FFFFFFF00000
FFFFFFF00000
FFFFFFF00000
FFFFFFF00000
FFFFFFF00000
FFFFFFF00000
FFFFFFF00000
FFFFFFF00000
FFFFFFF00000
FFFFFFF00000
FFFFFFF00000
FFFFFFF00000
FFFFFFF00000
FFFFFFF00000
FFFFFFF00000
FFFFFFF00000
FFFFFFF00000
FFFFFFF00000
FFFFFFF00000
FFFFFFF00000
FFFFFFF00000
FFFFFFF00000
FFFFFFF00000
FFFFFFF00000
FFFFFFF00000
FFFFFFF00000
FFFFFFF00000
FFFFFFF00000
FFFFFFF00000
FFFFFFF00000
FFFFFFF00000
FFFFFFF00000
FFFFFFFFFFFE
FFFFFFFFFFFE
FFFFFFFFFFFE
FFFFFFFFFFFE
FFFFFFFFFFFE
FFFFFFFFFFFE
FFFFFFFFFFFE
FFFFFFFFFFFE
FFFFFFFFFFFE
FFFFFFFFFFFE
FFFFFFFFFFFE
FFFFFFFFFFFE
FFFFFFFFFFFE
FFFFFFFFFFFE
FFFFFFFFFFFE
FFFFFFFFFFFE
FFFFFFFFFFFE
FFFFFFFFFFFE
FFFFFFFFFFFE
FFFFFFFFFFFE
FFFFFFFFFFFE
FFFFFFFFFFFE
FFFFFFFFFFFE
FFFFFFFFFFFE
FFFFFFFFFFFE
FFFFFFFFFFFE
FFFFFFFFFFFE
ENDCHAR
STARTCHAR 005C
ENCODING 92
SWIDTH 488 0
DWIDTH 83 0
BBX 79 130 2 0
BITMAP
FFFFFFF0000000000000
FFFFFFF0000000000000
FFFFFFF0000000000000
FFFFFFF0000000000000
FFFFFFF0000000000000
FFFFFFF0000000000000
FFFFFFF0000000000000
FFFFFFF0000000000000
FFFFFFF0000000000000
FFFFFFF0000000000000
FFFFFFF0000000000000
FFFFFFF0000000000000
FFFFFFF0000000000000
FFFFFFF0000000000000
FFFFFFF0000000000000
FFFFFFF0000000000000
FFFFFFF0000000000000
FFFFFFF0000000000000
FFFFFFF0000000000000
FFFFFFF0000000000000
FFFFFFF0000000000000
FFFFFFF0000000000000
FFFFFFF0000000000000
FFFFFFF0000000000000
FFFFFFF0000000000000
FFFFFFF0000000000000
FFFFFFF0000000000000
FFFFFFF0000000000000
FFFFFFF0000000000000
FFFFFFF0000000000000
FFFFFFF0000000000000
FFFFFFF0000000000000
FFFFFFF0000000000000
FFFFFFF0000000000000
FFFFFFF0000000000000
FFFFFFF0000000000000
FFFFFFF8000000000000
FFFFFFFC000000000000
FFFFFFFE000000000000
FFFFFFFF000000000000
FFFFFFFF800000000000
FFFFFFFFC00000000000
FFFFFFFFE00000000000
FFFFFFFFF00000000000
FFFFFFFFF80000000000
7FFFFFFFFC0000000000
3FFFFFFFFE0000000000
1FFFFFFFFF0000000000
0FFFFFFFFF8000000000
07FFFFFFFFC000000000
03FFFFFFFFE000000000
01FFFFFFFFF000000000
00FFFFFFFFF800000000
007FFFFFFFFC00000000
003FFFFFFFFE00000000
001FFFFFFFFF00000000
000FFFFFFFFF80000000
0007FFFFFFFFC0000000
0003FFFFFFFFE0000000
0001FFFFFFFFF0000000
0000FFFFFFFFF8000000
00007FFFFFFFFC000000
00003FFFFFFFFE000000
00001FFFFFFFFF000000
00000FFFFFFFFF800000
000007FFFFFFFFC00000
000003FFFFFFFFE00000
000001FFFFFFFFF00000
000000FFFFFFFFF80000
0000007FFFFFFFFC0000
0000003FFFFFFFFE0000
0000001FFFFFFFFF0000
0000000FFFFFFFFF8000
00000007FFFFFFFFC000
00000003FFFFFFFFE000
00000001FFFFFFFFF000
00000000FFFFFFFFF800
000000007FFFFFFFFC00
000000003FFFFFFFFE00
000000001FFFFFFFFF00
000000000FFFFFFFFF80
0000000007FFFFFFFFC0
0000000003FFFFFFFFE0
0000000001FFFFFFFFF0
0000000000FFFFFFFFF8
00000000007FFFFFFFFC
00000000003FFFFFFFFE
00000000001FFFFFFFFE
00000000000FFFFFFFFE
000000000007FFFFFFFE
000000000003FFFFFFFE
000000000001FFFFFFFE
000000000000FFFFFFFE
0000000000007FFFFFFE
0000000000003FFFFFFE
0000000000001FFFFFFE
0000000000000FFFFFFE
0000000000000FFFFFFE
0000000000000FFFFFFE
0000000000000FFFFFFE
0000000000000FFFFFFE
0000000000000FFFFFFE
0000000000000FFFFFFE
0000000000000FFFFFFE
0000000000000FFFFFFE
0000000000000FFFFFFE
0000000000000FFFFFFE
0000000000000FFFFFFE
0000000000000FFFFFFE
0000000000000FFFFFFE
0000000000000FFFFFFE
0000000000000FFFFFFE
0000000000000FFFFFFE
0000000000000FFFFFFE
0000000000000FFFFFFE
0000000000000FFFFFFE
0000000000000FFFFFFE
0000000000000FFFFFFE
0000000000000FFFFFFE
0000000000000FFFFFFE
0000000000000FFFFFFE
0000000000000FFFFFFE
0000000000000FFFFFFE
0000000000000FFFFFFE
0000000000000FFFFFFE
0000000000000FFFFFFE
0000000000000FFFFFFE
0000000000000FFFFFFE
0000000000000FFFFFFE
0000000000000FFFFFFE
ENDCHAR
STARTCHAR 005D
ENCODING 93
SWIDTH 300 0
DWIDTH 51 0
BBX 47 168 2 -20
BITMAP
FFFFFFFFFFFE
FFFFFFFFFFFE
FFFFFFFFFFFE
FFFFFFFFFFFE
FFFFFFFFFFFE
FFFFFFFFFFFE
FFFFFFFFFFFE
FFFFFFFFFFFE
FFFFFFFFFFFE
FFFFFFFFFFFE
FFFFFFFFFFFE
FFFFFFFFFFFE
FFFFFFFFFFFE
FFFFFFFFFFFE
FFFFFFFFFFFE
FFFFFFFFFFFE
FFFFFFFFFFFE
FFFFFFFFFFFE
FFFFFFFFFFFE
FFFFFFFFFFFE
FFFFFFFFFFFE
FFFFFFFFFFFE
FFFFFFFFFFFE
FFFFFFFFFFFE
FFFFFFFFFFFE
FFFFFFFFFFFE
FFFFFFFFFFFE
00000FFFFFFE
00000FFFFFFE
00000FFFFFFE
00000FFFFFFE
00000FFFFFFE
00000FFFFFFE
00000FFFFFFE
00000FFFFFFE
00000FFFFFFE
00000FFFFFFE
00000FFFFFFE
00000FFFFFFE
00000FFFFFFE
00000FFFFFFE
00000FFFFFFE
00000FFFFFFE
00000FFFFFFE
00000FFFFFFE
00000FFFFFFE
00000FFFFFFE
00000FFFFFFE
00000FFFFFFE
00000FFFFFFE
00000FFFFFFE
00000FFFFFFE
00000FFFFFFE
00000FFFFFFE
00000FFFFFFE
00000FFFFFFE
00000FFFFFFE
00000FFFFFFE
00000FFFFFFE
00000FFFFFFE
00000FFFFFFE
00000FFFFFFE
00000FFFFFFE
00000FFFFFFE
00000FFFFFFE
00000FFFFFFE
00000FFFFFFE
00000FFFFFFE
00000FFFFFFE
00000FFFFFFE
00000FFFFFFE
00000FFFFFFE
00000FFFFFFE
00000FFFFFFE
00000FFFFFFE
00000FFFFFFE
00000FFFFFFE
00000FFFFFFE
00000FFFFFFE
00000FFFFFFE
00000FFFFFFE
00000FFFFFFE
00000FFFFFFE
00000FFFFFFE
00000FFFFFFE
00000FFFFFFE
00000FFFFFFE
00000FFFFFFE
00000FFFFFFE
00000FFFFFFE
00000FFFFFFE
00000FFFFFFE
00000FFFFFFE
00000FFFFFFE
00000FFFFFFE
00000FFFFFFE
00000FFFFFFE
00000FFFFFFE
00000FFFFFFE
00000FFFFFFE
00000FFFFFFE
00000FFFFFFE
00000FFFFFFE
00000FFFFFFE
00000FFFFFFE
00000FFFFFFE
00000FFFFFFE
00000FFFFFFE
00000FFFFFFE
00000FFFFFFE
00000FFFFFFE
00000FFFFFFE
00000FFFFFFE
00000FFFFFFE
00000FFFFFFE
00000FFFFFFE
00000FFFFFFE
00000FFFFFFE
00000FFFFFFE
00000FFFFFFE
00000FFFFFFE
00000FFFFFFE
00000FFFFFFE
00000FFFFFFE
00000FFFFFFE
00000FFFFFFE
00000FFFFFFE
00000FFFFFFE
00000FFFFFFE
00000FFFFFFE
00000FFFFFFE
00000FFFFFFE
00000FFFFFFE
00000FFFFFFE
00000FFFFFFE
00000FFFFFFE
00000FFFFFFE
00000FFFFFFE
00000FFFFFFE
00000FFFFFFE
00000FFFFFFE
FFFFFFFFFFFE
FFFFFFFFFFFE
FFFFFFFFFFFE
FFFFFFFFFFFE
FFFFFFFFFFFE
FFFFFFFFFFFE
FFFFFFFFFFFE
FFFFFFFFFFFE
FFFFFFFFFFFE
FFFFFFFFFFFE
FFFFFFFFFFFE
FFFFFFFFFFFE
FFFFFFFFFFFE
FFFFFFFFFFFE
FFFFFFFFFFFE
FFFFFFFFFFFE
FFFFFFFFFFFE
FFFFFFFFFFFE
FFFFFFFFFFFE
FFFFFFFFFFFE
FFFFFFFFFFFE
FFFFFFFFFFFE
FFFFFFFFFFFE
FFFFFFFFFFFE
FFFFFFFFFFFE
FFFFFFFFFFFE
FFFFFFFFFFFE
ENDCHAR
STARTCHAR 005E
ENCODING 94
SWIDTH 411 0
DWIDTH 70 0
BBX 66 53 2 76
BITMAP
0000000FFC00000000
0000001FFE00000000
0000003FFF00000000
0000007FFF80000000
000000FFFFC0000000
000001FFFFE0000000
000003FFFFF0000000
000007FFFFF8000000
00000FFFFFFC000000
00001FFFFFFE000000
00003FFFFFFF000000
00007FFFFFFF800000
0000FFFFFFFFC00000
0001FFFFFFFFE00000
0003FFFFFFFFF00000
0007FFFFFFFFF80000
000FFFFFFFFFFC0000
001FFFFFFFFFFE0000
003FFFFFFFFFFF0000
007FFFFFFFFFFF8000
00FFFFFFFFFFFFC000
01FFFFFFFFFFFFE000
03FFFFFFFFFFFFF000
07FFFFFFFFFFFFF800
0FFFFFFFFFFFFFFC00
1FFFFFFFFFFFFFFE00
3FFFFFFFFFFFFFFF00
7FFFFFFFFFFFFFFF80
FFFFFFFFFFFFFFFFC0
FFFFFFFFFFFFFFFFC0
FFFFFFFFFFFFFFFFC0
FFFFFFFFFFFFFFFFC0
FFFFFFFFFFFFFFFFC0
FFFFFFFF3FFFFFFFC0
FFFFFFFE1FFFFFFFC0
FFFFFFFC0FFFFFFFC0
FFFFFFF807FFFFFFC0
FFFFFFF003FFFFFFC0
FFFFFFE001FFFFFFC0
FFFFFFC000FFFFFFC0
FFFFFF80007FFFFFC0
FFFFFF00003FFFFFC0
FFFFFE00001FFFFFC0
FFFFFC00000FFFFFC0
FFFFF8000007FFFFC0
FFFFF0000003FFFFC0
FFFFE0000001FFFFC0
FFFFC0000000FFFFC0
FFFF800000007FFFC0
FFFF000000003FFFC0
FFFE000000001FFFC0
FFFC000000000FFFC0
FFF80000000007FFC0
ENDCHAR
STARTCHAR 005F
ENCODING 95
SWIDTH 829 0
DWIDTH 141 0
BBX 136 27 2 -20
BITMAP
FFFFFFFFFFFFFFFFFFFFFFFFFFFFFFFFFF
FFFFFFFFFFFFFFFFFFFFFFFFFFFFFFFFFF
FFFFFFFFFFFFFFFFFFFFFFFFFFFFFFFFFF
FFFFFFFFFFFFFFFFFFFFFFFFFFFFFFFFFF
FFFFFFFFFFFFFFFFFFFFFFFFFFFFFFFFFF
FFFFFFFFFFFFFFFFFFFFFFFFFFFFFFFFFF
FFFFFFFFFFFFFFFFFFFFFFFFFFFFFFFFFF
FFFFFFFFFFFFFFFFFFFFFFFFFFFFFFFFFF
FFFFFFFFFFFFFFFFFFFFFFFFFFFFFFFFFF
FFFFFFFFFFFFFFFFFFFFFFFFFFFFFFFFFF
FFFFFFFFFFFFFFFFFFFFFFFFFFFFFFFFFF
FFFFFFFFFFFFFFFFFFFFFFFFFFFFFFFFFF
FFFFFFFFFFFFFFFFFFFFFFFFFFFFFFFFFF
FFFFFFFFFFFFFFFFFFFFFFFFFFFFFFFFFF
FFFFFFFFFFFFFFFFFFFFFFFFFFFFFFFFFF
FFFFFFFFFFFFFFFFFFFFFFFFFFFFFFFFFF
FFFFFFFFFFFFFFFFFFFFFFFFFFFFFFFFFF
FFFFFFFFFFFFFFFFFFFFFFFFFFFFFFFFFF
FFFFFFFFFFFFFFFFFFFFFFFFFFFFFFFFFF
FFFFFFFFFFFFFFFFFFFFFFFFFFFFFFFFFF
FFFFFFFFFFFFFFFFFFFFFFFFFFFFFFFFFF
FFFFFFFFFFFFFFFFFFFFFFFFFFFFFFFFFF
FFFFFFFFFFFFFFFFFFFFFFFFFFFFFFFFFF
FFFFFFFFFFFFFFFFFFFFFFFFFFFFFFFFFF
FFFFFFFFFFFFFFFFFFFFFFFFFFFFFFFFFF
FFFFFFFFFFFFFFFFFFFFFFFFFFFFFFFFFF
FFFFFFFFFFFFFFFFFFFFFFFFFFFFFFFFFF
ENDCHAR
STARTCHAR 0060
ENCODING 96
SWIDTH 411 0
DWIDTH 70 0
BBX 60 47 2 102
BITMAP
FFFFFF8000000000
FFFFFFC000000000
FFFFFFE000000000
FFFFFFF000000000
FFFFFFF800000000
FFFFFFFC00000000
FFFFFFFE00000000
FFFFFFFF00000000
FFFFFFFF80000000
FFFFFFFFC0000000
FFFFFFFFE0000000
FFFFFFFFF0000000
7FFFFFFFF8000000
3FFFFFFFFC000000
1FFFFFFFFE000000
0FFFFFFFFF000000
07FFFFFFFF800000
03FFFFFFFFC00000
01FFFFFFFFE00000
00FFFFFFFFF00000
007FFFFFFFF80000
003FFFFFFFFC0000
001FFFFFFFFE0000
000FFFFFFFFF0000
0007FFFFFFFF8000
0003FFFFFFFFC000
0001FFFFFFFFE000
0000FFFFFFFFF000
00007FFFFFFFF800
00003FFFFFFFFC00
00001FFFFFFFFE00
00000FFFFFFFFF00
000007FFFFFFFF80
000003FFFFFFFFC0
000001FFFFFFFFE0
000000FFFFFFFFF0
0000007FFFFFFFF0
0000003FFFFFFFF0
0000001FFFFFFFF0
0000000FFFFFFFF0
00000007FFFFFFF0
00000003FFFFFFF0
00000001FFFFFFF0
00000000FFFFFFF0
000000007FFFFFF0
000000003FFFFFF0
000000001FFFFFF0
ENDCHAR
STARTCHAR 0061
ENCODING 97
SWIDTH 676 0
DWIDTH 115 0
BBX 111 104 2 1
BITMAP
000007FFFFFFFFFFFFF800003FFE
00000FFFFFFFFFFFFFFC00007FFE
00001FFFFFFFFFFFFFFE0000FFFE
00003FFFFFFFFFFFFFFF0001FFFE
00007FFFFFFFFFFFFFFF8003FFFE
0000FFFFFFFFFFFFFFFFC007FFFE
0001FFFFFFFFFFFFFFFFE00FFFFE
0003FFFFFFFFFFFFFFFFF01FFFFE
0007FFFFFFFFFFFFFFFFF83FFFFE
000FFFFFFFFFFFFFFFFFFC3FFFFE
001FFFFFFFFFFFFFFFFFFE3FFFFE
003FFFFFFFFFFFFFFFFFFF3FFFFE
007FFFFFFFFFFFFFFFFFFFBFFFFE
00FFFFFFFFFFFFFFFFFFFFFFFFFE
01FFFFFFFFFFFFFFFFFFFFFFFFFE
03FFFFFFFFFFFFFFFFFFFFFFFFFE
07FFFFFFFFFFFFFFFFFFFFFFFFFE
0FFFFFFFFFFFFFFFFFFFFFFFFFFE
1FFFFFFFFFFFFFFFFFFFFFFFFFFE
3FFFFFFFFFFFFFFFFFFFFFFFFFFE
7FFFFFFFFFFFFFFFFFFFFFFFFFFE
FFFFFFFFFFFFFFFFFFFFFFFFFFFE
FFFFFFFFFFFFFFFFFFFFFFFFFFFE
FFFFFFFFFFFFFFFFFFFFFFFFFFFE
FFFFFFFFFFFFFFFFFFFFFFFFFFFE
FFFFFFFFFFFFFFFFFFFFFFFFFFFE
FFFFFFFFFFFFFFFFFFFFFFFFFFFE
FFFFFFF00000000000000FFFFFFE
FFFFFFF00000000000000FFFFFFE
FFFFFFF00000000000000FFFFFFE
FFFFFFF00000000000000FFFFFFE
FFFFFFF00000000000000FFFFFFE
FFFFFFF00000000000000FFFFFFE
FFFFFFF00000000000000FFFFFFE
FFFFFFF00000000000000FFFFFFE
FFFFFFF00000000000000FFFFFFE
FFFFFFF00000000000000FFFFFFE
FFFFFFF00000000000000FFFFFFE
FFFFFFF00000000000000FFFFFFE
FFFFFFF00000000000000FFFFFFE
FFFFFFF00000000000000FFFFFFE
FFFFFFF00000000000000FFFFFFE
FFFFFFF00000000000000FFFFFFE
FFFFFFF00000000000000FFFFFFE
FFFFFFF00000000000000FFFFFFE
FFFFFFF00000000000000FFFFFFE
FFFFFFF00000000000000FFFFFFE
FFFFFFF00000000000000FFFFFFE
FFFFFFF00000000000000FFFFFFE
FFFFFFF00000000000000FFFFFFE
FFFFFFF00000000000000FFFFFFE
FFFFFFF00000000000000FFFFFFE
FFFFFFF00000000000000FFFFFFE
FFFFFFF00000000000000FFFFFFE
FFFFFFF00000000000000FFFFFFE
FFFFFFF00000000000000FFFFFFE
FFFFFFF00000000000000FFFFFFE
FFFFFFF00000000000000FFFFFFE
FFFFFFF00000000000000FFFFFFE
FFFFFFF00000000000000FFFFFFE
FFFFFFF00000000000000FFFFFFE
FFFFFFF00000000000000FFFFFFE
FFFFFFF00000000000000FFFFFFE
FFFFFFF00000000000000FFFFFFE
FFFFFFF00000000000000FFFFFFE
FFFFFFF00000000000000FFFFFFE
FFFFFFF00000000000000FFFFFFE
FFFFFFF00000000000000FFFFFFE
FFFFFFF00000000000000FFFFFFE
FFFFFFF00000000000000FFFFFFE
FFFFFFF00000000000000FFFFFFE
FFFFFFF00000000000000FFFFFFE
FFFFFFF00000000000000FFFFFFE
FFFFFFF00000000000000FFFFFFE
FFFFFFF00000000000000FFFFFFE
FFFFFFF00000000000000FFFFFFE
FFFFFFF00000000000000FFFFFFE
FFFFFFFFFFFFFFFFFFFFFFFFFFFE
FFFFFFFFFFFFFFFFFFFFFFFFFFFE
FFFFFFFFFFFFFFFFFFFFFFFFFFFE
FFFFFFFFFFFFFFFFFFFFFFFFFFFE
FFFFFFFFFFFFFFFFFFFFFFFFFFFE
FFFFFFFFFFFFFFFFFFFFFFFFFFFE
7FFFFFFFFFFFFFFFFFFFFFFFFFFE
3FFFFFFFFFFFFFFFFFFFFFFFFFFE
1FFFFFFFFFFFFFFFFFFFFFFFFFFE
0FFFFFFFFFFFFFFFFFFFFFFFFFFE
07FFFFFFFFFFFFFFFFFFFFFFFFFE
03FFFFFFFFFFFFFFFFFFFFFFFFFE
01FFFFFFFFFFFFFFFFFFFFFFFFFE
00FFFFFFFFFFFFFFFFFFFFFFFFFE
007FFFFFFFFFFFFFFFFFFFBFFFFE
003FFFFFFFFFFFFFFFFFFF3FFFFE
001FFFFFFFFFFFFFFFFFFE3FFFFE
000FFFFFFFFFFFFFFFFFFC3FFFFE
0007FFFFFFFFFFFFFFFFF83FFFFE
0003FFFFFFFFFFFFFFFFF01FFFFE
0001FFFFFFFFFFFFFFFFE00FFFFE
0000FFFFFFFFFFFFFFFFC007FFFE
00007FFFFFFFFFFFFFFF8003FFFE
00003FFFFFFFFFFFFFFF0001FFFE
00001FFFFFFFFFFFFFFE0000FFFE
00000FFFFFFFFFFFFFFC00007FFE
000007FFFFFFFFFFFFF800003FFE
ENDCHAR
STARTCHAR 0062
ENCODING 98
SWIDTH 676 0
DWIDTH 115 0
BBX 111 136 2 0
BITMAP
FFFFFFF000000000000000000000
FFFFFFF000000000000000000000
FFFFFFF000000000000000000000
FFFFFFF000000000000000000000
FFFFFFF000000000000000000000
FFFFFFF000000000000000000000
FFFFFFF000000000000000000000
FFFFFFF000000000000000000000
FFFFFFF000000000000000000000
FFFFFFF000000000000000000000
FFFFFFF000000000000000000000
FFFFFFF000000000000000000000
FFFFFFF000000000000000000000
FFFFFFF000000000000000000000
FFFFFFF000000000000000000000
FFFFFFF000000000000000000000
FFFFFFF000000000000000000000
FFFFFFF000000000000000000000
FFFFFFF000000000000000000000
FFFFFFF000000000000000000000
FFFFFFF000000000000000000000
FFFFFFF000000000000000000000
FFFFFFF000000000000000000000
FFFFFFF000000000000000000000
FFFFFFF000000000000000000000
FFFFFFF000000000000000000000
FFFFFFF000000000000000000000
FFFFFFF000000000000000000000
FFFFFFF000000000000000000000
FFFFFFF000000000000000000000
FFFFFFF000000000000000000000
FFFFFFF000000000000000000000
FFFFFFF0007FFFFFFFFFFFC00000
FFFFFFF000FFFFFFFFFFFFE00000
FFFFFFF001FFFFFFFFFFFFF00000
FFFFFFF003FFFFFFFFFFFFF80000
FFFFFFF007FFFFFFFFFFFFFC0000
FFFFFFF00FFFFFFFFFFFFFFE0000
FFFFFFF01FFFFFFFFFFFFFFF0000
FFFFFFF03FFFFFFFFFFFFFFF8000
FFFFFFF07FFFFFFFFFFFFFFFC000
FFFFFFF0FFFFFFFFFFFFFFFFE000
FFFFFFF1FFFFFFFFFFFFFFFFF000
FFFFFFF3FFFFFFFFFFFFFFFFF800
FFFFFFF7FFFFFFFFFFFFFFFFFC00
FFFFFFFFFFFFFFFFFFFFFFFFFE00
FFFFFFFFFFFFFFFFFFFFFFFFFF00
FFFFFFFFFFFFFFFFFFFFFFFFFF80
FFFFFFFFFFFFFFFFFFFFFFFFFFC0
FFFFFFFFFFFFFFFFFFFFFFFFFFE0
FFFFFFFFFFFFFFFFFFFFFFFFFFF0
FFFFFFFFFFFFFFFFFFFFFFFFFFF8
FFFFFFFFFFFFFFFFFFFFFFFFFFFC
FFFFFFFFFFFFFFFFFFFFFFFFFFFE
FFFFFFFFFFFFFFFFFFFFFFFFFFFE
FFFFFFFFFFFFFFFFFFFFFFFFFFFE
FFFFFFFFFFFFFFFFFFFFFFFFFFFE
FFFFFFFFFFFFFFFFFFFFFFFFFFFE
FFFFFFFFFFFFFFFFFFFFFFFFFFFE
FFFFFFF00000000000000FFFFFFE
FFFFFFF00000000000000FFFFFFE
FFFFFFF00000000000000FFFFFFE
FFFFFFF00000000000000FFFFFFE
FFFFFFF00000000000000FFFFFFE
FFFFFFF00000000000000FFFFFFE
FFFFFFF00000000000000FFFFFFE
FFFFFFF00000000000000FFFFFFE
FFFFFFF00000000000000FFFFFFE
FFFFFFF00000000000000FFFFFFE
FFFFFFF00000000000000FFFFFFE
FFFFFFF00000000000000FFFFFFE
FFFFFFF00000000000000FFFFFFE
FFFFFFF00000000000000FFFFFFE
FFFFFFF00000000000000FFFFFFE
FFFFFFF00000000000000FFFFFFE
FFFFFFF00000000000000FFFFFFE
FFFFFFF00000000000000FFFFFFE
FFFFFFF00000000000000FFFFFFE
FFFFFFF00000000000000FFFFFFE
FFFFFFF00000000000000FFFFFFE
FFFFFFF00000000000000FFFFFFE
FFFFFFF00000000000000FFFFFFE
FFFFFFF00000000000000FFFFFFE
FFFFFFF00000000000000FFFFFFE
FFFFFFF00000000000000FFFFFFE
FFFFFFF00000000000000FFFFFFE
FFFFFFF00000000000000FFFFFFE
FFFFFFF00000000000000FFFFFFE
FFFFFFF00000000000000FFFFFFE
FFFFFFF00000000000000FFFFFFE
FFFFFFF00000000000000FFFFFFE
FFFFFFF00000000000000FFFFFFE
FFFFFFF00000000000000FFFFFFE
FFFFFFF00000000000000FFFFFFE
FFFFFFF00000000000000FFFFFFE
FFFFFFF00000000000000FFFFFFE
FFFFFFF00000000000000FFFFFFE
FFFFFFF00000000000000FFFFFFE
FFFFFFF00000000000000FFFFFFE
FFFFFFF00000000000000FFFFFFE
FFFFFFF00000000000000FFFFFFE
FFFFFFF00000000000000FFFFFFE
FFFFFFF00000000000000FFFFFFE
FFFFFFF00000000000000FFFFFFE
FFFFFFF00000000000000FFFFFFE
FFFFFFF00000000000000FFFFFFE
FFFFFFF00000000000000FFFFFFE
FFFFFFF00000000000000FFFFFFE
FFFFFFF00000000000000FFFFFFE
FFFFFFFFFFFFFFFFFFFFFFFFFFFE
FFFFFFFFFFFFFFFFFFFFFFFFFFFE
FFFFFFFFFFFFFFFFFFFFFFFFFFFE
FFFFFFFFFFFFFFFFFFFFFFFFFFFE
FFFFFFFFFFFFFFFFFFFFFFFFFFFE
FFFFFFFFFFFFFFFFFFFFFFFFFFFE
7FFFFFFFFFFFFFFFFFFFFFFFFFFC
3FFFFFFFFFFFFFFFFFFFFFFFFFF8
1FFFFFFFFFFFFFFFFFFFFFFFFFF0
0FFFFFFFFFFFFFFFFFFFFFFFFFE0
07FFFFFFFFFFFFFFFFFFFFFFFFC0
03FFFFFFFFFFFFFFFFFFFFFFFF80
01FFFFFFFFFFFFFFFFFFFFFFFF00
00FFFFFFFFFFFFFFFFFFFFFFFE00
007FFFFFFFFFFFFFFFFFFFFFFC00
003FFFFFFFFFFFFFFFFFFFFFF800
001FFFFFFFFFFFFFFFFFFFFFF000
000FFFFFFFFFFFFFFFFFFFFFE000
0007FFFFFFFFFFFFFFFFFFFFC000
0003FFFFFFFFFFFFFFFFFFFF8000
0001FFFFFFFFFFFFFFFFFFFF0000
0000FFFFFFFFFFFFFFFFFFFE0000
00007FFFFFFFFFFFFFFFFFFC0000
00003FFFFFFFFFFFFFFFFFF80000
00001FFFFFFFFFFFFFFFFFF00000
00000FFFFFFFFFFFFFFFFFE00000
000007FFFFFFFFFFFFFFFFC00000
ENDCHAR
STARTCHAR 0063
ENCODING 99
SWIDTH 641 0
DWIDTH 109 0
BBX 104 104 2 1
BITMAP
000007FFFFFFFFFFFFFFE00000
00000FFFFFFFFFFFFFFFF00000
00001FFFFFFFFFFFFFFFF80000
00003FFFFFFFFFFFFFFFFC0000
00007FFFFFFFFFFFFFFFFE0000
0000FFFFFFFFFFFFFFFFFF0000
0001FFFFFFFFFFFFFFFFFF8000
0003FFFFFFFFFFFFFFFFFFC000
0007FFFFFFFFFFFFFFFFFFE000
000FFFFFFFFFFFFFFFFFFFF000
001FFFFFFFFFFFFFFFFFFFF800
003FFFFFFFFFFFFFFFFFFFFC00
007FFFFFFFFFFFFFFFFFFFFE00
00FFFFFFFFFFFFFFFFFFFFFF00
01FFFFFFFFFFFFFFFFFFFFFF80
03FFFFFFFFFFFFFFFFFFFFFFC0
07FFFFFFFFFFFFFFFFFFFFFFE0
0FFFFFFFFFFFFFFFFFFFFFFFF0
1FFFFFFFFFFFFFFFFFFFFFFFF8
3FFFFFFFFFFFFFFFFFFFFFFFFC
7FFFFFFFFFFFFFFFFFFFFFFFFE
FFFFFFFFFFFFFFFFFFFFFFFFFF
FFFFFFFFFFFFFFFFFFFFFFFFFF
FFFFFFFFFFFFFFFFFFFFFFFFFF
FFFFFFFFFFFFFFFFFFFFFFFFFF
FFFFFFFFFFFFFFFFFFFFFFFFFF
FFFFFFFFFFFFFFFFFFFFFFFFFF
FFFFFFF0000000000007FFFFFF
FFFFFFF0000000000007FFFFFF
FFFFFFF0000000000007FFFFFF
FFFFFFF0000000000007FFFFFF
FFFFFFF0000000000007FFFFFF
FFFFFFF0000000000007FFFFFF
FFFFFFF0000000000007FFFFFF
FFFFFFF0000000000007FFFFFF
FFFFFFF0000000000007FFFFFF
FFFFFFF0000000000007FFFFFF
FFFFFFF0000000000007FFFFFF
FFFFFFF0000000000007FFFFFF
FFFFFFF0000000000007FFFFFF
FFFFFFF0000000000007FFFFFF
FFFFFFF0000000000007FFFFFF
FFFFFFF0000000000007FFFFFF
FFFFFFF0000000000007FFFFFF
FFFFFFF0000000000007FFFFFF
FFFFFFF0000000000007FFFFFF
FFFFFFF0000000000000000000
FFFFFFF0000000000000000000
FFFFFFF0000000000000000000
FFFFFFF0000000000000000000
FFFFFFF0000000000000000000
FFFFFFF0000000000000000000
FFFFFFF0000000000000000000
FFFFFFF0000000000000000000
FFFFFFF0000000000000000000
FFFFFFF0000000000000000000
FFFFFFF0000000000000000000
FFFFFFF0000000000000000000
FFFFFFF0000000000000000000
FFFFFFF0000000000000000000
FFFFFFF0000000000000000000
FFFFFFF0000000000000000000
FFFFFFF0000000000000000000
FFFFFFF0000000000000000000
FFFFFFF0000000000000000000
FFFFFFF0000000000000000000
FFFFFFF0000000000000000000
FFFFFFF0000000000000000000
FFFFFFF0000000000000000000
FFFFFFF0000000000000000000
FFFFFFF0000000000000000000
FFFFFFF0000000000000000000
FFFFFFF0000000000000000000
FFFFFFF0000000000000000000
FFFFFFF0000000000000000000
FFFFFFF0000000000000000000
FFFFFFF0000000000000000000
FFFFFFFFFFFFFFFFFFFFFFFFFF
FFFFFFFFFFFFFFFFFFFFFFFFFF
FFFFFFFFFFFFFFFFFFFFFFFFFF
FFFFFFFFFFFFFFFFFFFFFFFFFF
FFFFFFFFFFFFFFFFFFFFFFFFFF
FFFFFFFFFFFFFFFFFFFFFFFFFF
7FFFFFFFFFFFFFFFFFFFFFFFFF
3FFFFFFFFFFFFFFFFFFFFFFFFF
1FFFFFFFFFFFFFFFFFFFFFFFFF
0FFFFFFFFFFFFFFFFFFFFFFFFF
07FFFFFFFFFFFFFFFFFFFFFFFF
03FFFFFFFFFFFFFFFFFFFFFFFF
01FFFFFFFFFFFFFFFFFFFFFFFF
00FFFFFFFFFFFFFFFFFFFFFFFF
007FFFFFFFFFFFFFFFFFFFFFFF
003FFFFFFFFFFFFFFFFFFFFFFF
001FFFFFFFFFFFFFFFFFFFFFFF
000FFFFFFFFFFFFFFFFFFFFFFF
0007FFFFFFFFFFFFFFFFFFFFFF
0003FFFFFFFFFFFFFFFFFFFFFF
0001FFFFFFFFFFFFFFFFFFFFFF
0000FFFFFFFFFFFFFFFFFFFFFF
00007FFFFFFFFFFFFFFFFFFFFF
00003FFFFFFFFFFFFFFFFFFFFF
00001FFFFFFFFFFFFFFFFFFFFF
00000FFFFFFFFFFFFFFFFFFFFF
000007FFFFFFFFFFFFFFFFFFFF
ENDCHAR
STARTCHAR 0064
ENCODING 100
SWIDTH 676 0
DWIDTH 115 0
BBX 111 136 2 0
BITMAP
000000000000000000000FFFFFFE
000000000000000000000FFFFFFE
000000000000000000000FFFFFFE
000000000000000000000FFFFFFE
000000000000000000000FFFFFFE
000000000000000000000FFFFFFE
000000000000000000000FFFFFFE
000000000000000000000FFFFFFE
000000000000000000000FFFFFFE
000000000000000000000FFFFFFE
000000000000000000000FFFFFFE
000000000000000000000FFFFFFE
000000000000000000000FFFFFFE
000000000000000000000FFFFFFE
000000000000000000000FFFFFFE
000000000000000000000FFFFFFE
000000000000000000000FFFFFFE
000000000000000000000FFFFFFE
000000000000000000000FFFFFFE
000000000000000000000FFFFFFE
000000000000000000000FFFFFFE
000000000000000000000FFFFFFE
000000000000000000000FFFFFFE
000000000000000000000FFFFFFE
000000000000000000000FFFFFFE
000000000000000000000FFFFFFE
000000000000000000000FFFFFFE
000000000000000000000FFFFFFE
000000000000000000000FFFFFFE
000000000000000000000FFFFFFE
000000000000000000000FFFFFFE
000000000000000000000FFFFFFE
000007FFFFFFFFFFFE000FFFFFFE
00000FFFFFFFFFFFFF000FFFFFFE
00001FFFFFFFFFFFFF800FFFFFFE
00003FFFFFFFFFFFFFC00FFFFFFE
00007FFFFFFFFFFFFFE00FFFFFFE
0000FFFFFFFFFFFFFFF00FFFFFFE
0001FFFFFFFFFFFFFFF80FFFFFFE
0003FFFFFFFFFFFFFFFC0FFFFFFE
0007FFFFFFFFFFFFFFFE0FFFFFFE
000FFFFFFFFFFFFFFFFE0FFFFFFE
001FFFFFFFFFFFFFFFFF0FFFFFFE
003FFFFFFFFFFFFFFFFF8FFFFFFE
007FFFFFFFFFFFFFFFFFCFFFFFFE
00FFFFFFFFFFFFFFFFFFFFFFFFFE
01FFFFFFFFFFFFFFFFFFFFFFFFFE
03FFFFFFFFFFFFFFFFFFFFFFFFFE
07FFFFFFFFFFFFFFFFFFFFFFFFFE
0FFFFFFFFFFFFFFFFFFFFFFFFFFE
1FFFFFFFFFFFFFFFFFFFFFFFFFFE
3FFFFFFFFFFFFFFFFFFFFFFFFFFE
7FFFFFFFFFFFFFFFFFFFFFFFFFFE
FFFFFFFFFFFFFFFFFFFFFFFFFFFE
FFFFFFFFFFFFFFFFFFFFFFFFFFFE
FFFFFFFFFFFFFFFFFFFFFFFFFFFE
FFFFFFFFFFFFFFFFFFFFFFFFFFFE
FFFFFFFFFFFFFFFFFFFFFFFFFFFE
FFFFFFFFFFFFFFFFFFFFFFFFFFFE
FFFFFFF00000000000000FFFFFFE
FFFFFFF00000000000000FFFFFFE
FFFFFFF00000000000000FFFFFFE
FFFFFFF00000000000000FFFFFFE
FFFFFFF00000000000000FFFFFFE
FFFFFFF00000000000000FFFFFFE
FFFFFFF00000000000000FFFFFFE
FFFFFFF00000000000000FFFFFFE
FFFFFFF00000000000000FFFFFFE
FFFFFFF00000000000000FFFFFFE
FFFFFFF00000000000000FFFFFFE
FFFFFFF00000000000000FFFFFFE
FFFFFFF00000000000000FFFFFFE
FFFFFFF00000000000000FFFFFFE
FFFFFFF00000000000000FFFFFFE
FFFFFFF00000000000000FFFFFFE
FFFFFFF00000000000000FFFFFFE
FFFFFFF00000000000000FFFFFFE
FFFFFFF00000000000000FFFFFFE
FFFFFFF00000000000000FFFFFFE
FFFFFFF00000000000000FFFFFFE
FFFFFFF00000000000000FFFFFFE
FFFFFFF00000000000000FFFFFFE
FFFFFFF00000000000000FFFFFFE
FFFFFFF00000000000000FFFFFFE
FFFFFFF00000000000000FFFFFFE
FFFFFFF00000000000000FFFFFFE
FFFFFFF00000000000000FFFFFFE
FFFFFFF00000000000000FFFFFFE
FFFFFFF00000000000000FFFFFFE
FFFFFFF00000000000000FFFFFFE
FFFFFFF00000000000000FFFFFFE
FFFFFFF00000000000000FFFFFFE
FFFFFFF00000000000000FFFFFFE
FFFFFFF00000000000000FFFFFFE
FFFFFFF00000000000000FFFFFFE
FFFFFFF00000000000000FFFFFFE
FFFFFFF00000000000000FFFFFFE
FFFFFFF00000000000000FFFFFFE
FFFFFFF00000000000000FFFFFFE
FFFFFFF00000000000000FFFFFFE
FFFFFFF00000000000000FFFFFFE
FFFFFFF00000000000000FFFFFFE
FFFFFFF00000000000000FFFFFFE
FFFFFFF00000000000000FFFFFFE
FFFFFFF00000000000000FFFFFFE
FFFFFFF00000000000000FFFFFFE
FFFFFFF00000000000000FFFFFFE
FFFFFFF00000000000000FFFFFFE
FFFFFFF00000000000000FFFFFFE
FFFFFFFFFFFFFFFFFFFFFFFFFFFE
FFFFFFFFFFFFFFFFFFFFFFFFFFFE
FFFFFFFFFFFFFFFFFFFFFFFFFFFE
FFFFFFFFFFFFFFFFFFFFFFFFFFFE
FFFFFFFFFFFFFFFFFFFFFFFFFFFE
FFFFFFFFFFFFFFFFFFFFFFFFFFFE
7FFFFFFFFFFFFFFFFFFFFFFFFFFE
3FFFFFFFFFFFFFFFFFFFFFFFFFFE
1FFFFFFFFFFFFFFFFFFFFFFFFFFE
0FFFFFFFFFFFFFFFFFFFFFFFFFFE
07FFFFFFFFFFFFFFFFFFFFFFFFFE
03FFFFFFFFFFFFFFFFFFFFFFFFFE
01FFFFFFFFFFFFFFFFFFFFFFFFFE
00FFFFFFFFFFFFFFFFFFFFFFFFFE
007FFFFFFFFFFFFFFFFFFFBFFFFE
003FFFFFFFFFFFFFFFFFFF3FFFFE
001FFFFFFFFFFFFFFFFFFE3FFFFE
000FFFFFFFFFFFFFFFFFFC3FFFFE
0007FFFFFFFFFFFFFFFFF83FFFFE
0003FFFFFFFFFFFFFFFFF01FFFFE
0001FFFFFFFFFFFFFFFFE00FFFFE
0000FFFFFFFFFFFFFFFFC007FFFE
00007FFFFFFFFFFFFFFF8003FFFE
00003FFFFFFFFFFFFFFF0001FFFE
00001FFFFFFFFFFFFFFE0000FFFE
00000FFFFFFFFFFFFFFC00007FFE
000007FFFFFFFFFFFFF800003FFE
ENDCHAR
ENDFONT
